<svg width="38" height="36" viewBox="0 0 38 36" fill="none" xmlns="http://www.w3.org/2000/svg">
<g clip-path="url(#clip0_561_8)">
<path d="M3.48875 13.3476C2.5627 13.3476 1.67454 12.9797 1.01972 12.3249C0.364903 11.6701 -0.00292969 10.7819 -0.00292969 9.85588C-0.00292969 8.92983 0.364903 8.0417 1.01972 7.38688C1.67454 6.73207 2.5627 6.3642 3.48875 6.3642C3.64309 6.3642 3.79107 6.4255 3.90021 6.53463C4.00934 6.64377 4.0707 6.7918 4.0707 6.94614C4.0707 7.10049 4.00934 7.2485 3.90021 7.35764C3.79107 7.46677 3.64309 7.52809 3.48875 7.52809C2.87138 7.52809 2.27925 7.77332 1.84271 8.20987C1.40616 8.64641 1.16096 9.23851 1.16096 9.85588C1.16096 10.4732 1.40616 11.0653 1.84271 11.5019C2.27925 11.9384 2.87138 12.1837 3.48875 12.1837C3.64309 12.1837 3.79107 12.245 3.90021 12.3541C4.00934 12.4632 4.0707 12.6113 4.0707 12.7656C4.0707 12.92 4.00934 13.068 3.90021 13.1771C3.79107 13.2862 3.64309 13.3476 3.48875 13.3476Z" fill="#256763"/>
<path d="M27.0137 36H23.7067C23.5654 36.0001 23.429 35.9488 23.3228 35.8557C23.2166 35.7626 23.1478 35.6341 23.1293 35.4941L22.6638 31.9248C19.3855 32.8082 15.9328 32.8146 12.6513 31.9434L12.1857 35.4941C12.1672 35.6341 12.0985 35.7626 11.9922 35.8557C11.886 35.9488 11.7496 36.0001 11.6084 36H8.29984C8.18228 36 8.06741 35.9645 7.97045 35.898C7.8735 35.8315 7.79901 35.7372 7.75669 35.6276L4.36428 26.8611C2.42601 24.5752 1.40332 21.8858 1.40332 19.0801C1.40332 14.5642 4.09119 10.3664 8.59468 7.84929C8.72947 7.77397 8.88863 7.75529 9.0372 7.79735C9.18577 7.8394 9.31158 7.93874 9.3869 8.07353C9.46222 8.20832 9.48086 8.36752 9.43881 8.51609C9.39675 8.66466 9.2974 8.79045 9.16261 8.86577C5.03312 11.1734 2.56721 14.9925 2.56721 19.0801C2.56721 21.6344 3.51547 24.0895 5.31252 26.1798C5.35603 26.2297 5.39018 26.287 5.41337 26.349L8.69864 34.8361H11.0963L11.5835 31.1225C11.5945 31.0385 11.6236 30.958 11.6689 30.8864C11.7142 30.8149 11.7746 30.7541 11.8459 30.7083C11.9171 30.6625 11.9974 30.6327 12.0813 30.6212C12.1652 30.6097 12.2506 30.6166 12.3316 30.6414C15.8026 31.6973 19.5102 31.6903 22.9773 30.6213C23.0583 30.5959 23.1439 30.5885 23.2281 30.5997C23.3122 30.6109 23.393 30.6404 23.4646 30.686C23.5361 30.7317 23.5968 30.7925 23.6424 30.8642C23.688 30.9358 23.7173 31.0166 23.7284 31.1008L24.2172 34.8361H26.6149L29.9606 26.1954C29.9831 26.1386 30.0151 26.0861 30.0553 26.0402C30.1919 25.885 30.3223 25.7112 30.4495 25.5436C30.4686 25.5175 30.4898 25.4931 30.5131 25.4706L36.03 20.2145L36.075 14.797C34.8661 14.7271 32.4142 14.4695 31.6196 13.5244C31.2565 13.093 30.5643 12.4055 29.9529 11.7988C29.6425 11.4884 29.3554 11.2044 29.1319 10.9732C28.1419 9.90706 29.132 6.8561 29.8396 5.07612C27.5258 4.74558 25.5487 6.53643 24.5307 7.70187C24.4278 7.81344 24.2854 7.8804 24.1339 7.88849C23.9823 7.89657 23.8336 7.84512 23.7195 7.74512C23.6053 7.64513 23.5347 7.50449 23.5228 7.3532C23.5108 7.2019 23.5584 7.05193 23.6554 6.93524C24.9497 5.45322 27.6018 3.11457 30.811 4.10621C30.8881 4.13005 30.9593 4.16972 31.0202 4.22269C31.081 4.27567 31.1301 4.34078 31.1643 4.41384C31.1985 4.48689 31.217 4.56629 31.2187 4.64694C31.2204 4.72758 31.2053 4.8077 31.1742 4.88214C30.1702 7.24252 29.599 9.75963 29.9761 10.1585C30.1872 10.3773 30.4712 10.6597 30.7738 10.9592C31.3946 11.58 32.1131 12.2907 32.5088 12.7609C32.9247 13.2544 34.9917 13.6036 36.6755 13.6439C36.8282 13.6476 36.9734 13.7111 37.0797 13.8209C37.1859 13.9306 37.2448 14.0778 37.2435 14.2305L37.1923 20.4566C37.1916 20.5348 37.1752 20.6121 37.144 20.6838C37.1128 20.7555 37.0675 20.8202 37.0107 20.874L31.3496 26.2668C31.2409 26.4126 31.1276 26.5554 31.0112 26.6966L27.5568 35.6213C27.5155 35.7322 27.4414 35.8278 27.3444 35.8955C27.2473 35.9631 27.132 35.9996 27.0137 36Z" fill="#256763"/>
<path d="M26.915 14.1437C26.915 14.2733 26.9535 14.3999 27.0255 14.5076C27.0976 14.6154 27.1999 14.6993 27.3197 14.7488C27.4394 14.7984 27.5712 14.8112 27.6983 14.7858C27.8253 14.7604 27.942 14.6979 28.0336 14.6062C28.1251 14.5144 28.1873 14.3976 28.2124 14.2705C28.2375 14.1433 28.2243 14.0116 28.1745 13.892C28.1247 13.7723 28.0405 13.6702 27.9326 13.5984C27.8247 13.5266 27.698 13.4885 27.5684 13.4888C27.4824 13.4886 27.3972 13.5054 27.3177 13.5382C27.2383 13.5711 27.1661 13.6193 27.1054 13.6802C27.0447 13.7411 26.9966 13.8134 26.9639 13.8929C26.9313 13.9725 26.9146 14.0577 26.915 14.1437Z" fill="#256763"/>
<path d="M12.1601 31.7805C12.1005 31.7804 12.0414 31.771 11.9847 31.7525C11.8296 31.7029 10.4329 31.2621 9.93005 30.9937C9.86029 30.9593 9.79817 30.9113 9.74728 30.8524C9.6964 30.7936 9.65776 30.7252 9.63377 30.6512C9.60979 30.5772 9.60094 30.4992 9.60763 30.4217C9.61432 30.3442 9.63641 30.2688 9.67272 30.2C9.70903 30.1313 9.75876 30.0704 9.81897 30.0212C9.87918 29.972 9.94871 29.9353 10.0233 29.9134C10.098 29.8915 10.1762 29.8847 10.2535 29.8935C10.3307 29.9024 10.4055 29.9266 10.4732 29.9648C11.0806 30.226 11.7023 30.4524 12.3354 30.643C12.4683 30.6844 12.582 30.7721 12.6557 30.8902C12.7295 31.0082 12.7585 31.1488 12.7375 31.2864C12.7165 31.424 12.6468 31.5495 12.5412 31.6402C12.4355 31.7308 12.3008 31.7806 12.1616 31.7805H12.1601Z" fill="#256763"/>
<path d="M23.1504 31.7587C23.0136 31.759 22.8812 31.7111 22.7762 31.6234C22.6713 31.5357 22.6005 31.4139 22.5765 31.2792C22.5524 31.1446 22.5765 31.0058 22.6446 30.8872C22.7126 30.7686 22.8203 30.6777 22.9487 30.6306C23.4454 30.448 23.9287 30.2307 24.395 29.9803C24.5273 29.9007 24.6859 29.8769 24.8358 29.9141C24.9856 29.9514 25.1145 30.0466 25.1942 30.179C25.2738 30.3113 25.2976 30.4698 25.2604 30.6197C25.2231 30.7696 25.1279 30.8985 24.9956 30.9782C24.4668 31.266 23.9175 31.5145 23.3522 31.7215C23.2877 31.7458 23.2193 31.7584 23.1504 31.7587Z" fill="#256763"/>
<path d="M10.6597 13.9217C10.283 13.9213 9.91661 13.799 9.61515 13.5731C9.31369 13.3473 9.09329 13.03 8.98698 12.6686C8.88067 12.3073 8.89411 11.9212 9.02525 11.5681C9.15638 11.215 9.39816 10.9138 9.71457 10.7094C9.79992 10.6535 9.88689 10.5992 9.97379 10.5449L10.129 10.4502C10.2617 10.3712 10.4204 10.3482 10.5701 10.3861C10.7199 10.4241 10.8483 10.52 10.9273 10.6528C11.0064 10.7855 11.0294 10.9442 10.9914 11.0939C10.9535 11.2437 10.8576 11.3722 10.7249 11.4512L10.5821 11.5365L10.3446 11.6917C10.2388 11.7594 10.1576 11.8594 10.1134 11.977C10.0691 12.0945 10.064 12.2233 10.099 12.3439C10.1339 12.4646 10.2069 12.5707 10.3071 12.6464C10.4073 12.7222 10.5294 12.7634 10.655 12.7641C10.7652 12.763 10.8728 12.7307 10.9654 12.6709C12.0375 11.9838 13.2164 11.4799 14.4539 11.1796C15.4585 10.933 16.4892 10.8089 17.5236 10.8103C18.8062 10.807 20.0818 10.9985 21.307 11.3782C21.7969 11.5324 22.2764 11.718 22.7424 11.9338C22.8826 11.9988 23.0428 12.0055 23.1879 11.9524C23.333 11.8993 23.451 11.7907 23.516 11.6506C23.5811 11.5105 23.5878 11.3502 23.5347 11.2051C23.4816 11.0601 23.373 10.942 23.2329 10.877C23.0932 10.8134 22.952 10.7498 22.8092 10.6908C22.6668 10.6309 22.554 10.5169 22.4956 10.3738C22.4373 10.2308 22.4381 10.0704 22.498 9.92804C22.5579 9.78563 22.6719 9.67286 22.815 9.6145C22.958 9.55615 23.1183 9.55701 23.2607 9.61689C23.4159 9.68362 23.5711 9.75034 23.7263 9.82173C23.9387 9.91524 24.1305 10.0502 24.2901 10.2187C24.4498 10.3871 24.5743 10.5857 24.6563 10.8029C24.7383 11.02 24.7761 11.2513 24.7677 11.4833C24.7592 11.7153 24.7046 11.9432 24.6069 12.1538C24.5093 12.3644 24.3707 12.5534 24.1992 12.7098C24.0277 12.8662 23.8267 12.9868 23.608 13.0646C23.3893 13.1423 23.1573 13.1757 22.9255 13.1628C22.6938 13.1498 22.4669 13.0908 22.2582 12.9891C21.8379 12.795 21.4057 12.6281 20.964 12.4894C18.9432 11.8701 16.7927 11.8079 14.7395 12.3094C13.6267 12.5792 12.5663 13.0317 11.6016 13.6486C11.3195 13.8307 10.9908 13.9277 10.655 13.928L10.6597 13.9217Z" fill="#256763"/>
<path d="M12.472 11.1671C12.3237 11.1683 12.1804 11.1128 12.0716 11.0119C11.3048 10.2859 10.7303 9.38085 10.3997 8.37794C10.0691 7.37503 9.99271 6.30572 10.1774 5.266C10.3622 4.22629 10.8022 3.24871 11.458 2.42107C12.1139 1.59344 12.9651 0.941644 13.9351 0.524214C14.9051 0.106784 15.9635 -0.0631981 17.0155 0.0295027C18.0674 0.122204 19.0798 0.474695 19.9619 1.05534C20.8439 1.63598 21.5679 2.42658 22.0689 3.35617C22.5699 4.28575 22.8322 5.32521 22.8323 6.38121C22.8316 7.84336 22.3293 9.26102 21.4092 10.3974C21.3114 10.5156 21.1708 10.5903 21.0182 10.6054C20.8655 10.6205 20.713 10.5746 20.594 10.4779C20.4749 10.3811 20.3989 10.2412 20.3824 10.0887C20.366 9.93618 20.4103 9.78333 20.506 9.66339C21.0311 9.01524 21.393 8.25052 21.5612 7.43351C21.7295 6.61649 21.6992 5.77104 21.473 4.96815C21.2467 4.16527 20.8311 3.42841 20.261 2.81948C19.6908 2.21054 18.9829 1.74732 18.1966 1.46872C17.4104 1.19013 16.5688 1.1043 15.7425 1.21844C14.9161 1.33258 14.1292 1.64336 13.4479 2.12466C12.7666 2.60597 12.2108 3.24375 11.8271 3.98443C11.4434 4.72511 11.2431 5.54705 11.243 6.38121C11.2399 7.09022 11.383 7.79225 11.6634 8.44348C11.9437 9.09471 12.3553 9.68115 12.8724 10.1662C12.9568 10.2463 13.0153 10.3499 13.0403 10.4636C13.0652 10.5772 13.0555 10.6958 13.0124 10.8039C12.9693 10.912 12.8948 11.0046 12.7985 11.0699C12.7022 11.1352 12.5884 11.1702 12.472 11.1702V11.1671Z" fill="#256763"/>
</g>
<defs>
<clipPath id="clip0_561_8">
<rect width="37.2446" height="36" fill="white"/>
</clipPath>
</defs>
</svg>
