<svg width="23" height="22" viewBox="0 0 23 22" fill="none" xmlns="http://www.w3.org/2000/svg">
<path d="M11.002 19.25C15.5583 19.25 19.252 15.5563 19.252 11C19.252 6.44365 15.5583 2.75 11.002 2.75C6.4456 2.75 2.75195 6.44365 2.75195 11C2.75195 15.5563 6.4456 19.25 11.002 19.25Z" stroke="#152738" stroke-width="1.375" stroke-linecap="round" stroke-linejoin="round"/>
<path d="M11.002 11.9165C12.5207 11.9165 13.752 10.6853 13.752 9.1665C13.752 7.64772 12.5207 6.4165 11.002 6.4165C9.48317 6.4165 8.25195 7.64772 8.25195 9.1665C8.25195 10.6853 9.48317 11.9165 11.002 11.9165Z" stroke="#152738" stroke-width="1.375" stroke-linecap="round" stroke-linejoin="round"/>
<path d="M5.65601 17.2781C5.88289 16.523 6.34714 15.8611 6.9799 15.3906C7.61265 14.9202 8.3802 14.6663 9.16867 14.6665H12.8353C13.6248 14.6662 14.3933 14.9208 15.0265 15.3923C15.6597 15.8638 16.1238 16.5271 16.3498 17.2836" stroke="#152738" stroke-width="1.375" stroke-linecap="round" stroke-linejoin="round"/>
</svg>
