<svg width="24" height="24" viewBox="0 0 24 24" fill="none" xmlns="http://www.w3.org/2000/svg">
<g clip-path="url(#clip0_1010_1292)">
<path d="M23.9996 23C23.9996 23.2652 23.8943 23.5196 23.7067 23.7071C23.5192 23.8946 23.2649 24 22.9996 24H0.999658C0.734441 24 0.480088 23.8946 0.292551 23.7071C0.105015 23.5196 -0.000341589 23.2652 -0.000341589 23C-0.000341589 22.7348 0.105015 22.4804 0.292551 22.2929C0.480088 22.1053 0.734441 22 0.999658 22H22.9996C23.2649 22 23.5192 22.1053 23.7067 22.2929C23.8943 22.4804 23.9996 22.7348 23.9996 23ZM0.290658 8.55199C0.0751806 8.15232 -0.0246469 7.7005 0.00237884 7.24724C0.0294046 6.79399 0.182214 6.35723 0.443658 5.98599C0.870916 5.35911 1.4431 4.84455 2.11166 4.48599L9.61265 0.581997C10.3499 0.198629 11.1687 -0.00152206 11.9996 -0.00152206C12.8306 -0.00152206 13.6494 0.198629 14.3866 0.581997L21.8866 4.48899C22.5552 4.84755 23.1274 5.36211 23.5546 5.98899C23.8161 6.36023 23.9689 6.79699 23.9959 7.25024C24.0229 7.7035 23.9231 8.15532 23.7076 8.55499C23.4757 8.99382 23.1277 9.36059 22.7017 9.61538C22.2757 9.87016 21.788 10.0032 21.2916 9.99999H20.9996V18H21.9996C22.2649 18 22.5192 18.1053 22.7067 18.2929C22.8943 18.4804 22.9996 18.7348 22.9996 19C22.9996 19.2652 22.8943 19.5196 22.7067 19.7071C22.5192 19.8946 22.2649 20 21.9996 20H1.99966C1.73444 20 1.48009 19.8946 1.29255 19.7071C1.10501 19.5196 0.999658 19.2652 0.999658 19C0.999658 18.7348 1.10501 18.4804 1.29255 18.2929C1.48009 18.1053 1.73444 18 1.99966 18H2.99966V9.99999H2.70766C2.21081 10.0031 1.72266 9.8697 1.29645 9.61436C0.870229 9.35901 0.522317 8.99153 0.290658 8.55199ZM4.99965 18H7.99965V9.99999H4.99965V18ZM9.99965 9.99999V18H13.9996V9.99999H9.99965ZM18.9996 9.99999H15.9996V18H18.9996V9.99999ZM2.06266 7.62499C2.1254 7.74067 2.21877 7.83685 2.33254 7.903C2.44631 7.96914 2.57608 8.0027 2.70766 7.99999H21.2916C21.4232 8.0027 21.553 7.96914 21.6668 7.903C21.7805 7.83685 21.8739 7.74067 21.9366 7.62499C21.9823 7.54856 22.0044 7.46032 22.0002 7.37137C21.9959 7.28241 21.9655 7.1967 21.9126 7.12499C21.6703 6.7649 21.3448 6.46853 20.9636 6.26099L13.4636 2.354C13.0117 2.11942 12.5099 1.99697 12.0006 1.99697C11.4914 1.99697 10.9896 2.11942 10.5376 2.354L3.03766 6.26099C2.65664 6.4692 2.33118 6.76585 2.08866 7.12599C2.03575 7.1974 2.00506 7.28282 2.00043 7.37157C1.99581 7.46033 2.01745 7.54847 2.06266 7.62499Z" fill="#22D16B"/>
</g>
<defs>
<clipPath id="clip0_1010_1292">
<rect width="24" height="24" fill="white"/>
</clipPath>
</defs>
</svg>
