<svg width="23" height="22" viewBox="0 0 23 22" fill="none" xmlns="http://www.w3.org/2000/svg">
<g clip-path="url(#clip0_2049_306)">
<path d="M9.1687 4.58333C9.1687 4.0971 9.36186 3.63079 9.70567 3.28697C10.0495 2.94315 10.5158 2.75 11.002 2.75C11.4883 2.75 11.9546 2.94315 12.2984 3.28697C12.6422 3.63079 12.8354 4.0971 12.8354 4.58333C13.8881 5.08111 14.7855 5.85597 15.4314 6.82486C16.0773 7.79375 16.4474 8.92015 16.502 10.0833V12.8333C16.571 13.4032 16.7728 13.949 17.0913 14.4266C17.4097 14.9043 17.8358 15.3005 18.3354 15.5833H3.6687C4.16823 15.3005 4.59436 14.9043 4.91279 14.4266C5.23122 13.949 5.43305 13.4032 5.50203 12.8333V10.0833C5.55663 8.92015 5.92673 7.79375 6.57266 6.82486C7.21858 5.85597 8.11599 5.08111 9.1687 4.58333" stroke="#152738" stroke-width="1.375" stroke-linecap="round" stroke-linejoin="round"/>
<path d="M8.25195 15.5835V16.5002C8.25195 17.2295 8.54168 17.929 9.05741 18.4447C9.57313 18.9604 10.2726 19.2502 11.002 19.2502C11.7313 19.2502 12.4308 18.9604 12.9465 18.4447C13.4622 17.929 13.752 17.2295 13.752 16.5002V15.5835" stroke="#152738" stroke-width="1.375" stroke-linecap="round" stroke-linejoin="round"/>
<!-- <circle cx="19.502" cy="2.5" r="2.5" fill="#22D16B"/> -->
</g>
<defs>
<clipPath id="clip0_2049_306">
<rect width="22" height="22" fill="white" transform="translate(0.00195312)"/>
</clipPath>
</defs>
</svg>
