<svg id="svg" version="1.1" xmlns="http://www.w3.org/2000/svg" xmlns:xlink="http://www.w3.org/1999/xlink" viewBox="0, 0, 400,400"><g id="svgg"><path id="path0" d="M0.000 48.600 L 0.000 97.200 4.200 97.200 L 8.400 97.200 8.400 52.800 L 8.400 8.400 44.400 8.400 L 80.400 8.400 80.400 4.200 L 80.400 0.000 40.200 0.000 L 0.000 0.000 0.000 48.600 M318.800 4.200 L 318.800 8.400 355.200 8.400 L 391.600 8.400 391.600 52.800 L 391.600 97.200 395.800 97.200 L 400.000 97.200 400.000 48.600 L 400.000 0.000 359.400 0.000 L 318.800 0.000 318.800 4.200 M0.000 367.400 L 0.000 400.000 40.200 400.000 L 80.400 400.000 80.400 395.800 L 80.400 391.600 44.400 391.600 L 8.400 391.600 8.400 363.200 L 8.400 334.800 4.200 334.800 L 0.000 334.800 0.000 367.400 M391.600 363.200 L 391.600 391.600 355.200 391.600 L 318.800 391.600 318.800 395.800 L 318.800 400.000 359.400 400.000 L 400.000 400.000 400.000 367.400 L 400.000 334.800 395.800 334.800 L 391.600 334.800 391.600 363.200 " stroke="none" fill="#22d16b" fill-rule="evenodd"></path><path id="path1" d="" stroke="none" fill="#22d16b" fill-rule="evenodd"></path><path id="path2" d="" stroke="none" fill="#22d16b" fill-rule="evenodd"></path><path id="path3" d="" stroke="none" fill="#22d16b" fill-rule="evenodd"></path><path id="path4" d="" stroke="none" fill="#22d16b" fill-rule="evenodd"></path></g></svg>