<svg width="35" height="36" viewBox="0 0 35 36" fill="none" xmlns="http://www.w3.org/2000/svg">
<g clip-path="url(#clip0_914_42)">
<path d="M33.9495 33.7544H15.9495C15.8755 33.7546 15.8023 33.7402 15.734 33.712C15.6656 33.6838 15.6035 33.6423 15.5513 33.5901C15.499 33.5378 15.4576 33.4757 15.4294 33.4074C15.4012 33.339 15.3868 33.2658 15.387 33.1919V6.1814C15.387 6.03221 15.4462 5.88913 15.5517 5.78364C15.6572 5.67815 15.8003 5.6189 15.9495 5.6189H33.9495C34.0986 5.6189 34.2417 5.67815 34.3472 5.78364C34.4527 5.88913 34.512 6.03221 34.512 6.1814V33.1919C34.5121 33.2658 34.4977 33.339 34.4695 33.4074C34.4413 33.4757 34.3999 33.5378 34.3476 33.5901C34.2954 33.6423 34.2333 33.6838 34.1649 33.712C34.0966 33.7402 34.0234 33.7546 33.9495 33.7544V33.7544ZM16.512 32.6294H33.387V6.7439H16.509L16.512 32.6294Z" fill="#22D16B"/>
<path d="M33.9495 24.756H15.9495C15.8003 24.756 15.6572 24.6967 15.5517 24.5912C15.4462 24.4857 15.387 24.3427 15.387 24.1935C15.387 24.0443 15.4462 23.9012 15.5517 23.7957C15.6572 23.6903 15.8003 23.631 15.9495 23.631H33.9495C34.0986 23.631 34.2417 23.6903 34.3472 23.7957C34.4527 23.9012 34.512 24.0443 34.512 24.1935C34.512 24.3427 34.4527 24.4857 34.3472 24.5912C34.2417 24.6967 34.0986 24.756 33.9495 24.756Z" fill="#22D16B"/>
<path d="M24.9495 33.7544C24.8755 33.7546 24.8023 33.7402 24.734 33.712C24.6656 33.6838 24.6035 33.6423 24.5513 33.5901C24.499 33.5378 24.4576 33.4757 24.4294 33.4074C24.4012 33.339 24.3868 33.2658 24.387 33.1919V15.1919C24.387 15.0427 24.4462 14.8996 24.5517 14.7942C24.6572 14.6887 24.8003 14.6294 24.9495 14.6294C25.0986 14.6294 25.2417 14.6887 25.3472 14.7942C25.4527 14.8996 25.512 15.0427 25.512 15.1919V33.1919C25.5122 33.2658 25.4977 33.339 25.4695 33.4074C25.4413 33.4757 25.3999 33.5378 25.3476 33.5901C25.2954 33.6423 25.2333 33.6838 25.165 33.712C25.0966 33.7402 25.0234 33.7546 24.9495 33.7544Z" fill="#22D16B"/>
<path d="M33.9495 33.7544C33.8755 33.7546 33.8023 33.7402 33.734 33.712C33.6656 33.6838 33.6035 33.6423 33.5513 33.5901C33.499 33.5378 33.4576 33.4757 33.4294 33.4074C33.4012 33.339 33.3868 33.2658 33.387 33.1919V15.1919C33.387 15.0427 33.4462 14.8996 33.5517 14.7942C33.6572 14.6887 33.8003 14.6294 33.9495 14.6294C34.0986 14.6294 34.2417 14.6887 34.3472 14.7942C34.4527 14.8996 34.5119 15.0427 34.5119 15.1919V33.1919C34.5121 33.2658 34.4977 33.339 34.4695 33.4074C34.4413 33.4757 34.3999 33.5378 34.3476 33.5901C34.2954 33.6423 34.2333 33.6838 34.165 33.712C34.0966 33.7402 34.0234 33.7546 33.9495 33.7544V33.7544Z" fill="#22D16B"/>
<path d="M33.9495 15.7561H15.9495C15.8003 15.7561 15.6572 15.6968 15.5517 15.5913C15.4462 15.4859 15.387 15.3428 15.387 15.1936C15.387 15.0444 15.4462 14.9014 15.5517 14.7959C15.6572 14.6904 15.8003 14.6311 15.9495 14.6311H33.9495C34.0986 14.6311 34.2417 14.6904 34.3472 14.7959C34.4527 14.9014 34.512 15.0444 34.512 15.1936C34.512 15.3428 34.4527 15.4859 34.3472 15.5913C34.2417 15.6968 34.0986 15.7561 33.9495 15.7561Z" fill="#22D16B"/>
<path d="M22.5825 20.3249H18.0825C17.9333 20.3249 17.7903 20.2657 17.6848 20.1602C17.5793 20.0547 17.52 19.9116 17.52 19.7624C17.52 19.6133 17.5793 19.4702 17.6848 19.3647C17.7903 19.2592 17.9333 19.2 18.0825 19.2H22.5825C22.7317 19.2 22.8748 19.2592 22.9803 19.3647C23.0858 19.4702 23.145 19.6133 23.145 19.7624C23.145 19.9116 23.0858 20.0547 22.9803 20.1602C22.8748 20.2657 22.7317 20.3249 22.5825 20.3249Z" fill="#22D16B"/>
<path d="M20.3325 22.5749C20.2586 22.5751 20.1854 22.5607 20.117 22.5325C20.0487 22.5043 19.9866 22.4629 19.9343 22.4106C19.8821 22.3584 19.8406 22.2963 19.8124 22.2279C19.7842 22.1596 19.7698 22.0864 19.77 22.0124V17.5125C19.77 17.3633 19.8293 17.2202 19.9348 17.1147C20.0403 17.0092 20.1833 16.95 20.3325 16.95C20.4817 16.95 20.6248 17.0092 20.7303 17.1147C20.8357 17.2202 20.895 17.3633 20.895 17.5125V22.0124C20.8952 22.0864 20.8808 22.1596 20.8526 22.2279C20.8244 22.2963 20.783 22.3584 20.7307 22.4106C20.6784 22.4629 20.6164 22.5043 20.548 22.5325C20.4797 22.5607 20.4064 22.5751 20.3325 22.5749Z" fill="#22D16B"/>
<path d="M31.6995 20.3249H27.1995C27.0503 20.3249 26.9072 20.2657 26.8017 20.1602C26.6962 20.0547 26.637 19.9116 26.637 19.7624C26.637 19.6133 26.6962 19.4702 26.8017 19.3647C26.9072 19.2592 27.0503 19.2 27.1995 19.2H31.6995C31.8486 19.2 31.9917 19.2592 32.0972 19.3647C32.2027 19.4702 32.262 19.6133 32.262 19.7624C32.262 19.9116 32.2027 20.0547 32.0972 20.1602C31.9917 20.2657 31.8486 20.3249 31.6995 20.3249Z" fill="#22D16B"/>
<path d="M21.9239 30.774C21.85 30.774 21.7769 30.7595 21.7087 30.7311C21.6405 30.7028 21.5785 30.6613 21.5264 30.609L18.3434 27.426C18.2912 27.3737 18.2498 27.3116 18.2216 27.2433C18.1934 27.175 18.1789 27.1019 18.179 27.028C18.179 26.9541 18.1936 26.8809 18.222 26.8127C18.2503 26.7444 18.2918 26.6824 18.3441 26.6302C18.3964 26.578 18.4585 26.5367 18.5268 26.5084C18.5951 26.4802 18.6683 26.4658 18.7422 26.4658C18.8161 26.4659 18.8892 26.4805 18.9574 26.5089C19.0257 26.5372 19.0877 26.5787 19.1399 26.631L22.3214 29.8125C22.3997 29.8914 22.453 29.9916 22.4746 30.1007C22.4961 30.2097 22.485 30.3227 22.4425 30.4255C22.4 30.5282 22.3281 30.6161 22.2358 30.6781C22.1436 30.7401 22.035 30.7735 21.9239 30.774V30.774Z" fill="#22D16B"/>
<path d="M18.7411 30.7739C18.6299 30.7734 18.5214 30.7401 18.4291 30.6781C18.3368 30.6161 18.265 30.5282 18.2225 30.4254C18.18 30.3227 18.1688 30.2097 18.1904 30.1006C18.2119 29.9916 18.2652 29.8913 18.3436 29.8124L21.5266 26.6309C21.6332 26.5316 21.7743 26.4775 21.92 26.4801C22.0657 26.4826 22.2047 26.5417 22.3078 26.6447C22.4109 26.7478 22.4699 26.8868 22.4725 27.0326C22.475 27.1783 22.4209 27.3193 22.3216 27.4259L19.1401 30.609C19.0341 30.7144 18.8906 30.7737 18.7411 30.7739V30.7739Z" fill="#22D16B"/>
<path d="M31.8645 29.1825H27.3645C27.2153 29.1825 27.0722 29.1232 26.9668 29.0177C26.8613 28.9122 26.802 28.7692 26.802 28.62C26.802 28.4708 26.8613 28.3277 26.9668 28.2222C27.0722 28.1167 27.2153 28.0575 27.3645 28.0575H31.8645C32.0137 28.0575 32.1568 28.1167 32.2622 28.2222C32.3677 28.3277 32.427 28.4708 32.427 28.62C32.427 28.7692 32.3677 28.9122 32.2622 29.0177C32.1568 29.1232 32.0137 29.1825 31.8645 29.1825Z" fill="#22D16B"/>
<path d="M29.613 26.01C29.4877 26.01 29.3653 26.0472 29.2611 26.1168C29.157 26.1864 29.0759 26.2854 29.028 26.4011C28.9802 26.5169 28.9677 26.6442 28.9923 26.7671C29.0168 26.8899 29.0772 27.0027 29.1659 27.0911C29.2546 27.1796 29.3675 27.2398 29.4904 27.264C29.6133 27.2883 29.7406 27.2755 29.8563 27.2274C29.9719 27.1793 30.0707 27.0979 30.14 26.9936C30.2094 26.8893 30.2463 26.7668 30.246 26.6415C30.2462 26.5584 30.2299 26.4761 30.1982 26.3993C30.1664 26.3225 30.1198 26.2527 30.0609 26.194C30.0021 26.1353 29.9322 26.0888 29.8553 26.0573C29.7785 26.0257 29.6961 26.0096 29.613 26.01V26.01Z" fill="#22D16B"/>
<path d="M29.613 29.964C29.4878 29.964 29.3654 30.0011 29.2613 30.0707C29.1572 30.1402 29.0761 30.2391 29.0282 30.3548C28.9803 30.4704 28.9677 30.5977 28.9921 30.7205C29.0166 30.8433 29.0769 30.9561 29.1654 31.0446C29.2539 31.1331 29.3667 31.1934 29.4895 31.2178C29.6123 31.2423 29.7396 31.2297 29.8552 31.1818C29.9709 31.1339 30.0698 31.0528 30.1393 30.9487C30.2089 30.8446 30.246 30.7222 30.246 30.597C30.2462 30.5138 30.23 30.4314 30.1982 30.3545C30.1665 30.2776 30.1198 30.2078 30.061 30.1489C30.0022 30.0901 29.9323 30.0435 29.8555 30.0118C29.7786 29.98 29.6962 29.9638 29.613 29.964V29.964Z" fill="#22D16B"/>
<path d="M24.9495 35.9999H0.5625C0.413316 35.9999 0.270248 35.9406 0.164758 35.8352C0.0592691 35.7297 0 35.5866 0 35.4374V8.08789C0 7.93871 0.0592691 7.79564 0.164758 7.69015C0.270248 7.58466 0.413316 7.52539 0.5625 7.52539C0.711684 7.52539 0.854771 7.58466 0.96026 7.69015C1.06575 7.79564 1.125 7.93871 1.125 8.08789V34.8749H24.9495C25.0987 34.8749 25.2418 34.9342 25.3473 35.0396C25.4527 35.1451 25.512 35.2882 25.512 35.4374C25.512 35.5866 25.4527 35.7297 25.3473 35.8352C25.2418 35.9406 25.0987 35.9999 24.9495 35.9999Z" fill="#22D16B"/>
<path d="M24.9494 4.88701C24.8002 4.88701 24.6571 4.82774 24.5517 4.72226C24.4462 4.61677 24.3869 4.4737 24.3869 4.32451V1.125H8.08789C7.93871 1.125 7.79564 1.06575 7.69015 0.96026C7.58466 0.854771 7.52539 0.711685 7.52539 0.5625C7.52539 0.413316 7.58466 0.270248 7.69015 0.164758C7.79564 0.0592691 7.93871 0 8.08789 0H24.9494C25.0986 0 25.2417 0.0592691 25.3471 0.164758C25.4526 0.270248 25.5119 0.413316 25.5119 0.5625V4.32451C25.5119 4.4737 25.4526 4.61677 25.3471 4.72226C25.2417 4.82774 25.0986 4.88701 24.9494 4.88701Z" fill="#22D16B"/>
<path d="M8.088 8.64751H0.562491C0.451311 8.64741 0.342671 8.61437 0.25026 8.55255C0.157848 8.49074 0.0858106 8.40292 0.0432771 8.3002C0.000743596 8.19747 -0.010393 8.08445 0.0112703 7.9754C0.0329336 7.86635 0.0864383 7.76617 0.165006 7.68751L7.69049 0.162019C7.76887 0.0827127 7.86911 0.0285527 7.97841 0.00647137C8.0877 -0.0156099 8.20111 -0.00461871 8.30413 0.0380387C8.40716 0.0806962 8.49513 0.153092 8.55682 0.245973C8.61851 0.338855 8.65112 0.448002 8.6505 0.559505V8.08501C8.6505 8.23419 8.59123 8.37726 8.48574 8.48275C8.38025 8.58824 8.23718 8.64751 8.088 8.64751ZM1.92 7.52251H7.5255V1.91701L1.92 7.52251Z" fill="#22D16B"/>
<path d="M13.6006 13.5H4.67407C4.52489 13.5 4.38182 13.4407 4.27633 13.3353C4.17084 13.2298 4.11157 13.0867 4.11157 12.9375C4.11157 12.7883 4.17084 12.6452 4.27633 12.5398C4.38182 12.4343 4.52489 12.375 4.67407 12.375H13.6006C13.7498 12.375 13.8928 12.4343 13.9983 12.5398C14.1038 12.6452 14.1631 12.7883 14.1631 12.9375C14.1631 13.0867 14.1038 13.2298 13.9983 13.3353C13.8928 13.4407 13.7498 13.5 13.6006 13.5V13.5Z" fill="#22D16B"/>
<path d="M13.6006 17.2964H4.67407C4.52489 17.2964 4.38182 17.2371 4.27633 17.1316C4.17084 17.0261 4.11157 16.8831 4.11157 16.7339C4.11157 16.5847 4.17084 16.4416 4.27633 16.3361C4.38182 16.2306 4.52489 16.1714 4.67407 16.1714H13.6006C13.7498 16.1714 13.8928 16.2306 13.9983 16.3361C14.1038 16.4416 14.1631 16.5847 14.1631 16.7339C14.1631 16.8831 14.1038 17.0261 13.9983 17.1316C13.8928 17.2371 13.7498 17.2964 13.6006 17.2964V17.2964Z" fill="#22D16B"/>
<path d="M9.87308 21.0975H4.67407C4.52489 21.0975 4.38182 21.0383 4.27633 20.9328C4.17084 20.8273 4.11157 20.6842 4.11157 20.535C4.11157 20.3858 4.17084 20.2428 4.27633 20.1373C4.38182 20.0318 4.52489 19.9725 4.67407 19.9725H9.87308C10.0223 19.9725 10.1653 20.0318 10.2708 20.1373C10.3763 20.2428 10.4356 20.3858 10.4356 20.535C10.4356 20.6842 10.3763 20.8273 10.2708 20.9328C10.1653 21.0383 10.0223 21.0975 9.87308 21.0975Z" fill="#22D16B"/>
</g>
<defs>
<clipPath id="clip0_914_42">
<rect width="34.512" height="36" fill="white"/>
</clipPath>
</defs>
</svg>
