<svg width="109" height="109" viewBox="0 0 109 109" fill="none" xmlns="http://www.w3.org/2000/svg">
<circle cx="54.5" cy="54.5" r="54.5" fill="rgba(69, 68, 237, 0.1)"/>
<path d="M43.3333 45.6667H45C45.8841 45.6667 46.7319 45.3155 47.357 44.6904C47.9821 44.0653 48.3333 43.2174 48.3333 42.3334C48.3333 41.8913 48.5089 41.4674 48.8215 41.1549C49.134 40.8423 49.558 40.6667 50 40.6667H60C60.442 40.6667 60.8659 40.8423 61.1785 41.1549C61.4911 41.4674 61.6667 41.8913 61.6667 42.3334C61.6667 43.2174 62.0179 44.0653 62.643 44.6904C63.2681 45.3155 64.1159 45.6667 65 45.6667H66.6667C67.5507 45.6667 68.3986 46.0179 69.0237 46.643C69.6488 47.2681 70 48.116 70 49V64C70 64.8841 69.6488 65.7319 69.0237 66.3571C68.3986 66.9822 67.5507 67.3334 66.6667 67.3334H43.3333C42.4493 67.3334 41.6014 66.9822 40.9763 66.3571C40.3512 65.7319 40 64.8841 40 64V49C40 48.116 40.3512 47.2681 40.9763 46.643C41.6014 46.0179 42.4493 45.6667 43.3333 45.6667" stroke="#4544ED" stroke-width="1.5" stroke-linecap="round" stroke-linejoin="round"/>
<path d="M55 60.6667C57.7614 60.6667 60 58.4281 60 55.6667C60 52.9053 57.7614 50.6667 55 50.6667C52.2386 50.6667 50 52.9053 50 55.6667C50 58.4281 52.2386 60.6667 55 60.6667Z" stroke="#4544ED" stroke-width="1.5" stroke-linecap="round" stroke-linejoin="round"/>
</svg>
