<svg width="38" height="38" viewBox="0 0 38 38" fill="none" xmlns="http://www.w3.org/2000/svg">
<path d="M9.50053 33.2501C11.2494 33.2501 12.6672 31.8323 12.6672 30.0834C12.6672 28.3345 11.2494 26.9167 9.50053 26.9167C7.75163 26.9167 6.33386 28.3345 6.33386 30.0834C6.33386 31.8323 7.75163 33.2501 9.50053 33.2501Z" stroke="#22D16B" stroke-width="2.3125" stroke-linecap="round" stroke-linejoin="round"/>
<path d="M26.9167 33.2501C28.6656 33.2501 30.0833 31.8323 30.0833 30.0834C30.0833 28.3345 28.6656 26.9167 26.9167 26.9167C25.1678 26.9167 23.75 28.3345 23.75 30.0834C23.75 31.8323 25.1678 33.2501 26.9167 33.2501Z" stroke="#22D16B" stroke-width="2.3125" stroke-linecap="round" stroke-linejoin="round"/>
<path d="M26.9172 26.9167H9.50053V4.75H6.33386" stroke="#22D16B" stroke-width="2.3125" stroke-linecap="round" stroke-linejoin="round"/>
<path d="M9.5 7.91675L31.6667 9.50008L30.0833 20.5834H9.5" stroke="#22D16B" stroke-width="2.3125" stroke-linecap="round" stroke-linejoin="round"/>
</svg>
