<svg width="20" height="20" viewBox="0 0 20 20" fill="none" xmlns="http://www.w3.org/2000/svg">
<g clip-path="url(#clip0_602_1550)">
<path d="M15 3.33325H5C3.61929 3.33325 2.5 4.45254 2.5 5.83325V14.1666C2.5 15.5473 3.61929 16.6666 5 16.6666H15C16.3807 16.6666 17.5 15.5473 17.5 14.1666V5.83325C17.5 4.45254 16.3807 3.33325 15 3.33325Z" stroke="#11171D" stroke-width="1.5" stroke-linecap="round" stroke-linejoin="round"/>
<path d="M7.50001 10.0001C8.42049 10.0001 9.16668 9.25389 9.16668 8.33341C9.16668 7.41294 8.42049 6.66675 7.50001 6.66675C6.57954 6.66675 5.83334 7.41294 5.83334 8.33341C5.83334 9.25389 6.57954 10.0001 7.50001 10.0001Z" stroke="#11171D" stroke-width="1.5" stroke-linecap="round" stroke-linejoin="round"/>
<path d="M12.5 6.66675H14.1667" stroke="#11171D" stroke-width="1.5" stroke-linecap="round" stroke-linejoin="round"/>
<path d="M12.5 10H14.1667" stroke="#11171D" stroke-width="1.5" stroke-linecap="round" stroke-linejoin="round"/>
<path d="M5.83334 13.3333H14.1667" stroke="#11171D" stroke-width="1.5" stroke-linecap="round" stroke-linejoin="round"/>
</g>
<defs>
<clipPath id="clip0_602_1550">
<rect width="20" height="20" fill="white"/>
</clipPath>
</defs>
</svg>
