<svg width="109" height="109" viewBox="0 0 109 109" fill="none" xmlns="http://www.w3.org/2000/svg">
<circle cx="54.5" cy="54.5" r="54.5" fill="#FEF3F3"/>
<path d="M57.3333 39V45.6667C57.3333 46.1087 57.5088 46.5326 57.8214 46.8452C58.134 47.1577 58.5579 47.3333 58.9999 47.3333H65.6666" stroke="#F04B4B" stroke-width="1.5" stroke-linecap="round" stroke-linejoin="round"/>
<path d="M62.3333 69H45.6666C44.7825 69 43.9347 68.6488 43.3096 68.0237C42.6844 67.3986 42.3333 66.5507 42.3333 65.6667V42.3333C42.3333 41.4493 42.6844 40.6014 43.3096 39.9763C43.9347 39.3512 44.7825 39 45.6666 39H57.3333L65.6666 47.3333V65.6667C65.6666 66.5507 65.3154 67.3986 64.6903 68.0237C64.0652 68.6488 63.2173 69 62.3333 69Z" stroke="#F04B4B" stroke-width="1.5" stroke-linecap="round" stroke-linejoin="round"/>
<path d="M54 62.3334H54.0167" stroke="#F04B4B" stroke-width="1.5" stroke-linecap="round" stroke-linejoin="round"/>
<path d="M54 52.3334V57.3334" stroke="#F04B4B" stroke-width="1.5" stroke-linecap="round" stroke-linejoin="round"/>
</svg>
