<svg width="94" height="38" viewBox="0 0 94 38" fill="none" xmlns="http://www.w3.org/2000/svg">
<path d="M47.8576 16.2307C46.9896 16.2307 46.1656 16.0769 45.3856 15.7693C44.6165 15.4617 43.9244 15.0057 43.3091 14.4015C42.6609 13.7752 42.183 13.0776 41.8754 12.3085C41.5787 11.5285 41.4304 10.666 41.4304 9.72117C41.4304 8.65547 41.7106 7.6502 42.2709 6.70535C42.8312 5.76051 43.5948 5.00243 44.5616 4.43113C45.5284 3.85983 46.5776 3.57418 47.7093 3.57418C48.5552 3.57418 49.3243 3.69503 50.0164 3.93673C50.7086 4.17844 51.3568 4.55748 51.9611 5.07384C53.1256 6.07362 53.8123 7.19425 54.021 8.43574H50.758C50.4944 7.77654 50.0933 7.26017 49.555 6.88663C49.0276 6.5021 48.4454 6.30984 47.8081 6.30984C47.1819 6.30984 46.6161 6.47463 46.1107 6.80423C45.6163 7.12284 45.2318 7.55681 44.9571 8.10614C44.6825 8.64448 44.5451 9.23227 44.5451 9.86949C44.5451 10.5287 44.6825 11.1384 44.9571 11.6988C45.2428 12.2481 45.6328 12.6875 46.1272 13.0171C46.6326 13.3358 47.1984 13.4951 47.8246 13.4951C48.4509 13.4951 49.0167 13.3193 49.522 12.9677C50.0274 12.6161 50.4394 12.1053 50.758 11.4351H54.021C53.7684 12.4019 53.3399 13.2479 52.7356 13.973C52.1314 14.6871 51.4062 15.2419 50.5603 15.6374C49.7143 16.033 48.8134 16.2307 47.8576 16.2307ZM59.1673 16.2802C58.2444 16.2802 57.4094 16.0714 56.6623 15.6539C55.9152 15.2254 55.322 14.6432 54.8825 13.9071C54.454 13.171 54.2398 12.3415 54.2398 11.4186C54.2398 10.4957 54.4595 9.66624 54.899 8.93013C55.3385 8.18305 55.9317 7.60076 56.6788 7.18327C57.4369 6.76578 58.2664 6.55703 59.1673 6.55703C60.0792 6.55703 60.9086 6.76578 61.6557 7.18327C62.4138 7.60076 63.0071 8.18305 63.4356 8.93013C63.875 9.66624 64.0948 10.4847 64.0948 11.3856C64.0948 12.3195 63.875 13.16 63.4356 13.9071C63.0071 14.6541 62.4138 15.2364 61.6557 15.6539C60.9086 16.0714 60.0792 16.2802 59.1673 16.2802ZM59.1673 13.7258C59.5848 13.7258 59.9583 13.6214 60.2879 13.4127C60.6285 13.1929 60.8922 12.9073 61.0789 12.5557C61.2657 12.2041 61.3591 11.8251 61.3591 11.4186C61.3591 11.0121 61.2602 10.6331 61.0625 10.2815C60.8757 9.92991 60.612 9.64976 60.2714 9.44101C59.9418 9.22128 59.5683 9.11141 59.1508 9.11141C58.7553 9.11141 58.3927 9.21579 58.0631 9.42453C57.7335 9.63328 57.4698 9.91893 57.2721 10.2815C57.0743 10.6331 56.9755 11.0121 56.9755 11.4186C56.9755 11.8361 57.0688 12.2206 57.2556 12.5722C57.4534 12.9238 57.717 13.2039 58.0466 13.4127C58.3872 13.6214 58.7608 13.7258 59.1673 13.7258ZM69.3867 16.2802C68.4639 16.2802 67.6289 16.0714 66.8818 15.6539C66.1347 15.2254 65.5414 14.6432 65.102 13.9071C64.6735 13.171 64.4592 12.3415 64.4592 11.4186C64.4592 10.4957 64.679 9.66624 65.1184 8.93013C65.5579 8.18305 66.1512 7.60076 66.8983 7.18327C67.6563 6.76578 68.4858 6.55703 69.3867 6.55703C70.2986 6.55703 71.1281 6.76578 71.8752 7.18327C72.6333 7.60076 73.2265 8.18305 73.655 8.93013C74.0945 9.66624 74.3142 10.4847 74.3142 11.3856C74.3142 12.3195 74.0945 13.16 73.655 13.9071C73.2265 14.6541 72.6333 15.2364 71.8752 15.6539C71.1281 16.0714 70.2986 16.2802 69.3867 16.2802ZM69.3867 13.7258C69.8042 13.7258 70.1778 13.6214 70.5074 13.4127C70.8479 13.1929 71.1116 12.9073 71.2984 12.5557C71.4852 12.2041 71.5785 11.8251 71.5785 11.4186C71.5785 11.0121 71.4797 10.6331 71.2819 10.2815C71.0951 9.92991 70.8315 9.64976 70.4909 9.44101C70.1613 9.22128 69.7877 9.11141 69.3702 9.11141C68.9747 9.11141 68.6122 9.21579 68.2826 9.42453C67.953 9.63328 67.6893 9.91893 67.4915 10.2815C67.2938 10.6331 67.1949 11.0121 67.1949 11.4186C67.1949 11.8361 67.2883 12.2206 67.4751 12.5722C67.6728 12.9238 67.9365 13.2039 68.2661 13.4127C68.6067 13.6214 68.9802 13.7258 69.3867 13.7258ZM74.86 6.85367H77.4308V7.85894H77.4803C78.1834 6.98002 79.1392 6.54055 80.3478 6.54055C81.2047 6.54055 81.9683 6.76029 82.6385 7.19975C83.3196 7.62822 83.847 8.2215 84.2205 8.97957C84.6051 9.72666 84.7973 10.5726 84.7973 11.5175C84.7973 12.3854 84.6051 13.1874 84.2205 13.9235C83.847 14.6487 83.3196 15.2309 82.6385 15.6704C81.9683 16.0989 81.2047 16.3131 80.3478 16.3131C79.2052 16.3131 78.2878 15.9341 77.5956 15.176V19.0488H74.86V6.85367ZM79.771 13.7587C80.1995 13.7587 80.584 13.6544 80.9246 13.4456C81.2761 13.2369 81.5508 12.9567 81.7486 12.6051C81.9573 12.2426 82.0617 11.8526 82.0617 11.4351C82.0617 11.0066 81.9573 10.6166 81.7486 10.265C81.5508 9.90245 81.2761 9.6168 80.9246 9.40805C80.573 9.19931 80.183 9.09493 79.7545 9.09493C79.337 9.09493 78.9525 9.19931 78.6009 9.40805C78.2603 9.6168 77.9857 9.90245 77.7769 10.265C77.5792 10.6166 77.4803 11.0066 77.4803 11.4351C77.4803 11.8636 77.5792 12.2536 77.7769 12.6051C77.9857 12.9567 78.2603 13.2369 78.6009 13.4456C78.9525 13.6544 79.3425 13.7587 79.771 13.7587Z" fill="white"/>
<path d="M48.4617 20.0315H52.6146C54.1088 20.0315 55.3008 20.2787 56.1907 20.7731C57.0697 21.2784 57.7563 21.9926 58.2507 22.9154C58.7561 23.8383 59.0088 24.9095 59.0088 26.129C59.0088 28.1066 58.4595 29.6172 57.3608 30.661C56.2731 31.7047 54.7625 32.2266 52.8288 32.2266H48.4617V20.0315ZM52.9772 29.4909C53.8891 29.4909 54.6032 29.2053 55.1195 28.634C55.6359 28.0626 55.8941 27.2332 55.8941 26.1455C55.8941 25.0688 55.6359 24.2393 55.1195 23.657C54.6142 23.0638 53.9055 22.7671 52.9936 22.7671H51.5764V29.4909H52.9772ZM64.0461 32.5397C63.1672 32.5397 62.3761 32.3254 61.673 31.897C60.9808 31.4685 60.437 30.8807 60.0415 30.1336C59.657 29.3865 59.4647 28.557 59.4647 27.6452C59.4647 26.7552 59.6625 25.9367 60.058 25.1897C60.4645 24.4426 61.0138 23.8548 61.706 23.4263C62.4091 22.9868 63.1891 22.7671 64.0461 22.7671C64.6174 22.7671 65.1448 22.8825 65.6282 23.1132C66.1116 23.3329 66.4796 23.646 66.7323 24.0525H66.7653V23.0802H69.5009V32.2266H66.7653V31.2378H66.7323C66.5346 31.6333 66.1885 31.9519 65.6941 32.1936C65.1997 32.4243 64.6504 32.5397 64.0461 32.5397ZM64.4746 29.9853C64.8921 29.9853 65.2766 29.8809 65.6282 29.6722C65.9797 29.4634 66.2544 29.1833 66.4522 28.8317C66.6609 28.4692 66.7653 28.0736 66.7653 27.6452C66.7653 27.2277 66.6609 26.8431 66.4522 26.4916C66.2434 26.129 65.9578 25.8434 65.5952 25.6346C65.2436 25.4259 64.8591 25.3215 64.4416 25.3215C64.0351 25.3215 63.6561 25.4259 63.3045 25.6346C62.9639 25.8434 62.6948 26.129 62.497 26.4916C62.2992 26.8541 62.2004 27.2496 62.2004 27.6781C62.2004 28.0956 62.2992 28.4801 62.497 28.8317C62.7057 29.1833 62.9804 29.4634 63.321 29.6722C63.6726 29.8809 64.0571 29.9853 64.4746 29.9853ZM73.7297 32.5232C72.697 32.5232 71.851 32.2101 71.1918 31.5838C70.5326 30.9466 70.203 30.0073 70.203 28.7658V23.0802H72.9387V28.2055C72.9387 28.8097 73.054 29.2547 73.2847 29.5403C73.5155 29.826 73.889 29.9688 74.4054 29.9688C74.9108 29.9688 75.2953 29.8095 75.559 29.4909C75.8336 29.1723 75.971 28.7273 75.971 28.156V23.0802H78.7066V32.2266H76.1193V31.2542H76.0863C75.8886 31.6827 75.5974 32.0013 75.2129 32.2101C74.8284 32.4188 74.334 32.5232 73.7297 32.5232ZM79.425 20.0315H82.1607V32.2266H79.425V20.0315ZM87.549 32.5232C86.681 32.5232 85.8735 32.309 85.1264 31.8805C84.3903 31.452 83.8026 30.8697 83.3631 30.1336C82.9236 29.3865 82.7039 28.568 82.7039 27.6781C82.7039 26.8102 82.9181 26.0027 83.3466 25.2556C83.7751 24.4975 84.3519 23.8932 85.077 23.4428C85.8131 22.9923 86.6206 22.7671 87.4995 22.7671C88.4004 22.7671 89.2189 22.9868 89.955 23.4263C90.6911 23.8658 91.2679 24.4645 91.6854 25.2226C92.1139 25.9807 92.3281 26.8267 92.3281 27.7605C92.3281 28.0242 92.3062 28.2659 92.2622 28.4856H85.4066C85.4835 29.002 85.7197 29.4195 86.1152 29.7381C86.5107 30.0567 86.9887 30.216 87.549 30.216C87.9115 30.216 88.2192 30.1501 88.4718 30.0183C88.7355 29.8754 88.9827 29.6557 89.2134 29.3591H92.015C91.5756 30.3588 90.9603 31.1389 90.1693 31.6992C89.3892 32.2485 88.5158 32.5232 87.549 32.5232ZM89.5925 26.6399C89.4826 26.1675 89.2354 25.7884 88.8509 25.5028C88.4773 25.2171 88.0269 25.0743 87.4995 25.0743C86.9942 25.0743 86.5492 25.2171 86.1647 25.5028C85.7911 25.7774 85.5494 26.1565 85.4396 26.6399H89.5925Z" fill="#22D16B"/>
<circle cx="18.5399" cy="18.5399" r="18.5399" fill="#22D16B"/>
<circle cx="87.2062" cy="15.7933" r="2.05998" fill="#22D16B"/>
</svg>
