<svg width="44" height="36" viewBox="0 0 44 36" fill="none" xmlns="http://www.w3.org/2000/svg">
<g clip-path="url(#clip0_264_57)">
<path d="M36.9472 12.7892C36.7691 12.79 36.5977 12.7217 36.4691 12.5985C36.3405 12.4753 36.2648 12.307 36.2579 12.1291C36.251 11.9512 36.3135 11.7776 36.4322 11.6448C36.5509 11.5121 36.7165 11.4306 36.8941 11.4177H36.9874C39.0952 11.2638 40.2543 10.9928 40.8568 10.7914C42.0123 10.4068 42.5049 9.5553 42.5763 9.3557C42.5308 9.11055 42.4327 8.87817 42.2888 8.67449C42.1895 8.51523 42.106 8.34655 42.0398 8.17091C41.9556 7.91637 41.9464 7.5373 41.9501 6.79382C41.9501 6.53928 41.9501 6.16022 41.9354 6.03386C41.8373 5.70985 41.662 5.4145 41.4245 5.1732C40.844 4.86738 36.4015 3.21928 33.7737 2.49412C31.3491 1.82755 28.6023 1.47412 25.1303 1.38439C22.0062 1.30931 18.721 2.26888 17.886 2.62963C17.223 2.97123 16.5776 3.34588 15.9522 3.75217C14.3041 4.77216 13.5258 5.21714 13.046 5.2849C12.7659 5.31969 12.352 5.33434 11.8264 5.35265C11.0061 5.38195 9.88169 5.42224 8.69139 5.56325C6.28883 5.85075 4.32026 6.36532 2.67216 7.13626C1.62654 7.6252 1.35551 8.25698 1.37382 8.43278C1.50201 9.58096 1.59357 10.1504 1.63203 10.2878C1.71833 10.4876 1.85167 10.6635 2.02066 10.8006C2.18966 10.9377 2.3893 11.0319 2.60258 11.0752C3.24253 11.2053 3.89267 11.2788 4.5455 11.295C4.72738 11.304 4.89823 11.3849 5.02049 11.5198C5.14274 11.6548 5.20638 11.8328 5.19742 12.0146C5.18608 12.1958 5.10458 12.3654 4.97021 12.4875C4.83584 12.6096 4.65918 12.6744 4.47775 12.6684C3.75489 12.646 3.03515 12.5634 2.32606 12.4212C1.26945 12.2032 0.513153 11.3719 0.311718 10.6632C0.170216 9.97631 0.0693219 9.28169 0.00956462 8.58293C-0.0801653 7.7717 0.527801 6.62353 2.08983 5.89104C3.87344 5.05784 5.97752 4.50479 8.52841 4.20081C9.77548 4.05065 10.9328 4.01769 11.7788 3.97924C12.2495 3.96276 12.656 3.94812 12.8776 3.92065C13.1761 3.85106 14.414 3.08926 15.2344 2.58385C15.9139 2.13717 16.6182 1.72936 17.3439 1.36241C18.4188 0.900947 21.8817 -0.0842342 25.1669 0.00549563C28.7524 0.0988879 31.6037 0.466957 34.1399 1.16648C36.3648 1.77811 41.8493 3.68991 42.3163 4.12024C42.7533 4.53144 43.0753 5.0497 43.2502 5.62367C43.3216 5.83426 43.3271 6.11078 43.3253 6.79199C43.3156 7.11268 43.3242 7.43366 43.3509 7.75338C43.3509 7.7717 43.4279 7.89072 43.4773 7.97679C43.6769 8.31923 43.9791 8.83563 43.9498 9.44176C43.9205 10.0827 43.0067 11.5129 41.2926 12.0842C40.3093 12.412 38.8937 12.6446 37.0808 12.7764H36.9948L36.9472 12.7892Z" fill="#256763"/>
<path d="M10.5554 12.7691C10.3792 12.763 10.2122 12.6894 10.0888 12.5635C9.96548 12.4376 9.89524 12.2692 9.89265 12.0929C9.89006 11.9167 9.95533 11.7462 10.0749 11.6168C10.1946 11.4874 10.3594 11.4089 10.5352 11.3975C11.4893 11.3682 12.5496 11.3261 13.5696 11.2877C15.1756 11.2254 16.6936 11.1668 17.5049 11.1668C19.4203 11.1668 28.1974 11.2492 29.0983 11.306C29.4646 11.3316 30.1586 11.3518 31.1511 11.3682C31.2413 11.3697 31.3303 11.3889 31.4131 11.4247C31.4959 11.4605 31.5708 11.5123 31.6335 11.5771C31.6963 11.6419 31.7456 11.7184 31.7788 11.8023C31.812 11.8862 31.8283 11.9758 31.8269 12.0659C31.8266 12.1565 31.8083 12.2461 31.7729 12.3294C31.7375 12.4127 31.6857 12.4881 31.6207 12.5511C31.5556 12.6141 31.4786 12.6634 31.3942 12.6961C31.3098 12.7289 31.2197 12.7444 31.1292 12.7417C30.0982 12.7252 29.406 12.7032 29.0086 12.6776C28.201 12.6245 19.6382 12.5402 17.5049 12.5402C16.7211 12.5402 15.2158 12.5988 13.6227 12.6593C12.6008 12.6995 11.5351 12.7398 10.5773 12.7691H10.5554Z" fill="#256763"/>
<path d="M7.54417 14.3165C6.80354 14.3147 6.08006 14.0934 5.46512 13.6806C4.85019 13.2678 4.37139 12.682 4.08922 11.9973C3.80705 11.3125 3.73415 10.5594 3.87975 9.83325C4.02535 9.10707 4.38291 8.44033 4.90725 7.91727C5.4316 7.3942 6.09921 7.03827 6.82574 6.89445C7.55227 6.75062 8.30514 6.82535 8.98922 7.1092C9.6733 7.39304 10.2579 7.87327 10.6692 8.48921C11.0805 9.10515 11.3 9.82916 11.3 10.5698C11.2985 11.5646 10.9021 12.5181 10.1978 13.2207C9.49348 13.9233 8.53899 14.3174 7.54417 14.3165ZM7.54417 8.19653C7.07333 8.19653 6.61307 8.33615 6.22158 8.59774C5.8301 8.85932 5.52497 9.23112 5.34479 9.66612C5.16461 10.1011 5.11746 10.5798 5.20932 11.0415C5.30118 11.5033 5.5279 11.9275 5.86084 12.2605C6.19377 12.5934 6.61795 12.8201 7.07974 12.912C7.54152 13.0038 8.02018 12.9567 8.45518 12.7765C8.89017 12.5963 9.26197 12.2912 9.52355 11.8997C9.78513 11.5082 9.92475 11.048 9.92475 10.5771C9.92475 9.94575 9.67394 9.34024 9.2275 8.89379C8.78105 8.44734 8.17554 8.19653 7.54417 8.19653Z" fill="#256763"/>
<path d="M34.233 14.3165C33.492 14.3165 32.7676 14.0967 32.1515 13.6851C31.5353 13.2734 31.0551 12.6882 30.7715 12.0036C30.4879 11.319 30.4138 10.5656 30.5583 9.83886C30.7029 9.11208 31.0597 8.44449 31.5837 7.9205C32.1077 7.39652 32.7753 7.03968 33.5021 6.89511C34.2289 6.75055 34.9822 6.82475 35.6668 7.10832C36.3514 7.3919 36.9366 7.87213 37.3483 8.48827C37.7599 9.10441 37.9797 9.82878 37.9797 10.5698C37.9782 11.563 37.583 12.5152 36.8807 13.2175C36.1784 13.9198 35.2262 14.315 34.233 14.3165ZM34.233 8.19655C33.7622 8.19655 33.3019 8.33617 32.9104 8.59776C32.5189 8.85934 32.2138 9.23114 32.0336 9.66613C31.8535 10.1011 31.8063 10.5798 31.8982 11.0416C31.99 11.5034 32.2167 11.9275 32.5497 12.2605C32.8826 12.5934 33.3068 12.8201 33.7686 12.912C34.2304 13.0038 34.709 12.9567 35.144 12.7765C35.579 12.5963 35.9508 12.2912 36.2124 11.8997C36.474 11.5082 36.6136 11.048 36.6136 10.5771C36.6136 9.94577 36.3628 9.34026 35.9163 8.89381C35.4699 8.44736 34.8644 8.19655 34.233 8.19655Z" fill="#256763"/>
<path d="M30.5281 31.0649C29.1913 31.0649 27.492 30.5759 25.8256 30.0962C24.758 29.7885 23.749 29.4992 23.2014 29.4717C18.9273 29.2574 14.7778 30.0888 14.7265 30.0962C14.5501 30.127 14.3687 30.0877 14.2208 29.9866C14.073 29.8856 13.9705 29.7308 13.9351 29.5553C13.8998 29.3797 13.9344 29.1973 14.0316 29.0469C14.1288 28.8965 14.2809 28.7901 14.4555 28.7502C17.3602 28.2077 20.3163 27.9896 23.2692 28.1001C23.976 28.1349 25.0088 28.4334 26.1991 28.7758C27.871 29.2575 30.9859 30.1529 31.5188 29.4094C31.7458 29.1133 31.8937 28.7643 31.9485 28.3952C32.0033 28.0261 31.9632 27.6492 31.832 27.2999C31.3394 26.0034 29.6528 24.9687 27.0836 24.3864C25.6369 24.0593 24.1679 23.8401 22.6887 23.7308C21.7859 23.6466 20.7622 23.5477 19.3815 23.3646C18.8907 23.3005 18.3597 22.9983 17.5503 22.5387C15.882 21.5865 13.0931 19.9933 8.14693 19.1418C3.24292 18.2958 1.16448 19.2004 1.14434 19.2095C0.980223 19.2816 0.794455 19.2866 0.626695 19.2235C0.458935 19.1604 0.322479 19.0343 0.246465 18.872C0.170452 18.7097 0.160902 18.5241 0.219859 18.3548C0.278816 18.1856 0.401606 18.0461 0.562009 17.9661C0.657232 17.9203 2.97373 16.8564 8.3795 17.783C13.5637 18.6748 16.4845 20.3467 18.2315 21.3411C18.7973 21.6634 19.3302 21.9692 19.5555 21.9985C20.9106 22.1816 21.9196 22.275 22.8114 22.3647C24.3522 22.4788 25.8824 22.7071 27.3894 23.0478C31.2753 23.9268 32.6487 25.5804 33.1175 26.8109C33.3287 27.3721 33.3953 27.9774 33.3111 28.571C33.227 29.1646 32.9947 29.7275 32.6359 30.2079C32.2001 30.8323 31.4529 31.0649 30.5281 31.0649Z" fill="#256763"/>
<path d="M20.8432 36C16.9335 36 1.04951 27.8913 0.373787 27.5452C0.290417 27.506 0.215796 27.4504 0.154367 27.3817C0.0929392 27.313 0.0459619 27.2327 0.0162294 27.1455C-0.0135032 27.0583 -0.025383 26.966 -0.0186984 26.8741C-0.0120139 26.7822 0.013096 26.6925 0.0551361 26.6106C0.0971763 26.5286 0.155289 26.4559 0.226009 26.3968C0.296728 26.3378 0.378609 26.2935 0.466778 26.2668C0.554948 26.24 0.647603 26.2313 0.739221 26.2411C0.830839 26.2509 0.919547 26.279 1.00006 26.3238C5.5122 28.633 17.8711 34.6266 20.8432 34.6266C24.8719 34.6266 41.0654 23.24 42.0085 21.0462C42.1641 20.68 42.155 20.4969 42.1385 20.4694C42.0542 20.3906 41.3218 20.2167 39.3916 20.9583C38.064 21.4692 37.4029 21.9014 36.306 22.6192C35.2879 23.2858 33.8925 24.1996 31.305 25.595C31.2254 25.6434 31.1368 25.6751 31.0446 25.6882C30.9524 25.7013 30.8584 25.6955 30.7685 25.6712C30.6786 25.6468 30.5946 25.6045 30.5216 25.5466C30.4486 25.4888 30.3881 25.4167 30.3438 25.3347C30.2995 25.2528 30.2724 25.1627 30.264 25.0699C30.2557 24.9771 30.2663 24.8836 30.2952 24.7951C30.3242 24.7065 30.3708 24.6248 30.4323 24.5549C30.4938 24.4849 30.5689 24.4282 30.6531 24.3882C33.1893 23.0184 34.5554 22.123 35.5534 21.4711C36.6869 20.7386 37.4341 20.2386 38.899 19.6765C41.0178 18.8597 42.4425 18.8103 43.131 19.5263C43.4533 19.8614 43.739 20.4914 43.2665 21.5901C42.1367 24.2271 25.3791 36 20.8432 36Z" fill="#256763"/>
<path d="M27.7395 24.5219C27.583 24.5215 27.4312 24.4676 27.3095 24.3691C27.1878 24.2707 27.1034 24.1335 27.0702 23.9805C27.0371 23.8275 27.0573 23.6678 27.1274 23.5278C27.1975 23.3878 27.3133 23.2759 27.4557 23.2108C27.4868 23.1961 30.7519 21.7055 31.6272 21.233C32.2022 20.9199 32.9091 20.4859 33.6416 20.0263C34.7641 19.3304 36.035 18.5411 37.293 17.9112C39.6736 16.7264 42.1219 17.2794 43.195 17.9405C43.3892 18.0519 43.5559 18.2055 43.6827 18.3899C43.8095 18.5744 43.8932 18.7851 43.9275 19.0063C44.0594 19.8487 43.4459 20.6104 43.3214 20.7551C43.2626 20.8235 43.1909 20.8797 43.1104 20.9204C43.0299 20.9611 42.9422 20.9856 42.8522 20.9924C42.7623 20.9992 42.6718 20.9882 42.5861 20.96C42.5004 20.9319 42.4211 20.8872 42.3527 20.8284C42.2843 20.7696 42.2281 20.6979 42.1874 20.6174C42.1467 20.5369 42.1222 20.4491 42.1154 20.3592C42.1086 20.2692 42.1196 20.1788 42.1477 20.0931C42.1759 20.0074 42.2206 19.928 42.2794 19.8596C42.4369 19.6765 42.5944 19.3579 42.5706 19.215C42.5706 19.2041 42.5706 19.1674 42.4699 19.1088C41.6898 18.6291 39.7615 18.2115 37.9046 19.14C36.7015 19.7406 35.46 20.5134 34.3631 21.1928C33.6031 21.6634 32.8981 22.1084 32.2773 22.4398C31.3617 22.9361 28.157 24.3992 28.0215 24.4542C27.9337 24.4973 27.8374 24.5204 27.7395 24.5219Z" fill="#256763"/>
<path d="M24.5087 23.9176C24.3313 23.9165 24.1612 23.8468 24.034 23.723C23.9068 23.5993 23.8325 23.4311 23.8266 23.2538C23.8206 23.0764 23.8836 22.9037 24.0022 22.7718C24.1209 22.6398 24.286 22.5589 24.4629 22.546C24.7797 22.4673 25.9792 21.797 26.9442 21.2641C29.5739 19.7992 31.5223 18.7609 32.5661 18.7609C33.4121 18.7609 33.9981 18.9934 34.3094 19.4512C34.4237 19.6256 34.495 19.8245 34.5176 20.0317C34.5402 20.2389 34.5134 20.4485 34.4394 20.6434L33.1576 20.1361C33.152 20.1457 33.1483 20.1563 33.1466 20.1673C33.1497 20.1943 33.162 20.2196 33.1814 20.2387C33.1814 20.2387 33.0441 20.1343 32.5606 20.1343C31.786 20.1343 29.171 21.5993 27.6163 22.4636C25.6368 23.5605 24.9592 23.9176 24.5087 23.9176Z" fill="#256763"/>
</g>
<defs>
<clipPath id="clip0_264_57">
<rect width="43.9493" height="36" fill="white"/>
</clipPath>
</defs>
</svg>
