<svg width="43" height="36" viewBox="0 0 43 36" fill="none" xmlns="http://www.w3.org/2000/svg">
<g clip-path="url(#clip0_264_24)">
<path d="M32.5547 23.7792H3.11428C2.28302 23.7727 1.48824 23.4367 0.904414 22.845C0.320585 22.2532 -0.00464039 21.454 5.00387e-05 20.6228V3.15471C-0.00463858 2.3236 0.320708 1.52461 0.904586 0.933131C1.48846 0.341656 2.28318 0.00605332 3.11428 0H32.5547C33.3858 0.00605332 34.1806 0.341656 34.7644 0.933131C35.3483 1.52461 35.6736 2.3236 35.6689 3.15471V20.6228C35.6736 21.454 35.3484 22.2532 34.7645 22.845C34.1807 23.4367 33.386 23.7727 32.5547 23.7792ZM3.11428 1.32107C2.6334 1.32664 2.17443 1.52291 1.83819 1.86674C1.50196 2.21057 1.31595 2.67383 1.32112 3.15471V20.6228C1.31595 21.1038 1.50184 21.5672 1.83802 21.9114C2.1742 22.2555 2.63324 22.4521 3.11428 22.4582H32.5547C33.0356 22.4517 33.4943 22.2549 33.8304 21.9108C34.1665 21.5668 34.3525 21.1037 34.3478 20.6228V3.15471C34.3525 2.67397 34.1665 2.21098 33.8303 1.86725C33.4942 1.52352 33.0355 1.32711 32.5547 1.32107H3.11428Z" fill="#256763"/>
<path d="M34.6769 6.27419H0.989636C0.814451 6.27419 0.646406 6.2046 0.522531 6.08073C0.398657 5.95685 0.329102 5.78884 0.329102 5.61366C0.329102 5.43847 0.398657 5.27047 0.522531 5.14659C0.646406 5.02272 0.814451 4.95312 0.989636 4.95312H34.6769C34.8521 4.95312 35.0201 5.02272 35.144 5.14659C35.2679 5.27047 35.3374 5.43847 35.3374 5.61366C35.3374 5.78884 35.2679 5.95685 35.144 6.08073C35.0201 6.2046 34.8521 6.27419 34.6769 6.27419Z" fill="#256763"/>
<path d="M30.3833 19.816H24.4402C24.0897 19.8156 23.7537 19.676 23.506 19.428C23.2583 19.1799 23.1191 18.8437 23.1191 18.4932V15.1923C23.1191 14.8419 23.2583 14.5059 23.5061 14.2581C23.7538 14.0104 24.0898 13.8712 24.4402 13.8712H30.3833C30.7338 13.8712 31.07 14.0103 31.318 14.258C31.566 14.5057 31.7056 14.8418 31.7061 15.1923V18.4932C31.7056 18.8439 31.5661 19.1801 31.3181 19.4281C31.0701 19.676 30.734 19.8156 30.3833 19.816ZM24.4402 15.1923V18.4932H30.3833V15.1923H24.4402Z" fill="#256763"/>
<path d="M39.3007 35.9982H9.57311C7.85043 35.9982 6.60156 34.7476 6.60156 33.0267V25.7609C6.60156 25.5857 6.6712 25.4177 6.79508 25.2938C6.91895 25.1699 7.08691 25.1003 7.2621 25.1003C7.43728 25.1003 7.60533 25.1699 7.7292 25.2938C7.85308 25.4177 7.92263 25.5857 7.92263 25.7609V33.0267C7.92263 34.0131 8.58495 34.6772 9.57311 34.6772H39.2971C40.317 34.6772 40.9493 33.6485 40.9493 32.6956V15.6873C40.9493 14.6515 40.2448 13.8712 39.2971 13.8712H37.6467C37.4715 13.8712 37.3035 13.8016 37.1796 13.6778C37.0558 13.5539 36.9861 13.3859 36.9861 13.2107C36.9861 13.0355 37.0558 12.8675 37.1796 12.7436C37.3035 12.6198 37.4715 12.5502 37.6467 12.5502H39.2971C40.9634 12.5502 42.2704 13.9276 42.2704 15.6873V32.6956C42.2739 34.5169 40.9406 35.9982 39.3007 35.9982Z" fill="#256763"/>
<path d="M15.1132 31.3745H12.0394C11.8643 31.3745 11.6962 31.3049 11.5723 31.181C11.4485 31.0571 11.3789 30.8891 11.3789 30.7139C11.3789 30.5388 11.4485 30.3707 11.5723 30.2469C11.6962 30.123 11.8643 30.0534 12.0394 30.0534H15.1078C15.283 30.0534 15.4511 30.123 15.5749 30.2469C15.6988 30.3707 15.7684 30.5388 15.7684 30.7139C15.7684 30.8891 15.6988 31.0571 15.5749 31.181C15.4511 31.3049 15.283 31.3745 15.1078 31.3745H15.1132Z" fill="#256763"/>
<path d="M21.0522 31.3745H17.9838C17.8086 31.3745 17.6405 31.3049 17.5167 31.181C17.3928 31.0571 17.3232 30.8891 17.3232 30.7139C17.3232 30.5388 17.3928 30.3707 17.5167 30.2469C17.6405 30.123 17.8086 30.0534 17.9838 30.0534H21.0522C21.2273 30.0534 21.3954 30.123 21.5193 30.2469C21.6431 30.3707 21.7127 30.5388 21.7127 30.7139C21.7127 30.8891 21.6431 31.0571 21.5193 31.181C21.3954 31.3049 21.2273 31.3745 21.0522 31.3745Z" fill="#256763"/>
<path d="M26.9916 31.3745H23.9232C23.748 31.3745 23.58 31.3049 23.4561 31.181C23.3323 31.0571 23.2627 30.8891 23.2627 30.7139C23.2627 30.5388 23.3323 30.3707 23.4561 30.2469C23.58 30.123 23.748 30.0534 23.9232 30.0534H26.9916C27.1668 30.0534 27.3348 30.123 27.4586 30.2469C27.5825 30.3707 27.6521 30.5388 27.6521 30.7139C27.6521 30.8891 27.5825 31.0571 27.4586 31.181C27.3348 31.3049 27.1668 31.3745 26.9916 31.3745Z" fill="#256763"/>
<path d="M33.0264 31.3745H29.8558C29.6807 31.3745 29.5127 31.3049 29.3888 31.181C29.265 31.0571 29.1953 30.8891 29.1953 30.7139C29.1953 30.5388 29.265 30.3707 29.3888 30.2469C29.5127 30.123 29.6807 30.0534 29.8558 30.0534H33.0264C33.2016 30.0534 33.3696 30.123 33.4935 30.2469C33.6174 30.3707 33.6869 30.5388 33.6869 30.7139C33.6869 30.8891 33.6174 31.0571 33.4935 31.181C33.3696 31.3049 33.2016 31.3745 33.0264 31.3745Z" fill="#256763"/>
<path d="M34.6769 10.2374H0.989636C0.814451 10.2374 0.646406 10.1678 0.522531 10.0439C0.398657 9.92005 0.329102 9.75204 0.329102 9.57686C0.329102 9.40167 0.398657 9.23366 0.522531 9.10979C0.646406 8.98591 0.814451 8.91632 0.989636 8.91632H34.6769C34.8521 8.91632 35.0201 8.98591 35.144 9.10979C35.2679 9.23366 35.3374 9.40167 35.3374 9.57686C35.3374 9.75204 35.2679 9.92005 35.144 10.0439C35.0201 10.1678 34.8521 10.2374 34.6769 10.2374Z" fill="#256763"/>
</g>
<defs>
<clipPath id="clip0_264_24">
<rect width="42.2742" height="36" fill="white"/>
</clipPath>
</defs>
</svg>
