<svg width="16" height="16" viewBox="0 0 16 16" fill="none" xmlns="http://www.w3.org/2000/svg">
<path d="M8 14C11.3137 14 14 11.3137 14 8C14 4.68629 11.3137 2 8 2C4.68629 2 2 4.68629 2 8C2 11.3137 4.68629 14 8 14Z" stroke="white" stroke-linecap="round" stroke-linejoin="round"/>
<path d="M9.86667 6.00006C9.7459 5.79057 9.57043 5.61787 9.35905 5.50043C9.14768 5.383 8.90834 5.32526 8.66667 5.3334H7.33333C6.97971 5.3334 6.64057 5.47387 6.39052 5.72392C6.14048 5.97397 6 6.31311 6 6.66673C6 7.02035 6.14048 7.35949 6.39052 7.60954C6.64057 7.85959 6.97971 8.00006 7.33333 8.00006H8.66667C9.02029 8.00006 9.35943 8.14054 9.60948 8.39059C9.85952 8.64064 10 8.97978 10 9.3334C10 9.68702 9.85952 10.0262 9.60948 10.2762C9.35943 10.5263 9.02029 10.6667 8.66667 10.6667H7.33333C7.09166 10.6749 6.85232 10.6171 6.64095 10.4997C6.42957 10.3823 6.2541 10.2096 6.13333 10.0001" stroke="white" stroke-linecap="round" stroke-linejoin="round"/>
<path d="M8 10.6667V12M8 4V5.33333V4Z" stroke="white" stroke-linecap="round" stroke-linejoin="round"/>
</svg>
