<svg width="16" height="16" viewBox="0 0 16 16" fill="none" xmlns="http://www.w3.org/2000/svg">
<path d="M12 5.33337C12.5304 5.33337 13.0391 5.54409 13.4142 5.91916C13.7893 6.29423 14 6.80294 14 7.33337C14 7.86381 13.7893 8.37252 13.4142 8.74759C13.0391 9.12266 12.5304 9.33337 12 9.33337" stroke="white" stroke-linecap="round" stroke-linejoin="round"/>
<path d="M6.66675 5.33337V12.6667C6.66675 12.8435 6.59651 13.0131 6.47149 13.1381C6.34646 13.2631 6.17689 13.3334 6.00008 13.3334H5.33341C5.1566 13.3334 4.98703 13.2631 4.86201 13.1381C4.73699 13.0131 4.66675 12.8435 4.66675 12.6667V9.33337" stroke="white" stroke-linecap="round" stroke-linejoin="round"/>
<path d="M8 5.33334L11.016 2.82001C11.1036 2.74701 11.2103 2.70051 11.3234 2.68594C11.4365 2.67138 11.5514 2.68936 11.6547 2.73777C11.758 2.78619 11.8453 2.86303 11.9065 2.95931C11.9676 3.05558 12.0001 3.16729 12 3.28134V11.3853C12.0001 11.4994 11.9676 11.6111 11.9065 11.7074C11.8453 11.8036 11.758 11.8805 11.6547 11.9289C11.5514 11.9773 11.4365 11.9953 11.3234 11.9807C11.2103 11.9662 11.1036 11.9197 11.016 11.8467L8 9.33334H2.66667C2.48986 9.33334 2.32029 9.2631 2.19526 9.13808C2.07024 9.01305 2 8.84348 2 8.66667V6.00001C2 5.82319 2.07024 5.65363 2.19526 5.5286C2.32029 5.40358 2.48986 5.33334 2.66667 5.33334H8" stroke="white" stroke-linecap="round" stroke-linejoin="round"/>
</svg>
