<svg width="512" height="512" viewBox="0 0 152 41" fill="none" xmlns="http://www.w3.org/2000/svg">
<path d="M46.84 18.96C46.03 17.88 44.41 16.92 42.19 16.92C37.63 16.92 34.96 20.58 34.96 25.14C34.96 29.7 37.63 33.36 42.19 33.36C44.41 33.36 46.18 32.52 47.17 31.08V33H51.1V10.5H46.84V18.96ZM46.96 25.14C46.96 27.69 45.46 29.61 43.09 29.61C40.72 29.61 39.22 27.69 39.22 25.14C39.22 22.59 40.72 20.67 43.09 20.67C45.46 20.67 46.96 22.59 46.96 25.14ZM57.123 15.24C58.623 15.24 59.703 14.19 59.703 12.69C59.703 11.19 58.623 10.11 57.123 10.11C55.623 10.11 54.543 11.19 54.543 12.69C54.543 14.19 55.623 15.24 57.123 15.24ZM54.993 33H59.253V17.28H54.993V33ZM68.2068 17.28V15.93C68.2068 14.61 68.8668 14.19 69.8868 14.19C70.3668 14.19 70.5468 14.22 70.5468 14.22V10.56C70.5468 10.56 70.0368 10.5 69.2868 10.5C66.1068 10.5 63.9468 12.24 63.9468 16.02V17.28H61.6968V20.64H63.9468V33H68.2068V20.64H70.6368V17.28H68.2068ZM75.0168 15.24C76.5168 15.24 77.5968 14.19 77.5968 12.69C77.5968 11.19 76.5168 10.11 75.0168 10.11C73.5168 10.11 72.4368 11.19 72.4368 12.69C72.4368 14.19 73.5168 15.24 75.0168 15.24ZM72.8868 33H77.1468V17.28H72.8868V33ZM91.6766 27.87C91.1066 29.13 89.9666 29.7 88.5566 29.7C86.4266 29.7 85.0466 28.53 84.7466 26.37H96.1466C96.1466 26.37 96.2066 25.8 96.2066 25.11C96.2066 20.46 93.0566 16.92 88.4066 16.92C83.7566 16.92 80.5166 20.46 80.5166 25.11C80.5166 29.94 83.7866 33.36 88.4366 33.36C92.0666 33.36 94.4666 31.53 95.6066 28.77L91.6766 27.87ZM88.3766 20.34C90.3566 20.34 91.6466 21.54 91.9466 23.31H84.8066C85.1666 21.51 86.4266 20.34 88.3766 20.34ZM107.965 17.16C107.965 17.16 107.605 17.13 107.455 17.13C104.785 17.13 103.585 18.39 103.015 19.32V17.28H99.0848V33H103.345V25.17C103.345 22.29 104.635 21.06 107.125 21.06C107.515 21.06 107.965 21.15 107.965 21.15V17.16ZM119.772 27.87C119.202 29.13 118.062 29.7 116.652 29.7C114.522 29.7 113.142 28.53 112.842 26.37H124.242C124.242 26.37 124.302 25.8 124.302 25.11C124.302 20.46 121.152 16.92 116.502 16.92C111.852 16.92 108.612 20.46 108.612 25.11C108.612 29.94 111.882 33.36 116.532 33.36C120.162 33.36 122.562 31.53 123.702 28.77L119.772 27.87ZM116.472 20.34C118.452 20.34 119.742 21.54 120.042 23.31H112.902C113.262 21.51 114.522 20.34 116.472 20.34ZM131.44 33V10.5H127.18V33H131.44ZM142.614 33.36C147.654 33.36 150.864 29.61 150.864 25.14C150.864 20.67 147.654 16.92 142.614 16.92C137.574 16.92 134.364 20.67 134.364 25.14C134.364 29.61 137.574 33.36 142.614 33.36ZM138.624 25.14C138.624 22.32 140.364 20.67 142.614 20.67C144.864 20.67 146.604 22.32 146.604 25.14C146.604 27.96 144.864 29.61 142.614 29.61C140.364 29.61 138.624 27.96 138.624 25.14Z" fill="#4544ED"/>
<circle cx="11.5" cy="23.5" r="11.5" fill="#4544ED"/>
</svg>
