<svg width="23" height="22" viewBox="0 0 23 22" fill="none" xmlns="http://www.w3.org/2000/svg">
<path d="M12.8354 7.33317V5.49984C12.8354 5.01361 12.6423 4.54729 12.2984 4.20347C11.9546 3.85966 11.4883 3.6665 11.0021 3.6665H4.58541C4.09918 3.6665 3.63286 3.85966 3.28905 4.20347C2.94523 4.54729 2.75208 5.01361 2.75208 5.49984V16.4998C2.75208 16.9861 2.94523 17.4524 3.28905 17.7962C3.63286 18.14 4.09918 18.3332 4.58541 18.3332H11.0021C11.4883 18.3332 11.9546 18.14 12.2984 17.7962C12.6423 17.4524 12.8354 16.9861 12.8354 16.4998V14.6665" stroke="#152738" stroke-width="1.375" stroke-linecap="round" stroke-linejoin="round"/>
<path d="M6.41882 11H19.2522M19.2522 11L16.5022 8.25M19.2522 11L16.5022 13.75" stroke="#152738" stroke-width="1.375" stroke-linecap="round" stroke-linejoin="round"/>
</svg>
