<svg width="36" height="36" viewBox="0 0 36 36" fill="none" xmlns="http://www.w3.org/2000/svg">
<path d="M11.25 17.9999L8.24387 22.0081C7.37768 23.1631 7.45691 24.7711 8.43241 25.8353L14.1083 32.0272C14.6765 32.647 15.4775 32.9999 16.3184 32.9999C17.9477 32.9999 20.6123 32.9999 23.25 32.9999C26.85 32.9999 29.25 29.9999 29.25 26.9999C29.25 26.9999 29.25 16.7143 29.25 14.1428" stroke="#1F3F4A" stroke-width="1.5" stroke-linecap="round" stroke-linejoin="round"/>
<path d="M24.75 14.9999C24.75 14.9999 24.75 14.8122 24.75 14.1427C24.75 10.7141 29.25 10.7141 29.25 14.1427" stroke="#1F3F4A" stroke-width="1.5" stroke-linecap="round" stroke-linejoin="round"/>
<path d="M20.25 15C20.25 15 20.25 13.7675 20.25 12.4286C20.25 9.00003 24.75 9.00003 24.75 12.4286C24.75 12.7633 24.75 13.8082 24.75 14.1429C24.75 14.8124 24.75 15 24.75 15" stroke="#1F3F4A" stroke-width="1.5" stroke-linecap="round" stroke-linejoin="round"/>
<path d="M15.75 15.0002C15.75 15.0002 15.75 12.9238 15.75 11.2501C15.75 7.82157 20.25 7.82157 20.25 11.2501C20.25 11.2501 20.25 12.094 20.25 12.4287C20.25 13.7676 20.25 15.0002 20.25 15.0002" stroke="#1F3F4A" stroke-width="1.5" stroke-linecap="round" stroke-linejoin="round"/>
<path d="M15.75 15C15.75 15 15.75 12.9237 15.75 11.25C15.75 9.51234 15.75 7.03452 15.75 5.24849C15.75 4.00584 14.7426 3 13.5 3C12.2574 3 11.25 4.00736 11.25 5.25V18V22.5" stroke="#1F3F4A" stroke-width="1.5" stroke-linecap="round" stroke-linejoin="round"/>
</svg>
