<svg width="204" height="204" viewBox="0 0 204 204" fill="none" xmlns="http://www.w3.org/2000/svg">
<circle cx="102" cy="102" r="79" stroke="#4544ED" stroke-width="45"/>
<path d="M102 181C145.63 181 181 145.631 181 102C181 58.3695 145.63 23 102 23" stroke="#32284E" stroke-width="45"/>
<path d="M102 23C145.63 23 181 58.3695 181 102C181 132.723 163.462 159.35 137.851 172.415" stroke="#AE00EB" stroke-width="45"/>
<path d="M102.317 23C145.773 23 181 58.3352 181 101.923C181 120.847 174.36 138.215 163.29 151.811" stroke="#1B1A9A" stroke-width="45"/>
<path d="M181 101.683C181 75.1921 167.909 51.759 147.843 37.5002C134.992 28.3689 119.282 23 102.317 23" stroke="#7D7CF9" stroke-width="45"/>
</svg>
