<svg width="114" height="91" viewBox="0 0 114 91" fill="none" xmlns="http://www.w3.org/2000/svg">
<g filter="url(#filter0_d_337_1111)">
<rect x="25" y="25" width="64" height="41" rx="5" fill="white"/>
</g>
<path d="M46.799 57V49.7273H47.8963V52.8878H51.522V49.7273H52.6229V57H51.522V53.8288H47.8963V57H46.799ZM56.4332 57.1101C55.9219 57.1101 55.4756 56.9929 55.0945 56.7585C54.7133 56.5241 54.4174 56.1963 54.2067 55.7749C53.996 55.3535 53.8906 54.861 53.8906 54.2976C53.8906 53.7318 53.996 53.237 54.2067 52.8132C54.4174 52.3894 54.7133 52.0604 55.0945 51.826C55.4756 51.5916 55.9219 51.4744 56.4332 51.4744C56.9446 51.4744 57.3909 51.5916 57.772 51.826C58.1532 52.0604 58.4491 52.3894 58.6598 52.8132C58.8705 53.237 58.9759 53.7318 58.9759 54.2976C58.9759 54.861 58.8705 55.3535 58.6598 55.7749C58.4491 56.1963 58.1532 56.5241 57.772 56.7585C57.3909 56.9929 56.9446 57.1101 56.4332 57.1101ZM56.4368 56.2188C56.7682 56.2188 57.0429 56.1312 57.2607 55.956C57.4785 55.7808 57.6394 55.5476 57.7436 55.2564C57.8501 54.9652 57.9034 54.6444 57.9034 54.294C57.9034 53.946 57.8501 53.6264 57.7436 53.3352C57.6394 53.0417 57.4785 52.8061 57.2607 52.6286C57.0429 52.451 56.7682 52.3622 56.4368 52.3622C56.103 52.3622 55.826 52.451 55.6058 52.6286C55.388 52.8061 55.2259 53.0417 55.1193 53.3352C55.0152 53.6264 54.9631 53.946 54.9631 54.294C54.9631 54.6444 55.0152 54.9652 55.1193 55.2564C55.2259 55.5476 55.388 55.7808 55.6058 55.956C55.826 56.1312 56.103 56.2188 56.4368 56.2188ZM61.2228 49.7273V57H60.161V49.7273H61.2228ZM64.2386 57.1207C63.893 57.1207 63.5805 57.0568 63.3011 56.929C63.0218 56.7988 62.8004 56.6106 62.6371 56.3643C62.4761 56.1181 62.3956 55.8163 62.3956 55.4588C62.3956 55.151 62.4548 54.8977 62.5732 54.6989C62.6915 54.5 62.8513 54.3426 63.0526 54.2266C63.2538 54.1106 63.4787 54.023 63.7273 53.9638C63.9759 53.9046 64.2292 53.8596 64.4872 53.8288C64.8139 53.791 65.0791 53.7602 65.2827 53.7365C65.4863 53.7105 65.6342 53.669 65.7266 53.6122C65.8189 53.5554 65.8651 53.4631 65.8651 53.3352V53.3104C65.8651 53.0002 65.7775 52.7599 65.6023 52.5895C65.4295 52.419 65.1714 52.3338 64.8281 52.3338C64.4706 52.3338 64.1889 52.4131 63.983 52.5717C63.7794 52.728 63.6385 52.902 63.5604 53.0938L62.5625 52.8665C62.6809 52.535 62.8537 52.2675 63.081 52.0639C63.3106 51.858 63.5746 51.7088 63.8729 51.6165C64.1712 51.5218 64.4848 51.4744 64.8139 51.4744C65.0317 51.4744 65.2625 51.5005 65.5064 51.5526C65.7526 51.6023 65.9822 51.6946 66.1953 51.8295C66.4107 51.9645 66.5871 52.1574 66.7244 52.4084C66.8617 52.657 66.9304 52.9801 66.9304 53.3778V57H65.8935V56.2543H65.8509C65.7822 56.3916 65.6792 56.5265 65.5419 56.6591C65.4046 56.7917 65.2282 56.9018 65.0128 56.9893C64.7973 57.0769 64.5393 57.1207 64.2386 57.1207ZM64.4695 56.2685C64.763 56.2685 65.014 56.2105 65.2223 56.0945C65.433 55.9785 65.5928 55.8269 65.7017 55.6399C65.813 55.4505 65.8686 55.2481 65.8686 55.0327V54.3295C65.8307 54.3674 65.7573 54.4029 65.6484 54.4361C65.5419 54.4669 65.42 54.4941 65.2827 54.5178C65.1454 54.5391 65.0116 54.5592 64.8814 54.5781C64.7512 54.5947 64.6423 54.6089 64.5547 54.6207C64.3487 54.6468 64.1605 54.6906 63.9901 54.7521C63.822 54.8137 63.687 54.9025 63.5852 55.0185C63.4858 55.1321 63.4361 55.2836 63.4361 55.473C63.4361 55.7358 63.5331 55.9347 63.7273 56.0696C63.9214 56.2022 64.1688 56.2685 64.4695 56.2685Z" fill="#7E819F"/>
<path d="M47.402 43.18C46.962 43.18 46.552 43.09 46.172 42.91C45.792 42.726 45.464 42.474 45.188 42.154C44.916 41.834 44.72 41.462 44.6 41.038L45.992 40.666C46.048 40.898 46.15 41.098 46.298 41.266C46.45 41.434 46.626 41.564 46.826 41.656C47.03 41.748 47.24 41.794 47.456 41.794C47.736 41.794 47.992 41.726 48.224 41.59C48.456 41.454 48.64 41.272 48.776 41.044C48.912 40.812 48.98 40.556 48.98 40.276C48.98 39.996 48.91 39.742 48.77 39.514C48.634 39.282 48.45 39.1 48.218 38.968C47.986 38.832 47.732 38.764 47.456 38.764C47.124 38.764 46.848 38.824 46.628 38.944C46.412 39.064 46.246 39.192 46.13 39.328L44.894 38.932L45.158 34.36H49.85V35.716H45.932L46.472 35.206L46.28 38.386L46.016 38.062C46.24 37.858 46.5 37.706 46.796 37.606C47.092 37.506 47.378 37.456 47.654 37.456C48.194 37.456 48.672 37.58 49.088 37.828C49.508 38.072 49.836 38.406 50.072 38.83C50.312 39.254 50.432 39.736 50.432 40.276C50.432 40.816 50.292 41.306 50.012 41.746C49.732 42.182 49.362 42.53 48.902 42.79C48.446 43.05 47.946 43.18 47.402 43.18ZM54.4333 43.18C53.9933 43.18 53.5833 43.09 53.2033 42.91C52.8233 42.726 52.4953 42.474 52.2193 42.154C51.9473 41.834 51.7513 41.462 51.6313 41.038L53.0233 40.666C53.0793 40.898 53.1813 41.098 53.3293 41.266C53.4813 41.434 53.6573 41.564 53.8573 41.656C54.0613 41.748 54.2713 41.794 54.4873 41.794C54.7673 41.794 55.0233 41.726 55.2553 41.59C55.4873 41.454 55.6713 41.272 55.8073 41.044C55.9433 40.812 56.0113 40.556 56.0113 40.276C56.0113 39.996 55.9413 39.742 55.8013 39.514C55.6653 39.282 55.4813 39.1 55.2493 38.968C55.0173 38.832 54.7633 38.764 54.4873 38.764C54.1553 38.764 53.8793 38.824 53.6593 38.944C53.4433 39.064 53.2773 39.192 53.1613 39.328L51.9253 38.932L52.1893 34.36H56.8813V35.716H52.9633L53.5033 35.206L53.3113 38.386L53.0473 38.062C53.2713 37.858 53.5313 37.706 53.8273 37.606C54.1233 37.506 54.4093 37.456 54.6853 37.456C55.2253 37.456 55.7033 37.58 56.1193 37.828C56.5393 38.072 56.8673 38.406 57.1033 38.83C57.3433 39.254 57.4633 39.736 57.4633 40.276C57.4633 40.816 57.3233 41.306 57.0433 41.746C56.7633 42.182 56.3933 42.53 55.9333 42.79C55.4773 43.05 54.9773 43.18 54.4333 43.18ZM60.1025 43L59.1425 42.04L66.8285 34.36L67.7885 35.326L60.1025 43ZM65.9885 43.18C65.5925 43.18 65.2305 43.084 64.9025 42.892C64.5785 42.696 64.3185 42.436 64.1225 42.112C63.9265 41.784 63.8285 41.42 63.8285 41.02C63.8285 40.628 63.9285 40.268 64.1285 39.94C64.3285 39.612 64.5925 39.35 64.9205 39.154C65.2485 38.958 65.6045 38.86 65.9885 38.86C66.3845 38.86 66.7465 38.958 67.0745 39.154C67.4025 39.346 67.6625 39.606 67.8545 39.934C68.0505 40.258 68.1485 40.62 68.1485 41.02C68.1485 41.42 68.0505 41.784 67.8545 42.112C67.6625 42.436 67.4025 42.696 67.0745 42.892C66.7465 43.084 66.3845 43.18 65.9885 43.18ZM65.9885 41.944C66.1525 41.944 66.3045 41.902 66.4445 41.818C66.5885 41.734 66.7025 41.622 66.7865 41.482C66.8705 41.342 66.9125 41.188 66.9125 41.02C66.9125 40.852 66.8705 40.698 66.7865 40.558C66.7025 40.418 66.5885 40.306 66.4445 40.222C66.3045 40.138 66.1525 40.096 65.9885 40.096C65.8205 40.096 65.6665 40.138 65.5265 40.222C65.3865 40.306 65.2725 40.418 65.1845 40.558C65.1005 40.698 65.0585 40.852 65.0585 41.02C65.0585 41.188 65.1005 41.342 65.1845 41.482C65.2725 41.622 65.3865 41.734 65.5265 41.818C65.6665 41.902 65.8205 41.944 65.9885 41.944ZM60.9425 38.5C60.5465 38.5 60.1845 38.404 59.8565 38.212C59.5285 38.016 59.2665 37.756 59.0705 37.432C58.8785 37.104 58.7825 36.74 58.7825 36.34C58.7825 35.948 58.8825 35.588 59.0825 35.26C59.2825 34.932 59.5465 34.67 59.8745 34.474C60.2025 34.278 60.5585 34.18 60.9425 34.18C61.3385 34.18 61.6985 34.278 62.0225 34.474C62.3505 34.666 62.6125 34.926 62.8085 35.254C63.0045 35.578 63.1025 35.94 63.1025 36.34C63.1025 36.74 63.0045 37.104 62.8085 37.432C62.6125 37.756 62.3505 38.016 62.0225 38.212C61.6985 38.404 61.3385 38.5 60.9425 38.5ZM60.9425 37.264C61.1105 37.264 61.2645 37.222 61.4045 37.138C61.5445 37.054 61.6565 36.942 61.7405 36.802C61.8245 36.662 61.8665 36.508 61.8665 36.34C61.8665 36.172 61.8245 36.018 61.7405 35.878C61.6565 35.738 61.5445 35.626 61.4045 35.542C61.2645 35.458 61.1105 35.416 60.9425 35.416C60.7745 35.416 60.6205 35.458 60.4805 35.542C60.3405 35.626 60.2285 35.738 60.1445 35.878C60.0605 36.018 60.0185 36.172 60.0185 36.34C60.0185 36.508 60.0605 36.662 60.1445 36.802C60.2285 36.942 60.3405 37.054 60.4805 37.138C60.6205 37.222 60.7745 37.264 60.9425 37.264Z" fill="#4544ED"/>
<defs>
<filter id="filter0_d_337_1111" x="0" y="0" width="114" height="91" filterUnits="userSpaceOnUse" color-interpolation-filters="sRGB">
<feFlood flood-opacity="0" result="BackgroundImageFix"/>
<feColorMatrix in="SourceAlpha" type="matrix" values="0 0 0 0 0 0 0 0 0 0 0 0 0 0 0 0 0 0 127 0" result="hardAlpha"/>
<feOffset/>
<feGaussianBlur stdDeviation="12.5"/>
<feColorMatrix type="matrix" values="0 0 0 0 0.656433 0 0 0 0 0.655712 0 0 0 0 0.745833 0 0 0 0.21 0"/>
<feBlend mode="normal" in2="BackgroundImageFix" result="effect1_dropShadow_337_1111"/>
<feBlend mode="normal" in="SourceGraphic" in2="effect1_dropShadow_337_1111" result="shape"/>
</filter>
</defs>
</svg>
