<svg width="36" height="36" viewBox="0 0 36 36" fill="none" xmlns="http://www.w3.org/2000/svg">
<circle cx="18" cy="18" r="18" fill="#4544ED" fill-opacity="0.1"/>
<g clip-path="url(#clip0_602_1648)">
<path d="M23 17H13C11.8954 17 11 17.8954 11 19V25C11 26.1046 11.8954 27 13 27H23C24.1046 27 25 26.1046 25 25V19C25 17.8954 24.1046 17 23 17Z" stroke="#11171D" stroke-width="1.5" stroke-linecap="round" stroke-linejoin="round"/>
<path d="M18 23C18.5523 23 19 22.5523 19 22C19 21.4477 18.5523 21 18 21C17.4477 21 17 21.4477 17 22C17 22.5523 17.4477 23 18 23Z" stroke="#11171D" stroke-width="1.5" stroke-linecap="round" stroke-linejoin="round"/>
<path d="M14 17V13C14 11.9391 14.4214 10.9217 15.1716 10.1716C15.9217 9.42143 16.9391 9 18 9C19.0609 9 20.0783 9.42143 20.8284 10.1716C21.5786 10.9217 22 11.9391 22 13V17" stroke="#11171D" stroke-width="1.5" stroke-linecap="round" stroke-linejoin="round"/>
</g>
<defs>
<clipPath id="clip0_602_1648">
<rect width="24" height="24" fill="white" transform="translate(6 6)"/>
</clipPath>
</defs>
</svg>
