<svg width="315" height="184" viewBox="0 0 315 184" fill="none" xmlns="http://www.w3.org/2000/svg">
<rect width="315" height="184" rx="30" fill="url(#paint0_linear_617_2740)"/>
<mask id="mask0_617_2740" style="mask-type:alpha" maskUnits="userSpaceOnUse" x="0" y="0" width="315" height="184">
<rect width="315" height="184" rx="30" fill="#ED713C"/>
</mask>
<g mask="url(#mask0_617_2740)">
<ellipse opacity="0.1" cx="24.5" cy="213" rx="160.5" ry="113" fill="#152738"/>
<ellipse opacity="0.08" cx="290.5" cy="-29" rx="160.5" ry="113" fill="#152738"/>
</g>
<g opacity="0.9" filter="url(#filter0_d_617_2740)">
<path d="M249.444 156.206V153.841C249.444 153.198 249.369 152.633 249.219 152.146C249.068 151.653 248.854 151.241 248.576 150.908C248.298 150.58 247.959 150.332 247.558 150.163C247.157 149.99 246.703 149.903 246.197 149.903C245.701 149.903 245.252 149.99 244.851 150.163C244.454 150.332 244.117 150.58 243.839 150.908C243.556 151.241 243.34 151.653 243.189 152.146C243.044 152.633 242.971 153.198 242.971 153.841V156.206C242.971 156.849 243.046 157.416 243.196 157.908C243.347 158.396 243.563 158.804 243.846 159.132C244.124 159.469 244.463 159.722 244.864 159.891C245.265 160.059 245.714 160.144 246.211 160.144C246.717 160.144 247.168 160.059 247.564 159.891C247.965 159.717 248.305 159.465 248.583 159.132C248.861 158.804 249.073 158.396 249.219 157.908C249.369 157.416 249.444 156.849 249.444 156.206ZM244.748 155.509C244.748 155.372 244.748 155.263 244.748 155.181C244.748 155.099 244.748 154.96 244.748 154.764V153.54C244.748 153.153 244.78 152.815 244.844 152.528C244.908 152.241 245.008 152.009 245.145 151.831C245.263 151.667 245.409 151.544 245.582 151.462C245.76 151.38 245.965 151.339 246.197 151.339C246.411 151.339 246.603 151.373 246.771 151.441C246.94 151.505 247.081 151.605 247.195 151.742C247.337 151.906 247.444 152.12 247.517 152.385C247.594 152.645 247.642 152.957 247.66 153.321L244.748 155.509ZM247.667 156.493C247.667 156.885 247.633 157.227 247.564 157.519C247.501 157.806 247.4 158.043 247.264 158.229C247.145 158.394 246.997 158.517 246.819 158.599C246.646 158.676 246.443 158.715 246.211 158.715C245.974 158.715 245.764 158.672 245.582 158.585C245.404 158.494 245.256 158.359 245.138 158.182C245.024 158.022 244.935 157.826 244.871 157.594C244.812 157.357 244.773 157.083 244.755 156.773L247.667 154.6C247.667 154.727 247.667 154.841 247.667 154.941C247.667 155.037 247.667 155.151 247.667 155.283V156.493ZM253.239 158.571H253.109V160.068H253.246C254.112 160.068 254.855 159.938 255.475 159.679C256.099 159.414 256.607 159.052 256.999 158.592C257.437 158.081 257.749 157.482 257.936 156.794C258.127 156.106 258.223 155.368 258.223 154.579V153.964C258.223 153.381 258.145 152.836 257.99 152.33C257.84 151.824 257.619 151.391 257.327 151.031C257.045 150.68 256.701 150.407 256.295 150.211C255.889 150.01 255.427 149.91 254.907 149.91C254.397 149.91 253.939 150.004 253.533 150.19C253.132 150.373 252.793 150.623 252.515 150.942C252.232 151.257 252.016 151.628 251.865 152.057C251.719 152.48 251.646 152.932 251.646 153.41C251.646 153.866 251.706 154.297 251.824 154.702C251.947 155.108 252.132 155.461 252.378 155.762C252.615 156.067 252.913 156.309 253.273 156.486C253.633 156.664 254.053 156.753 254.531 156.753C254.759 156.753 254.969 156.732 255.16 156.691C255.356 156.65 255.532 156.593 255.687 156.521C255.837 156.452 255.974 156.375 256.097 156.288C256.22 156.197 256.331 156.099 256.432 155.994V156.028C256.391 156.402 256.304 156.746 256.172 157.061C256.04 157.375 255.844 157.648 255.584 157.881C255.324 158.104 255.001 158.275 254.613 158.394C254.23 158.512 253.772 158.571 253.239 158.571ZM254.928 155.372C254.673 155.372 254.449 155.317 254.258 155.208C254.066 155.099 253.907 154.953 253.779 154.771C253.652 154.588 253.556 154.376 253.492 154.135C253.433 153.889 253.403 153.636 253.403 153.376C253.403 153.103 253.438 152.845 253.506 152.604C253.574 152.357 253.672 152.139 253.8 151.947C253.923 151.765 254.078 151.619 254.265 151.51C254.451 151.4 254.663 151.346 254.9 151.346C255.119 151.346 255.322 151.396 255.509 151.496C255.7 151.592 255.867 151.738 256.008 151.934C256.149 152.13 256.258 152.371 256.336 152.658C256.418 152.945 256.459 153.28 256.459 153.663V154.285C256.4 154.44 256.32 154.584 256.22 154.716C256.124 154.848 256.012 154.962 255.885 155.058C255.748 155.158 255.6 155.235 255.44 155.29C255.281 155.345 255.11 155.372 254.928 155.372ZM263.002 160.854L266.816 150.047H265.183L261.368 160.854H263.002ZM276.162 160V158.578H271.657L273.701 156.404C274.007 156.085 274.287 155.778 274.542 155.481C274.802 155.181 275.025 154.887 275.212 154.6C275.394 154.308 275.535 154.014 275.636 153.718C275.741 153.422 275.793 153.112 275.793 152.788C275.793 152.364 275.725 151.977 275.588 151.626C275.451 151.271 275.253 150.965 274.993 150.71C274.729 150.459 274.403 150.263 274.016 150.122C273.628 149.981 273.186 149.91 272.689 149.91C272.165 149.91 271.689 149.994 271.261 150.163C270.832 150.332 270.47 150.564 270.174 150.86C269.868 151.152 269.634 151.494 269.47 151.886C269.306 152.273 269.224 152.686 269.224 153.123H271.001C271.001 152.845 271.035 152.597 271.104 152.378C271.176 152.159 271.281 151.975 271.418 151.824C271.555 151.683 271.723 151.574 271.924 151.496C272.129 151.419 272.368 151.38 272.642 151.38C272.851 151.38 273.043 151.416 273.216 151.489C273.389 151.558 273.539 151.656 273.667 151.783C273.79 151.915 273.883 152.073 273.947 152.255C274.016 152.433 274.05 152.638 274.05 152.87C274.05 153.03 274.025 153.194 273.975 153.362C273.929 153.526 273.852 153.702 273.742 153.889C273.633 154.08 273.489 154.292 273.312 154.524C273.134 154.752 272.915 155.007 272.655 155.29L269.429 158.783V160H276.162ZM278.815 155.078L280.224 155.434C280.306 155.352 280.39 155.276 280.477 155.208C280.568 155.14 280.666 155.08 280.771 155.03C280.88 154.98 281.005 154.939 281.146 154.907C281.288 154.875 281.454 154.859 281.646 154.859C281.933 154.859 282.181 154.907 282.391 155.003C282.605 155.094 282.785 155.222 282.931 155.386C283.072 155.554 283.177 155.755 283.245 155.987C283.318 156.22 283.354 156.473 283.354 156.746C283.354 157.029 283.325 157.291 283.266 157.532C283.211 157.774 283.124 157.983 283.006 158.161C282.883 158.334 282.726 158.471 282.534 158.571C282.343 158.667 282.115 158.715 281.851 158.715C281.409 158.715 281.046 158.592 280.764 158.346C280.486 158.095 280.319 157.74 280.265 157.279H278.535C278.553 157.74 278.658 158.147 278.85 158.503C279.041 158.858 279.289 159.157 279.595 159.398C279.896 159.64 280.242 159.825 280.634 159.952C281.026 160.075 281.434 160.137 281.857 160.137C282.413 160.137 282.896 160.05 283.307 159.877C283.717 159.699 284.056 159.458 284.325 159.152C284.594 158.852 284.795 158.501 284.927 158.1C285.059 157.699 285.125 157.27 285.125 156.814C285.125 156.295 285.057 155.83 284.92 155.42C284.783 155.005 284.587 154.654 284.332 154.367C284.072 154.08 283.756 153.859 283.382 153.704C283.008 153.549 282.584 153.472 282.11 153.472C281.769 153.472 281.465 153.515 281.201 153.602C280.941 153.688 280.734 153.777 280.579 153.868L280.825 151.578H284.804V150.047H279.369L278.815 155.078Z" fill="white"/>
</g>
<g opacity="0.9" filter="url(#filter1_d_617_2740)">
<path d="M31.1826 155.078L32.5908 155.434C32.6729 155.352 32.7572 155.276 32.8438 155.208C32.9349 155.14 33.0329 155.08 33.1377 155.03C33.2471 154.98 33.3724 154.939 33.5137 154.907C33.6549 154.875 33.8213 154.859 34.0127 154.859C34.2998 154.859 34.5482 154.907 34.7578 155.003C34.972 155.094 35.152 155.222 35.2979 155.386C35.4391 155.554 35.5439 155.755 35.6123 155.987C35.6852 156.22 35.7217 156.473 35.7217 156.746C35.7217 157.029 35.6921 157.291 35.6328 157.532C35.5781 157.774 35.4915 157.983 35.373 158.161C35.25 158.334 35.0928 158.471 34.9014 158.571C34.71 158.667 34.4821 158.715 34.2178 158.715C33.7757 158.715 33.4134 158.592 33.1309 158.346C32.8529 158.095 32.6865 157.74 32.6318 157.279H30.9023C30.9206 157.74 31.0254 158.147 31.2168 158.503C31.4082 158.858 31.6566 159.157 31.9619 159.398C32.2627 159.64 32.609 159.825 33.001 159.952C33.3929 160.075 33.8008 160.137 34.2246 160.137C34.7806 160.137 35.2637 160.05 35.6738 159.877C36.084 159.699 36.4235 159.458 36.6924 159.152C36.9613 158.852 37.1618 158.501 37.2939 158.1C37.4261 157.699 37.4922 157.27 37.4922 156.814C37.4922 156.295 37.4238 155.83 37.2871 155.42C37.1504 155.005 36.9544 154.654 36.6992 154.367C36.4395 154.08 36.1227 153.859 35.749 153.704C35.3753 153.549 34.9515 153.472 34.4775 153.472C34.1357 153.472 33.8327 153.515 33.5684 153.602C33.3086 153.688 33.1012 153.777 32.9463 153.868L33.1924 151.578H37.1709V150.047H31.7363L31.1826 155.078ZM46.3457 160V158.578H41.8408L43.8848 156.404C44.1901 156.085 44.4704 155.778 44.7256 155.481C44.9854 155.181 45.2087 154.887 45.3955 154.6C45.5778 154.308 45.7191 154.014 45.8193 153.718C45.9242 153.422 45.9766 153.112 45.9766 152.788C45.9766 152.364 45.9082 151.977 45.7715 151.626C45.6348 151.271 45.4365 150.965 45.1768 150.71C44.9124 150.459 44.5866 150.263 44.1992 150.122C43.8118 149.981 43.3698 149.91 42.873 149.91C42.349 149.91 41.8727 149.994 41.4443 150.163C41.016 150.332 40.6536 150.564 40.3574 150.86C40.0521 151.152 39.8174 151.494 39.6533 151.886C39.4893 152.273 39.4072 152.686 39.4072 153.123H41.1846C41.1846 152.845 41.2188 152.597 41.2871 152.378C41.36 152.159 41.4648 151.975 41.6016 151.824C41.7383 151.683 41.9069 151.574 42.1074 151.496C42.3125 151.419 42.5518 151.38 42.8252 151.38C43.0348 151.38 43.2262 151.416 43.3994 151.489C43.5726 151.558 43.723 151.656 43.8506 151.783C43.9736 151.915 44.0671 152.073 44.1309 152.255C44.1992 152.433 44.2334 152.638 44.2334 152.87C44.2334 153.03 44.2083 153.194 44.1582 153.362C44.1126 153.526 44.0352 153.702 43.9258 153.889C43.8164 154.08 43.6729 154.292 43.4951 154.524C43.3174 154.752 43.0986 155.007 42.8389 155.29L39.6123 158.783V160H46.3457ZM55.0488 152.686C55.0488 152.234 54.9714 151.838 54.8164 151.496C54.6615 151.154 54.445 150.865 54.167 150.628C53.889 150.391 53.5609 150.213 53.1826 150.095C52.8044 149.972 52.3942 149.91 51.9521 149.91C51.5055 149.91 51.0931 149.972 50.7148 150.095C50.3411 150.213 50.0199 150.391 49.751 150.628C49.4775 150.865 49.2633 151.154 49.1084 151.496C48.958 151.838 48.8828 152.234 48.8828 152.686C48.8828 152.932 48.9147 153.166 48.9785 153.39C49.0469 153.613 49.1426 153.818 49.2656 154.005C49.3796 154.183 49.5208 154.347 49.6895 154.497C49.8581 154.643 50.0472 154.768 50.2568 154.873C50.0107 154.987 49.7897 155.126 49.5938 155.29C49.4023 155.45 49.236 155.63 49.0947 155.83C48.9535 156.035 48.8441 156.261 48.7666 156.507C48.6937 156.753 48.6572 157.013 48.6572 157.286C48.6572 157.751 48.7415 158.161 48.9102 158.517C49.0833 158.872 49.318 159.168 49.6143 159.405C49.9105 159.647 50.2591 159.829 50.6602 159.952C51.0658 160.075 51.5033 160.137 51.9727 160.137C52.4329 160.137 52.8636 160.075 53.2646 159.952C53.6657 159.829 54.0166 159.647 54.3174 159.405C54.609 159.168 54.8392 158.872 55.0078 158.517C55.181 158.161 55.2676 157.751 55.2676 157.286C55.2676 156.949 55.2106 156.637 55.0967 156.35C54.9827 156.058 54.8232 155.798 54.6182 155.57C54.4906 155.429 54.3447 155.301 54.1807 155.188C54.0212 155.069 53.848 154.966 53.6611 154.88C53.8389 154.789 54.0007 154.684 54.1465 154.565C54.2969 154.442 54.429 154.31 54.543 154.169C54.7025 153.964 54.8255 153.736 54.9121 153.485C55.0033 153.235 55.0488 152.968 55.0488 152.686ZM53.4902 157.177C53.4902 157.418 53.4515 157.635 53.374 157.826C53.3011 158.013 53.1986 158.173 53.0664 158.305C52.9342 158.437 52.7747 158.539 52.5879 158.612C52.401 158.681 52.196 158.715 51.9727 158.715C51.7402 158.715 51.5306 158.683 51.3438 158.619C51.1569 158.551 50.9997 158.455 50.8721 158.332C50.7308 158.2 50.6214 158.038 50.5439 157.847C50.471 157.651 50.4346 157.427 50.4346 157.177C50.4346 156.94 50.4688 156.726 50.5371 156.534C50.61 156.338 50.7148 156.172 50.8516 156.035C50.9792 155.898 51.1364 155.794 51.3232 155.721C51.5146 155.648 51.7266 155.611 51.959 155.611C52.1914 155.611 52.401 155.648 52.5879 155.721C52.7747 155.794 52.9365 155.898 53.0732 156.035C53.2054 156.172 53.3079 156.338 53.3809 156.534C53.4538 156.726 53.4902 156.94 53.4902 157.177ZM53.2852 152.754C53.2852 152.968 53.2533 153.164 53.1895 153.342C53.1302 153.515 53.0436 153.663 52.9297 153.786C52.8158 153.914 52.6768 154.012 52.5127 154.08C52.3532 154.148 52.1732 154.183 51.9727 154.183C51.7676 154.183 51.583 154.148 51.4189 154.08C51.2549 154.012 51.1159 153.914 51.002 153.786C50.888 153.663 50.7992 153.515 50.7354 153.342C50.6761 153.164 50.6465 152.968 50.6465 152.754C50.6465 152.54 50.6761 152.346 50.7354 152.173C50.7946 151.995 50.8789 151.845 50.9883 151.722C51.1022 151.599 51.2389 151.505 51.3984 151.441C51.5625 151.378 51.7448 151.346 51.9453 151.346C52.1504 151.346 52.335 151.38 52.499 151.448C52.6631 151.517 52.8044 151.61 52.9229 151.729C53.0368 151.856 53.1257 152.007 53.1895 152.18C53.2533 152.353 53.2852 152.544 53.2852 152.754ZM64.1621 160V158.578H59.6572L61.7012 156.404C62.0065 156.085 62.2868 155.778 62.542 155.481C62.8018 155.181 63.0251 154.887 63.2119 154.6C63.3942 154.308 63.5355 154.014 63.6357 153.718C63.7406 153.422 63.793 153.112 63.793 152.788C63.793 152.364 63.7246 151.977 63.5879 151.626C63.4512 151.271 63.2529 150.965 62.9932 150.71C62.7288 150.459 62.403 150.263 62.0156 150.122C61.6283 149.981 61.1862 149.91 60.6895 149.91C60.1654 149.91 59.6891 149.994 59.2607 150.163C58.8324 150.332 58.4701 150.564 58.1738 150.86C57.8685 151.152 57.6338 151.494 57.4697 151.886C57.3057 152.273 57.2236 152.686 57.2236 153.123H59.001C59.001 152.845 59.0352 152.597 59.1035 152.378C59.1764 152.159 59.2812 151.975 59.418 151.824C59.5547 151.683 59.7233 151.574 59.9238 151.496C60.1289 151.419 60.3682 151.38 60.6416 151.38C60.8512 151.38 61.0426 151.416 61.2158 151.489C61.389 151.558 61.5394 151.656 61.667 151.783C61.79 151.915 61.8835 152.073 61.9473 152.255C62.0156 152.433 62.0498 152.638 62.0498 152.87C62.0498 153.03 62.0247 153.194 61.9746 153.362C61.929 153.526 61.8516 153.702 61.7422 153.889C61.6328 154.08 61.4893 154.292 61.3115 154.524C61.1338 154.752 60.915 155.007 60.6553 155.29L57.4287 158.783V160H64.1621ZM77.3711 154.237V155.618H78.3828C78.6517 155.618 78.8955 155.65 79.1143 155.714C79.333 155.773 79.5221 155.869 79.6816 156.001C79.832 156.129 79.9482 156.293 80.0303 156.493C80.1169 156.689 80.1602 156.926 80.1602 157.204C80.1602 157.441 80.1237 157.653 80.0508 157.84C79.9824 158.022 79.8799 158.175 79.7432 158.298C79.6019 158.435 79.4287 158.539 79.2236 158.612C79.0231 158.681 78.7952 158.715 78.54 158.715C78.3076 158.715 78.0934 158.681 77.8975 158.612C77.7061 158.544 77.542 158.446 77.4053 158.318C77.264 158.195 77.1546 158.049 77.0771 157.881C76.9997 157.708 76.9609 157.519 76.9609 157.313H75.1973C75.1973 157.783 75.2884 158.195 75.4707 158.551C75.653 158.902 75.8991 159.193 76.209 159.426C76.5189 159.663 76.8721 159.84 77.2686 159.959C77.6696 160.077 78.082 160.137 78.5059 160.137C78.9889 160.137 79.4401 160.073 79.8594 159.945C80.2786 159.813 80.6387 159.622 80.9395 159.371C81.2448 159.125 81.484 158.82 81.6572 158.455C81.8304 158.09 81.917 157.676 81.917 157.211C81.917 156.956 81.8851 156.712 81.8213 156.479C81.762 156.243 81.6686 156.021 81.541 155.816C81.4089 155.616 81.238 155.438 81.0283 155.283C80.8232 155.124 80.5771 154.994 80.29 154.894C80.5361 154.78 80.7503 154.643 80.9326 154.483C81.1195 154.324 81.2744 154.148 81.3975 153.957C81.5205 153.77 81.6117 153.574 81.6709 153.369C81.7347 153.16 81.7666 152.95 81.7666 152.74C81.7666 152.28 81.6868 151.874 81.5273 151.523C81.3724 151.168 81.1514 150.869 80.8643 150.628C80.5771 150.391 80.2331 150.213 79.832 150.095C79.431 149.972 78.9889 149.91 78.5059 149.91C78.0501 149.91 77.6263 149.979 77.2344 150.115C76.847 150.247 76.5098 150.432 76.2227 150.669C75.9355 150.915 75.71 151.204 75.5459 151.537C75.3864 151.87 75.3066 152.237 75.3066 152.638H77.0703C77.0703 152.437 77.1068 152.257 77.1797 152.098C77.2572 151.938 77.3643 151.801 77.501 151.688C77.6286 151.578 77.7812 151.494 77.959 151.435C78.1367 151.375 78.3304 151.346 78.54 151.346C78.7816 151.346 78.9935 151.378 79.1758 151.441C79.3626 151.505 79.5153 151.599 79.6338 151.722C79.7568 151.845 79.848 151.993 79.9072 152.166C79.971 152.339 80.0029 152.535 80.0029 152.754C80.0029 152.964 79.971 153.16 79.9072 153.342C79.8434 153.52 79.75 153.67 79.627 153.793C79.4948 153.934 79.3239 154.044 79.1143 154.121C78.9092 154.199 78.6654 154.237 78.3828 154.237H77.3711ZM89.9229 156.377V150.047H88.1182L83.873 156.712L83.9346 157.806H88.1523V160H89.9229V157.806H91.126V156.377H89.9229ZM85.6436 156.377L87.9678 152.761L88.1523 152.419V156.377H85.6436ZM93.54 155.078L94.9482 155.434C95.0303 155.352 95.1146 155.276 95.2012 155.208C95.2923 155.14 95.3903 155.08 95.4951 155.03C95.6045 154.98 95.7298 154.939 95.8711 154.907C96.0124 154.875 96.1787 154.859 96.3701 154.859C96.6572 154.859 96.9056 154.907 97.1152 155.003C97.3294 155.094 97.5094 155.222 97.6553 155.386C97.7965 155.554 97.9014 155.755 97.9697 155.987C98.0426 156.22 98.0791 156.473 98.0791 156.746C98.0791 157.029 98.0495 157.291 97.9902 157.532C97.9355 157.774 97.849 157.983 97.7305 158.161C97.6074 158.334 97.4502 158.471 97.2588 158.571C97.0674 158.667 96.8395 158.715 96.5752 158.715C96.1331 158.715 95.7708 158.592 95.4883 158.346C95.2103 158.095 95.0439 157.74 94.9893 157.279H93.2598C93.278 157.74 93.3828 158.147 93.5742 158.503C93.7656 158.858 94.014 159.157 94.3193 159.398C94.6201 159.64 94.9665 159.825 95.3584 159.952C95.7503 160.075 96.1582 160.137 96.582 160.137C97.138 160.137 97.6211 160.05 98.0312 159.877C98.4414 159.699 98.7809 159.458 99.0498 159.152C99.3187 158.852 99.5192 158.501 99.6514 158.1C99.7835 157.699 99.8496 157.27 99.8496 156.814C99.8496 156.295 99.7812 155.83 99.6445 155.42C99.5078 155.005 99.3118 154.654 99.0566 154.367C98.7969 154.08 98.4801 153.859 98.1064 153.704C97.7327 153.549 97.3089 153.472 96.835 153.472C96.4932 153.472 96.1901 153.515 95.9258 153.602C95.666 153.688 95.4587 153.777 95.3037 153.868L95.5498 151.578H99.5283V150.047H94.0938L93.54 155.078ZM107.24 149.979H107.021C106.219 149.979 105.511 150.108 104.896 150.368C104.28 150.628 103.765 150.993 103.351 151.462C102.895 151.968 102.562 152.572 102.353 153.273C102.143 153.971 102.038 154.718 102.038 155.516V156.22C102.038 156.771 102.116 157.288 102.271 157.771C102.43 158.25 102.66 158.665 102.961 159.016C103.248 159.362 103.601 159.635 104.021 159.836C104.444 160.036 104.921 160.137 105.449 160.137C105.955 160.137 106.411 160.05 106.816 159.877C107.222 159.699 107.566 159.458 107.849 159.152C108.131 158.847 108.345 158.487 108.491 158.072C108.642 157.658 108.717 157.211 108.717 156.732C108.717 156.29 108.66 155.867 108.546 155.461C108.432 155.055 108.257 154.698 108.02 154.388C107.783 154.082 107.486 153.839 107.131 153.656C106.78 153.474 106.365 153.383 105.887 153.383C105.654 153.383 105.436 153.41 105.23 153.465C105.03 153.52 104.845 153.59 104.677 153.677C104.499 153.768 104.34 153.87 104.198 153.984C104.062 154.098 103.938 154.215 103.829 154.333C103.866 153.914 103.961 153.529 104.116 153.178C104.276 152.822 104.492 152.517 104.766 152.262C105.035 152.011 105.365 151.817 105.757 151.681C106.153 151.539 106.611 151.469 107.131 151.469H107.24V149.979ZM105.401 154.812C105.652 154.812 105.873 154.862 106.064 154.962C106.26 155.062 106.424 155.199 106.557 155.372C106.693 155.55 106.796 155.759 106.864 156.001C106.933 156.238 106.967 156.493 106.967 156.767C106.967 157.049 106.93 157.309 106.857 157.546C106.789 157.783 106.689 157.986 106.557 158.154C106.42 158.327 106.256 158.464 106.064 158.564C105.873 158.66 105.659 158.708 105.422 158.708C105.194 158.708 104.982 158.66 104.786 158.564C104.59 158.464 104.419 158.318 104.273 158.127C104.128 157.936 104.014 157.696 103.932 157.409C103.85 157.122 103.809 156.789 103.809 156.411V155.878C103.877 155.728 103.961 155.589 104.062 155.461C104.162 155.333 104.276 155.224 104.403 155.133C104.545 155.028 104.7 154.948 104.868 154.894C105.037 154.839 105.215 154.812 105.401 154.812ZM126.554 151.031V150.047H119.615V151.503H124.694L120.764 160H122.623L126.554 151.031ZM135.223 152.686C135.223 152.234 135.145 151.838 134.99 151.496C134.835 151.154 134.619 150.865 134.341 150.628C134.063 150.391 133.735 150.213 133.356 150.095C132.978 149.972 132.568 149.91 132.126 149.91C131.679 149.91 131.267 149.972 130.889 150.095C130.515 150.213 130.194 150.391 129.925 150.628C129.651 150.865 129.437 151.154 129.282 151.496C129.132 151.838 129.057 152.234 129.057 152.686C129.057 152.932 129.089 153.166 129.152 153.39C129.221 153.613 129.316 153.818 129.439 154.005C129.553 154.183 129.695 154.347 129.863 154.497C130.032 154.643 130.221 154.768 130.431 154.873C130.185 154.987 129.964 155.126 129.768 155.29C129.576 155.45 129.41 155.63 129.269 155.83C129.127 156.035 129.018 156.261 128.94 156.507C128.868 156.753 128.831 157.013 128.831 157.286C128.831 157.751 128.915 158.161 129.084 158.517C129.257 158.872 129.492 159.168 129.788 159.405C130.084 159.647 130.433 159.829 130.834 159.952C131.24 160.075 131.677 160.137 132.146 160.137C132.607 160.137 133.037 160.075 133.438 159.952C133.84 159.829 134.19 159.647 134.491 159.405C134.783 159.168 135.013 158.872 135.182 158.517C135.355 158.161 135.441 157.751 135.441 157.286C135.441 156.949 135.384 156.637 135.271 156.35C135.157 156.058 134.997 155.798 134.792 155.57C134.664 155.429 134.519 155.301 134.354 155.188C134.195 155.069 134.022 154.966 133.835 154.88C134.013 154.789 134.174 154.684 134.32 154.565C134.471 154.442 134.603 154.31 134.717 154.169C134.876 153.964 134.999 153.736 135.086 153.485C135.177 153.235 135.223 152.968 135.223 152.686ZM133.664 157.177C133.664 157.418 133.625 157.635 133.548 157.826C133.475 158.013 133.372 158.173 133.24 158.305C133.108 158.437 132.949 158.539 132.762 158.612C132.575 158.681 132.37 158.715 132.146 158.715C131.914 158.715 131.704 158.683 131.518 158.619C131.331 158.551 131.174 158.455 131.046 158.332C130.905 158.2 130.795 158.038 130.718 157.847C130.645 157.651 130.608 157.427 130.608 157.177C130.608 156.94 130.643 156.726 130.711 156.534C130.784 156.338 130.889 156.172 131.025 156.035C131.153 155.898 131.31 155.794 131.497 155.721C131.688 155.648 131.9 155.611 132.133 155.611C132.365 155.611 132.575 155.648 132.762 155.721C132.949 155.794 133.11 155.898 133.247 156.035C133.379 156.172 133.482 156.338 133.555 156.534C133.628 156.726 133.664 156.94 133.664 157.177ZM133.459 152.754C133.459 152.968 133.427 153.164 133.363 153.342C133.304 153.515 133.217 153.663 133.104 153.786C132.99 153.914 132.851 154.012 132.687 154.08C132.527 154.148 132.347 154.183 132.146 154.183C131.941 154.183 131.757 154.148 131.593 154.08C131.429 154.012 131.29 153.914 131.176 153.786C131.062 153.663 130.973 153.515 130.909 153.342C130.85 153.164 130.82 152.968 130.82 152.754C130.82 152.54 130.85 152.346 130.909 152.173C130.968 151.995 131.053 151.845 131.162 151.722C131.276 151.599 131.413 151.505 131.572 151.441C131.736 151.378 131.919 151.346 132.119 151.346C132.324 151.346 132.509 151.38 132.673 151.448C132.837 151.517 132.978 151.61 133.097 151.729C133.211 151.856 133.299 152.007 133.363 152.18C133.427 152.353 133.459 152.544 133.459 152.754ZM139.229 158.571H139.1V160.068H139.236C140.102 160.068 140.845 159.938 141.465 159.679C142.089 159.414 142.597 159.052 142.989 158.592C143.427 158.081 143.739 157.482 143.926 156.794C144.117 156.106 144.213 155.368 144.213 154.579V153.964C144.213 153.381 144.135 152.836 143.98 152.33C143.83 151.824 143.609 151.391 143.317 151.031C143.035 150.68 142.691 150.407 142.285 150.211C141.88 150.01 141.417 149.91 140.897 149.91C140.387 149.91 139.929 150.004 139.523 150.19C139.122 150.373 138.783 150.623 138.505 150.942C138.222 151.257 138.006 151.628 137.855 152.057C137.71 152.48 137.637 152.932 137.637 153.41C137.637 153.866 137.696 154.297 137.814 154.702C137.938 155.108 138.122 155.461 138.368 155.762C138.605 156.067 138.904 156.309 139.264 156.486C139.624 156.664 140.043 156.753 140.521 156.753C140.749 156.753 140.959 156.732 141.15 156.691C141.346 156.65 141.522 156.593 141.677 156.521C141.827 156.452 141.964 156.375 142.087 156.288C142.21 156.197 142.322 156.099 142.422 155.994V156.028C142.381 156.402 142.294 156.746 142.162 157.061C142.03 157.375 141.834 157.648 141.574 157.881C141.314 158.104 140.991 158.275 140.604 158.394C140.221 158.512 139.763 158.571 139.229 158.571ZM140.918 155.372C140.663 155.372 140.439 155.317 140.248 155.208C140.057 155.099 139.897 154.953 139.77 154.771C139.642 154.588 139.546 154.376 139.482 154.135C139.423 153.889 139.394 153.636 139.394 153.376C139.394 153.103 139.428 152.845 139.496 152.604C139.564 152.357 139.662 152.139 139.79 151.947C139.913 151.765 140.068 151.619 140.255 151.51C140.442 151.4 140.654 151.346 140.891 151.346C141.109 151.346 141.312 151.396 141.499 151.496C141.69 151.592 141.857 151.738 141.998 151.934C142.139 152.13 142.249 152.371 142.326 152.658C142.408 152.945 142.449 153.28 142.449 153.663V154.285C142.39 154.44 142.31 154.584 142.21 154.716C142.114 154.848 142.003 154.962 141.875 155.058C141.738 155.158 141.59 155.235 141.431 155.29C141.271 155.345 141.1 155.372 140.918 155.372ZM153.251 156.206V153.841C153.251 153.198 153.176 152.633 153.025 152.146C152.875 151.653 152.661 151.241 152.383 150.908C152.105 150.58 151.765 150.332 151.364 150.163C150.963 149.99 150.51 149.903 150.004 149.903C149.507 149.903 149.058 149.99 148.657 150.163C148.261 150.332 147.924 150.58 147.646 150.908C147.363 151.241 147.146 151.653 146.996 152.146C146.85 152.633 146.777 153.198 146.777 153.841V156.206C146.777 156.849 146.853 157.416 147.003 157.908C147.153 158.396 147.37 158.804 147.652 159.132C147.93 159.469 148.27 159.722 148.671 159.891C149.072 160.059 149.521 160.144 150.018 160.144C150.523 160.144 150.975 160.059 151.371 159.891C151.772 159.717 152.112 159.465 152.39 159.132C152.668 158.804 152.88 158.396 153.025 157.908C153.176 157.416 153.251 156.849 153.251 156.206ZM148.555 155.509C148.555 155.372 148.555 155.263 148.555 155.181C148.555 155.099 148.555 154.96 148.555 154.764V153.54C148.555 153.153 148.587 152.815 148.65 152.528C148.714 152.241 148.814 152.009 148.951 151.831C149.07 151.667 149.215 151.544 149.389 151.462C149.566 151.38 149.771 151.339 150.004 151.339C150.218 151.339 150.41 151.373 150.578 151.441C150.747 151.505 150.888 151.605 151.002 151.742C151.143 151.906 151.25 152.12 151.323 152.385C151.401 152.645 151.449 152.957 151.467 153.321L148.555 155.509ZM151.474 156.493C151.474 156.885 151.439 157.227 151.371 157.519C151.307 157.806 151.207 158.043 151.07 158.229C150.952 158.394 150.804 158.517 150.626 158.599C150.453 158.676 150.25 158.715 150.018 158.715C149.781 158.715 149.571 158.672 149.389 158.585C149.211 158.494 149.063 158.359 148.944 158.182C148.83 158.022 148.742 157.826 148.678 157.594C148.618 157.357 148.58 157.083 148.562 156.773L151.474 154.6C151.474 154.727 151.474 154.841 151.474 154.941C151.474 155.037 151.474 155.151 151.474 155.283V156.493ZM169.174 160V150.047H169.071L164.854 151.585V153.137L167.39 152.214V160H169.174ZM179.969 160V158.578H175.464L177.508 156.404C177.813 156.085 178.093 155.778 178.349 155.481C178.608 155.181 178.832 154.887 179.019 154.6C179.201 154.308 179.342 154.014 179.442 153.718C179.547 153.422 179.6 153.112 179.6 152.788C179.6 152.364 179.531 151.977 179.395 151.626C179.258 151.271 179.06 150.965 178.8 150.71C178.535 150.459 178.21 150.263 177.822 150.122C177.435 149.981 176.993 149.91 176.496 149.91C175.972 149.91 175.496 149.994 175.067 150.163C174.639 150.332 174.277 150.564 173.98 150.86C173.675 151.152 173.44 151.494 173.276 151.886C173.112 152.273 173.03 152.686 173.03 153.123H174.808C174.808 152.845 174.842 152.597 174.91 152.378C174.983 152.159 175.088 151.975 175.225 151.824C175.361 151.683 175.53 151.574 175.73 151.496C175.936 151.419 176.175 151.38 176.448 151.38C176.658 151.38 176.849 151.416 177.022 151.489C177.196 151.558 177.346 151.656 177.474 151.783C177.597 151.915 177.69 152.073 177.754 152.255C177.822 152.433 177.856 152.638 177.856 152.87C177.856 153.03 177.831 153.194 177.781 153.362C177.736 153.526 177.658 153.702 177.549 153.889C177.439 154.08 177.296 154.292 177.118 154.524C176.94 154.752 176.722 155.007 176.462 155.29L173.235 158.783V160H179.969ZM188.672 152.686C188.672 152.234 188.594 151.838 188.439 151.496C188.285 151.154 188.068 150.865 187.79 150.628C187.512 150.391 187.184 150.213 186.806 150.095C186.427 149.972 186.017 149.91 185.575 149.91C185.129 149.91 184.716 149.972 184.338 150.095C183.964 150.213 183.643 150.391 183.374 150.628C183.101 150.865 182.886 151.154 182.731 151.496C182.581 151.838 182.506 152.234 182.506 152.686C182.506 152.932 182.538 153.166 182.602 153.39C182.67 153.613 182.766 153.818 182.889 154.005C183.003 154.183 183.144 154.347 183.312 154.497C183.481 154.643 183.67 154.768 183.88 154.873C183.634 154.987 183.413 155.126 183.217 155.29C183.025 155.45 182.859 155.63 182.718 155.83C182.576 156.035 182.467 156.261 182.39 156.507C182.317 156.753 182.28 157.013 182.28 157.286C182.28 157.751 182.365 158.161 182.533 158.517C182.706 158.872 182.941 159.168 183.237 159.405C183.534 159.647 183.882 159.829 184.283 159.952C184.689 160.075 185.126 160.137 185.596 160.137C186.056 160.137 186.487 160.075 186.888 159.952C187.289 159.829 187.64 159.647 187.94 159.405C188.232 159.168 188.462 158.872 188.631 158.517C188.804 158.161 188.891 157.751 188.891 157.286C188.891 156.949 188.834 156.637 188.72 156.35C188.606 156.058 188.446 155.798 188.241 155.57C188.114 155.429 187.968 155.301 187.804 155.188C187.644 155.069 187.471 154.966 187.284 154.88C187.462 154.789 187.624 154.684 187.77 154.565C187.92 154.442 188.052 154.31 188.166 154.169C188.326 153.964 188.449 153.736 188.535 153.485C188.626 153.235 188.672 152.968 188.672 152.686ZM187.113 157.177C187.113 157.418 187.075 157.635 186.997 157.826C186.924 158.013 186.822 158.173 186.689 158.305C186.557 158.437 186.398 158.539 186.211 158.612C186.024 158.681 185.819 158.715 185.596 158.715C185.363 158.715 185.154 158.683 184.967 158.619C184.78 158.551 184.623 158.455 184.495 158.332C184.354 158.2 184.244 158.038 184.167 157.847C184.094 157.651 184.058 157.427 184.058 157.177C184.058 156.94 184.092 156.726 184.16 156.534C184.233 156.338 184.338 156.172 184.475 156.035C184.602 155.898 184.759 155.794 184.946 155.721C185.138 155.648 185.35 155.611 185.582 155.611C185.814 155.611 186.024 155.648 186.211 155.721C186.398 155.794 186.56 155.898 186.696 156.035C186.828 156.172 186.931 156.338 187.004 156.534C187.077 156.726 187.113 156.94 187.113 157.177ZM186.908 152.754C186.908 152.968 186.876 153.164 186.812 153.342C186.753 153.515 186.667 153.663 186.553 153.786C186.439 153.914 186.3 154.012 186.136 154.08C185.976 154.148 185.796 154.183 185.596 154.183C185.391 154.183 185.206 154.148 185.042 154.08C184.878 154.012 184.739 153.914 184.625 153.786C184.511 153.663 184.422 153.515 184.358 153.342C184.299 153.164 184.27 152.968 184.27 152.754C184.27 152.54 184.299 152.346 184.358 152.173C184.418 151.995 184.502 151.845 184.611 151.722C184.725 151.599 184.862 151.505 185.021 151.441C185.186 151.378 185.368 151.346 185.568 151.346C185.773 151.346 185.958 151.38 186.122 151.448C186.286 151.517 186.427 151.61 186.546 151.729C186.66 151.856 186.749 152.007 186.812 152.18C186.876 152.353 186.908 152.544 186.908 152.754ZM192.679 158.571H192.549V160.068H192.686C193.551 160.068 194.294 159.938 194.914 159.679C195.538 159.414 196.047 159.052 196.438 158.592C196.876 158.081 197.188 157.482 197.375 156.794C197.566 156.106 197.662 155.368 197.662 154.579V153.964C197.662 153.381 197.585 152.836 197.43 152.33C197.279 151.824 197.058 151.391 196.767 151.031C196.484 150.68 196.14 150.407 195.734 150.211C195.329 150.01 194.866 149.91 194.347 149.91C193.836 149.91 193.378 150.004 192.973 150.19C192.572 150.373 192.232 150.623 191.954 150.942C191.672 151.257 191.455 151.628 191.305 152.057C191.159 152.48 191.086 152.932 191.086 153.41C191.086 153.866 191.145 154.297 191.264 154.702C191.387 155.108 191.571 155.461 191.817 155.762C192.054 156.067 192.353 156.309 192.713 156.486C193.073 156.664 193.492 156.753 193.971 156.753C194.199 156.753 194.408 156.732 194.6 156.691C194.796 156.65 194.971 156.593 195.126 156.521C195.276 156.452 195.413 156.375 195.536 156.288C195.659 156.197 195.771 156.099 195.871 155.994V156.028C195.83 156.402 195.743 156.746 195.611 157.061C195.479 157.375 195.283 157.648 195.023 157.881C194.764 158.104 194.44 158.275 194.053 158.394C193.67 158.512 193.212 158.571 192.679 158.571ZM194.367 155.372C194.112 155.372 193.889 155.317 193.697 155.208C193.506 155.099 193.346 154.953 193.219 154.771C193.091 154.588 192.995 154.376 192.932 154.135C192.872 153.889 192.843 153.636 192.843 153.376C192.843 153.103 192.877 152.845 192.945 152.604C193.014 152.357 193.112 152.139 193.239 151.947C193.362 151.765 193.517 151.619 193.704 151.51C193.891 151.4 194.103 151.346 194.34 151.346C194.559 151.346 194.761 151.396 194.948 151.496C195.14 151.592 195.306 151.738 195.447 151.934C195.589 152.13 195.698 152.371 195.775 152.658C195.857 152.945 195.898 153.28 195.898 153.663V154.285C195.839 154.44 195.759 154.584 195.659 154.716C195.563 154.848 195.452 154.962 195.324 155.058C195.188 155.158 195.039 155.235 194.88 155.29C194.72 155.345 194.549 155.372 194.367 155.372Z" fill="white"/>
</g>
<g opacity="0.9" filter="url(#filter2_d_617_2740)">
<path d="M35.8242 129.819L36.4463 132H38.3057L35.1201 122.047H33.5205L30.2666 132H32.1328L32.7617 129.819H35.8242ZM33.2061 128.295L34.3135 124.494L35.3936 128.295H33.2061ZM41.793 130.551V122.047H40.002V132H46.4961V130.551H41.793ZM48.7119 132H51.3096C51.7607 132 52.1823 131.945 52.5742 131.836C52.9707 131.727 53.3307 131.569 53.6543 131.364C53.9368 131.187 54.1966 130.968 54.4336 130.708C54.6706 130.444 54.8757 130.154 55.0488 129.84C55.2266 129.503 55.3633 129.131 55.459 128.726C55.5547 128.315 55.6025 127.885 55.6025 127.434V126.627C55.6025 126.153 55.5501 125.706 55.4453 125.287C55.3451 124.868 55.1992 124.485 55.0078 124.139C54.8346 123.829 54.625 123.546 54.3789 123.291C54.1374 123.036 53.8617 122.822 53.5518 122.648C53.2282 122.457 52.8727 122.309 52.4854 122.204C52.098 122.099 51.681 122.047 51.2344 122.047H48.7119V132ZM50.5098 123.496H51.2344C51.485 123.496 51.7152 123.526 51.9248 123.585C52.139 123.64 52.3327 123.717 52.5059 123.817C52.7383 123.95 52.9388 124.123 53.1074 124.337C53.2806 124.547 53.4196 124.786 53.5244 125.055C53.611 125.278 53.6748 125.522 53.7158 125.786C53.7614 126.046 53.7865 126.322 53.791 126.613V127.434C53.7865 127.739 53.7614 128.024 53.7158 128.288C53.6748 128.552 53.6133 128.794 53.5312 129.013C53.431 129.272 53.3057 129.5 53.1553 129.696C53.0094 129.892 52.8408 130.054 52.6494 130.182C52.4671 130.305 52.2643 130.4 52.041 130.469C51.8177 130.533 51.5739 130.564 51.3096 130.564H50.5098V123.496ZM64.5312 127.721V126.34C64.5267 125.907 64.4857 125.494 64.4082 125.103C64.3307 124.711 64.2168 124.346 64.0664 124.009C63.9251 123.703 63.7542 123.423 63.5537 123.168C63.3532 122.908 63.1208 122.687 62.8564 122.505C62.5921 122.318 62.2913 122.172 61.9541 122.067C61.6214 121.963 61.2614 121.91 60.874 121.91C60.4867 121.91 60.1312 121.963 59.8076 122.067C59.484 122.168 59.1924 122.311 58.9326 122.498C58.6683 122.689 58.4359 122.917 58.2354 123.182C58.0394 123.441 57.873 123.731 57.7363 124.05C57.5951 124.382 57.488 124.743 57.415 125.13C57.3467 125.517 57.3102 125.921 57.3057 126.34V127.721C57.3102 128.122 57.3444 128.507 57.4082 128.876C57.472 129.241 57.5677 129.582 57.6953 129.901C57.832 130.243 58.0029 130.553 58.208 130.831C58.4131 131.104 58.6455 131.339 58.9053 131.535C59.1742 131.727 59.4727 131.875 59.8008 131.979C60.1289 132.084 60.4889 132.137 60.8809 132.137C61.2546 132.137 61.6009 132.089 61.9199 131.993C62.2389 131.897 62.5306 131.763 62.7949 131.59C63.0775 131.398 63.3281 131.166 63.5469 130.893C63.7656 130.615 63.9479 130.309 64.0938 129.977C64.235 129.648 64.3421 129.295 64.415 128.917C64.488 128.534 64.5267 128.135 64.5312 127.721ZM62.7266 126.326V127.721C62.7266 127.967 62.7129 128.208 62.6855 128.445C62.6628 128.678 62.624 128.894 62.5693 129.095C62.5055 129.345 62.4189 129.571 62.3096 129.771C62.2048 129.972 62.0749 130.141 61.9199 130.277C61.7878 130.4 61.6351 130.494 61.4619 130.558C61.2887 130.621 61.0951 130.653 60.8809 130.653C60.6576 130.653 60.4593 130.619 60.2861 130.551C60.1175 130.482 59.9694 130.387 59.8418 130.264C59.7005 130.132 59.5798 129.963 59.4795 129.758C59.3792 129.548 59.3018 129.323 59.2471 129.081C59.1969 128.876 59.1605 128.66 59.1377 128.432C59.1195 128.199 59.1104 127.962 59.1104 127.721V126.326C59.1104 126.076 59.1217 125.832 59.1445 125.595C59.1673 125.358 59.2038 125.134 59.2539 124.925C59.3132 124.67 59.3952 124.442 59.5 124.241C59.6094 124.041 59.7438 123.872 59.9033 123.735C60.0264 123.631 60.1676 123.551 60.3271 123.496C60.4867 123.437 60.6689 123.407 60.874 123.407C61.0837 123.407 61.2705 123.439 61.4346 123.503C61.6032 123.562 61.7536 123.644 61.8857 123.749C62.0452 123.886 62.1797 124.054 62.2891 124.255C62.403 124.455 62.4941 124.679 62.5625 124.925C62.6217 125.134 62.6628 125.358 62.6855 125.595C62.7129 125.832 62.7266 126.076 62.7266 126.326ZM77.6514 122.047H75.4365V132H77.0908V128.842L77.002 124.467L78.2803 128.828H79.1826L80.6045 124.289L80.5156 128.842V132H82.1699V122.047H79.9551L78.7383 126.046L77.6514 122.047ZM91.2559 127.721V126.34C91.2513 125.907 91.2103 125.494 91.1328 125.103C91.0553 124.711 90.9414 124.346 90.791 124.009C90.6497 123.703 90.4788 123.423 90.2783 123.168C90.0778 122.908 89.8454 122.687 89.5811 122.505C89.3167 122.318 89.016 122.172 88.6787 122.067C88.346 121.963 87.986 121.91 87.5986 121.91C87.2113 121.91 86.8558 121.963 86.5322 122.067C86.2087 122.168 85.917 122.311 85.6572 122.498C85.3929 122.689 85.1605 122.917 84.96 123.182C84.764 123.441 84.5977 123.731 84.4609 124.05C84.3197 124.382 84.2126 124.743 84.1396 125.13C84.0713 125.517 84.0348 125.921 84.0303 126.34V127.721C84.0348 128.122 84.069 128.507 84.1328 128.876C84.1966 129.241 84.2923 129.582 84.4199 129.901C84.5566 130.243 84.7275 130.553 84.9326 130.831C85.1377 131.104 85.3701 131.339 85.6299 131.535C85.8988 131.727 86.1973 131.875 86.5254 131.979C86.8535 132.084 87.2135 132.137 87.6055 132.137C87.9792 132.137 88.3255 132.089 88.6445 131.993C88.9635 131.897 89.2552 131.763 89.5195 131.59C89.8021 131.398 90.0527 131.166 90.2715 130.893C90.4902 130.615 90.6725 130.309 90.8184 129.977C90.9596 129.648 91.0667 129.295 91.1396 128.917C91.2126 128.534 91.2513 128.135 91.2559 127.721ZM89.4512 126.326V127.721C89.4512 127.967 89.4375 128.208 89.4102 128.445C89.3874 128.678 89.3486 128.894 89.2939 129.095C89.2301 129.345 89.1436 129.571 89.0342 129.771C88.9294 129.972 88.7995 130.141 88.6445 130.277C88.5124 130.4 88.3597 130.494 88.1865 130.558C88.0133 130.621 87.8197 130.653 87.6055 130.653C87.3822 130.653 87.1839 130.619 87.0107 130.551C86.8421 130.482 86.694 130.387 86.5664 130.264C86.4251 130.132 86.3044 129.963 86.2041 129.758C86.1038 129.548 86.0264 129.323 85.9717 129.081C85.9215 128.876 85.8851 128.66 85.8623 128.432C85.8441 128.199 85.835 127.962 85.835 127.721V126.326C85.835 126.076 85.8464 125.832 85.8691 125.595C85.8919 125.358 85.9284 125.134 85.9785 124.925C86.0378 124.67 86.1198 124.442 86.2246 124.241C86.334 124.041 86.4684 123.872 86.6279 123.735C86.751 123.631 86.8923 123.551 87.0518 123.496C87.2113 123.437 87.3936 123.407 87.5986 123.407C87.8083 123.407 87.9951 123.439 88.1592 123.503C88.3278 123.562 88.4782 123.644 88.6104 123.749C88.7699 123.886 88.9043 124.054 89.0137 124.255C89.1276 124.455 89.2188 124.679 89.2871 124.925C89.3464 125.134 89.3874 125.358 89.4102 125.595C89.4375 125.832 89.4512 126.076 89.4512 126.326ZM96.6777 128.213L98.5645 132H100.472V131.911L98.3389 127.775C98.6123 127.652 98.8584 127.507 99.0771 127.338C99.3005 127.169 99.4941 126.971 99.6582 126.743C99.8132 126.524 99.9339 126.274 100.021 125.991C100.107 125.709 100.15 125.394 100.15 125.048C100.15 124.551 100.064 124.116 99.8906 123.742C99.722 123.368 99.4805 123.059 99.166 122.812C98.847 122.562 98.4688 122.373 98.0312 122.245C97.5938 122.113 97.1084 122.047 96.5752 122.047H93.3213V132H95.1055V128.213H96.6777ZM95.1055 126.757V123.496H96.5752C96.8486 123.496 97.0924 123.53 97.3066 123.599C97.5208 123.667 97.7054 123.765 97.8604 123.893C98.0244 124.029 98.1475 124.205 98.2295 124.419C98.3161 124.629 98.3594 124.87 98.3594 125.144C98.3594 125.381 98.3229 125.595 98.25 125.786C98.1816 125.973 98.0814 126.132 97.9492 126.265C97.7943 126.424 97.6006 126.547 97.3682 126.634C97.1403 126.716 96.8805 126.757 96.5889 126.757H95.1055ZM107.09 129.819L107.712 132H109.571L106.386 122.047H104.786L101.532 132H103.398L104.027 129.819H107.09ZM104.472 128.295L105.579 124.494L106.659 128.295H104.472ZM126.854 128.91H125.07C125.048 129.211 124.993 129.473 124.906 129.696C124.82 129.92 124.703 130.104 124.558 130.25C124.412 130.4 124.234 130.512 124.024 130.585C123.815 130.653 123.576 130.688 123.307 130.688C123.092 130.688 122.901 130.66 122.732 130.605C122.568 130.551 122.418 130.471 122.281 130.366C122.158 130.266 122.049 130.143 121.953 129.997C121.862 129.851 121.785 129.689 121.721 129.512C121.634 129.275 121.57 129.006 121.529 128.705C121.488 128.404 121.468 128.072 121.468 127.707V126.34C121.468 126.057 121.481 125.788 121.509 125.533C121.536 125.278 121.582 125.043 121.646 124.829C121.718 124.56 121.819 124.323 121.946 124.118C122.074 123.909 122.229 123.744 122.411 123.626C122.53 123.539 122.664 123.473 122.814 123.428C122.969 123.382 123.136 123.359 123.313 123.359C123.61 123.359 123.863 123.4 124.072 123.482C124.286 123.564 124.464 123.685 124.605 123.845C124.747 124.004 124.854 124.2 124.927 124.433C125.004 124.66 125.054 124.923 125.077 125.219H126.861C126.811 124.708 126.7 124.248 126.526 123.838C126.353 123.428 126.118 123.081 125.822 122.799C125.526 122.512 125.168 122.291 124.749 122.136C124.33 121.981 123.851 121.903 123.313 121.903C122.935 121.903 122.584 121.953 122.261 122.054C121.937 122.149 121.643 122.288 121.379 122.471C121.083 122.676 120.821 122.924 120.593 123.216C120.369 123.507 120.187 123.838 120.046 124.207C119.918 124.521 119.823 124.861 119.759 125.226C119.695 125.586 119.663 125.962 119.663 126.354V127.707C119.663 128.122 119.697 128.518 119.766 128.896C119.834 129.275 119.934 129.623 120.066 129.942C120.199 130.266 120.363 130.562 120.559 130.831C120.759 131.095 120.987 131.323 121.242 131.515C121.516 131.715 121.826 131.87 122.172 131.979C122.518 132.089 122.896 132.144 123.307 132.144C123.817 132.144 124.282 132.068 124.701 131.918C125.12 131.763 125.483 131.544 125.788 131.262C126.093 130.979 126.337 130.64 126.52 130.243C126.702 129.847 126.813 129.402 126.854 128.91ZM130.984 130.961C130.984 131.294 131.094 131.574 131.312 131.802C131.536 132.025 131.841 132.137 132.229 132.137C132.616 132.137 132.921 132.025 133.145 131.802C133.372 131.578 133.486 131.298 133.486 130.961C133.486 130.619 133.375 130.334 133.151 130.106C132.933 129.874 132.625 129.758 132.229 129.758C131.832 129.758 131.524 129.874 131.306 130.106C131.091 130.339 130.984 130.624 130.984 130.961Z" fill="white"/>
</g>
<path d="M256.416 27.9742H268.583V49.8367H256.416V27.9742Z" fill="#FF5F00"/>
<path d="M248.189 60.8409V58.5234C248.189 57.6348 247.648 57.0556 246.721 57.0556C246.258 57.0556 245.756 57.2101 245.408 57.7123C245.138 57.2873 244.751 57.0556 244.172 57.0556C243.786 57.0556 243.4 57.1714 243.09 57.5963V57.1328H242.279V60.8409H243.09V58.7937C243.09 58.1372 243.438 57.828 243.979 57.828C244.52 57.828 244.79 58.1757 244.79 58.7937V60.8409H245.601V58.7937C245.601 58.1372 245.987 57.828 246.49 57.828C247.03 57.828 247.301 58.1757 247.301 58.7937V60.8409H248.189V60.8409ZM260.202 57.1328H258.889V56.0127H258.078V57.1328H257.344V57.8666H258.077V59.5663C258.077 60.4162 258.425 60.9182 259.352 60.9182C259.7 60.9182 260.086 60.8024 260.357 60.6479L260.125 59.9525C259.893 60.107 259.623 60.1457 259.429 60.1457C259.043 60.1457 258.889 59.914 258.889 59.5276V57.8666H260.202V57.1328V57.1328ZM267.077 57.0554C266.614 57.0554 266.305 57.2873 266.112 57.5963V57.1328H265.301V60.8409H266.112V58.7551C266.112 58.1372 266.382 57.7895 266.884 57.7895C267.039 57.7895 267.232 57.8282 267.386 57.8668L267.618 57.0943C267.464 57.0556 267.232 57.0556 267.077 57.0556V57.0554ZM256.687 57.4418C256.301 57.1714 255.76 57.0556 255.18 57.0556C254.254 57.0556 253.636 57.5191 253.636 58.253C253.636 58.8711 254.099 59.2186 254.91 59.3346L255.296 59.3733C255.721 59.4503 255.953 59.5663 255.953 59.7595C255.953 60.0298 255.644 60.223 255.103 60.223C254.562 60.223 254.138 60.0298 253.867 59.8367L253.481 60.4547C253.906 60.7637 254.485 60.9182 255.064 60.9182C256.146 60.9182 256.764 60.4162 256.764 59.7208C256.764 59.0641 256.262 58.7164 255.489 58.6007L255.103 58.562C254.756 58.5232 254.485 58.4462 254.485 58.2144C254.485 57.944 254.756 57.7895 255.18 57.7895C255.644 57.7895 256.108 57.9825 256.339 58.0985L256.687 57.4418V57.4418ZM278.241 57.0556C277.777 57.0556 277.468 57.2873 277.275 57.5963V57.1328H276.464V60.8409H277.275V58.7551C277.275 58.1372 277.545 57.7895 278.047 57.7895C278.202 57.7895 278.395 57.8282 278.549 57.8668L278.781 57.0943C278.627 57.0556 278.395 57.0556 278.241 57.0556V57.0556ZM267.889 58.9869C267.889 60.107 268.661 60.9182 269.859 60.9182C270.399 60.9182 270.785 60.8024 271.172 60.4934L270.785 59.8367C270.477 60.0685 270.168 60.1843 269.82 60.1843C269.163 60.1843 268.7 59.7208 268.7 58.9869C268.7 58.2917 269.163 57.828 269.82 57.7895C270.168 57.7895 270.477 57.9053 270.785 58.1372L271.172 57.4805C270.785 57.1714 270.399 57.0556 269.859 57.0556C268.661 57.0556 267.889 57.8668 267.889 58.9869ZM275.382 58.9869V57.1328H274.571V57.5963C274.301 57.2488 273.914 57.0556 273.412 57.0556C272.369 57.0556 271.558 57.8668 271.558 58.9869C271.558 60.107 272.369 60.9182 273.412 60.9182C273.953 60.9182 274.339 60.7251 274.571 60.3774V60.8409H275.382V58.9869V58.9869ZM272.408 58.9869C272.408 58.3302 272.833 57.7895 273.528 57.7895C274.185 57.7895 274.648 58.2917 274.648 58.9869C274.648 59.6435 274.185 60.1843 273.528 60.1843C272.833 60.1455 272.408 59.6435 272.408 58.9869V58.9869ZM262.713 57.0556C261.631 57.0556 260.859 57.828 260.859 58.9869C260.859 60.1457 261.631 60.9182 262.751 60.9182C263.292 60.9182 263.833 60.7637 264.258 60.4162L263.871 59.8367C263.562 60.0685 263.176 60.223 262.79 60.223C262.288 60.223 261.786 59.9912 261.67 59.3344H264.412V59.0256C264.451 57.828 263.756 57.0556 262.713 57.0556H262.713ZM262.713 57.7508C263.215 57.7508 263.563 58.06 263.64 58.6394H261.708C261.786 58.1372 262.133 57.7508 262.713 57.7508ZM282.837 58.9869V55.665H282.026V57.5963C281.755 57.2488 281.369 57.0556 280.867 57.0556C279.824 57.0556 279.013 57.8668 279.013 58.9869C279.013 60.107 279.824 60.9182 280.867 60.9182C281.408 60.9182 281.794 60.7251 282.026 60.3774V60.8409H282.837V58.9869V58.9869ZM279.863 58.9869C279.863 58.3302 280.288 57.7895 280.983 57.7895C281.64 57.7895 282.103 58.2917 282.103 58.9869C282.103 59.6435 281.64 60.1843 280.983 60.1843C280.288 60.1455 279.863 59.6435 279.863 58.9869V58.9869ZM252.747 58.9869V57.1328H251.936V57.5963C251.665 57.2488 251.279 57.0556 250.777 57.0556C249.734 57.0556 248.923 57.8668 248.923 58.9869C248.923 60.107 249.734 60.9182 250.777 60.9182C251.318 60.9182 251.704 60.7251 251.936 60.3774V60.8409H252.747V58.9869V58.9869ZM249.734 58.9869C249.734 58.3302 250.159 57.7895 250.854 57.7895C251.511 57.7895 251.975 58.2917 251.975 58.9869C251.975 59.6435 251.511 60.1843 250.854 60.1843C250.159 60.1455 249.734 59.6435 249.734 58.9869V58.9869Z" fill="white"/>
<path d="M257.189 38.9055C257.189 34.4635 259.275 30.5236 262.48 27.9742C260.124 26.1201 257.15 25 253.906 25C246.219 25 240 31.2188 240 38.9055C240 46.5921 246.219 52.811 253.906 52.811C257.15 52.811 260.124 51.6909 262.48 49.8367C259.275 47.326 257.189 43.3475 257.189 38.9055V38.9055Z" fill="#EB001B"/>
<path d="M285 38.9055C285 46.5921 278.781 52.811 271.094 52.811C267.85 52.811 264.876 51.6909 262.52 49.8367C265.764 47.2874 267.811 43.3475 267.811 38.9055C267.811 34.4635 265.725 30.5236 262.52 27.9742C264.876 26.1201 267.85 25 271.094 25C278.781 25 285 31.2575 285 38.9055H285Z" fill="#F79E1B"/>
<path opacity="0.54" d="M35.838 32.402C36.6873 32.402 37.462 32.5653 38.162 32.892C38.862 33.2187 39.45 33.6807 39.926 34.278C40.402 34.866 40.7287 35.5473 40.906 36.322H39.016C38.792 35.566 38.4093 34.9873 37.868 34.586C37.3267 34.1847 36.6547 33.984 35.852 33.984C35.1613 33.984 34.55 34.152 34.018 34.488C33.4953 34.8147 33.0893 35.2673 32.8 35.846C32.52 36.4247 32.38 37.0733 32.38 37.792C32.38 38.52 32.52 39.1733 32.8 39.752C33.0893 40.3307 33.4953 40.788 34.018 41.124C34.55 41.4507 35.1613 41.614 35.852 41.614C36.6547 41.614 37.3267 41.4133 37.868 41.012C38.4187 40.6013 38.8013 40.018 39.016 39.262H40.906C40.7287 40.046 40.402 40.732 39.926 41.32C39.4593 41.908 38.8713 42.3653 38.162 42.692C37.462 43.0187 36.6873 43.182 35.838 43.182C34.8113 43.182 33.892 42.9487 33.08 42.482C32.268 42.006 31.6333 41.3573 31.176 40.536C30.728 39.7147 30.504 38.8 30.504 37.792C30.504 36.784 30.728 35.8693 31.176 35.048C31.6333 34.2267 32.268 33.5827 33.08 33.116C33.892 32.64 34.8113 32.402 35.838 32.402ZM42.1368 39.234C42.1368 38.478 42.3048 37.8013 42.6408 37.204C42.9861 36.5973 43.4575 36.126 44.0548 35.79C44.6615 35.454 45.3475 35.286 46.1128 35.286C46.8781 35.286 47.5595 35.454 48.1568 35.79C48.7635 36.126 49.2348 36.5973 49.5708 37.204C49.9161 37.8013 50.0888 38.478 50.0888 39.234C50.0888 39.99 49.9161 40.6713 49.5708 41.278C49.2348 41.8753 48.7635 42.342 48.1568 42.678C47.5595 43.014 46.8781 43.182 46.1128 43.182C45.3475 43.182 44.6615 43.014 44.0548 42.678C43.4575 42.342 42.9861 41.8753 42.6408 41.278C42.3048 40.6713 42.1368 39.99 42.1368 39.234ZM43.8728 39.234C43.8728 39.962 44.0781 40.564 44.4888 41.04C44.8995 41.5067 45.4408 41.74 46.1128 41.74C46.7848 41.74 47.3261 41.5067 47.7368 41.04C48.1475 40.564 48.3528 39.962 48.3528 39.234C48.3528 38.506 48.1475 37.9087 47.7368 37.442C47.3261 36.966 46.7848 36.728 46.1128 36.728C45.4408 36.728 44.8995 36.966 44.4888 37.442C44.0781 37.9087 43.8728 38.506 43.8728 39.234ZM51.2013 39.234C51.2013 38.478 51.3693 37.8013 51.7052 37.204C52.0506 36.5973 52.5219 36.126 53.1193 35.79C53.7259 35.454 54.4119 35.286 55.1773 35.286C55.9426 35.286 56.6239 35.454 57.2213 35.79C57.8279 36.126 58.2993 36.5973 58.6353 37.204C58.9806 37.8013 59.1533 38.478 59.1533 39.234C59.1533 39.99 58.9806 40.6713 58.6353 41.278C58.2993 41.8753 57.8279 42.342 57.2213 42.678C56.6239 43.014 55.9426 43.182 55.1773 43.182C54.4119 43.182 53.7259 43.014 53.1193 42.678C52.5219 42.342 52.0506 41.8753 51.7052 41.278C51.3693 40.6713 51.2013 39.99 51.2013 39.234ZM52.9373 39.234C52.9373 39.962 53.1426 40.564 53.5533 41.04C53.9639 41.5067 54.5053 41.74 55.1773 41.74C55.8493 41.74 56.3906 41.5067 56.8013 41.04C57.2119 40.564 57.4173 39.962 57.4173 39.234C57.4173 38.506 57.2119 37.9087 56.8013 37.442C56.3906 36.966 55.8493 36.728 55.1773 36.728C54.5053 36.728 53.9639 36.966 53.5533 37.442C53.1426 37.9087 52.9373 38.506 52.9373 39.234ZM62.2883 35.468V36.476C62.5309 36.0933 62.8763 35.7993 63.3243 35.594C63.7723 35.3887 64.2343 35.286 64.7103 35.286C65.3636 35.286 65.9656 35.454 66.5163 35.79C67.0669 36.1167 67.5056 36.5833 67.8323 37.19C68.1589 37.7873 68.3223 38.4687 68.3223 39.234C68.3223 39.9993 68.1589 40.6853 67.8323 41.292C67.5056 41.8893 67.0669 42.356 66.5163 42.692C65.9656 43.0187 65.3636 43.182 64.7103 43.182C64.2343 43.182 63.7723 43.0793 63.3243 42.874C62.8763 42.6687 62.5309 42.3747 62.2883 41.992V45.73H60.5803V35.468H62.2883ZM64.3883 36.672C63.9683 36.672 63.5903 36.7793 63.2543 36.994C62.9276 37.1993 62.6663 37.498 62.4703 37.89C62.2836 38.2727 62.1903 38.7207 62.1903 39.234C62.1903 39.7473 62.2836 40.2 62.4703 40.592C62.6663 40.9747 62.9276 41.2733 63.2543 41.488C63.5903 41.6933 63.9683 41.796 64.3883 41.796C65.0229 41.796 65.5409 41.5627 65.9423 41.096C66.3529 40.6293 66.5583 40.0087 66.5583 39.234C66.5583 38.4593 66.3529 37.8387 65.9423 37.372C65.5409 36.9053 65.0229 36.672 64.3883 36.672ZM70.486 40.746C70.822 40.746 71.1067 40.8627 71.34 41.096C71.5827 41.3293 71.704 41.6187 71.704 41.964C71.704 42.3093 71.5827 42.5987 71.34 42.832C71.1067 43.0653 70.822 43.182 70.486 43.182C70.1407 43.182 69.8514 43.0653 69.618 42.832C69.3847 42.5987 69.268 42.3093 69.268 41.964C69.268 41.6187 69.3847 41.3293 69.618 41.096C69.8514 40.8627 70.1407 40.746 70.486 40.746ZM80.1704 32.57C81.3744 32.57 82.4058 32.794 83.2644 33.242C84.1324 33.69 84.7858 34.3107 85.2244 35.104C85.6724 35.888 85.8964 36.7793 85.8964 37.778C85.8964 38.7767 85.6724 39.6727 85.2244 40.466C84.7764 41.25 84.1184 41.8707 83.2504 42.328C82.3918 42.776 81.3558 43 80.1424 43H76.8104V32.57H80.1704ZM78.5884 41.53H80.2264C81.0198 41.53 81.7011 41.3713 82.2704 41.054C82.8398 40.7273 83.2738 40.2793 83.5724 39.71C83.8711 39.1407 84.0204 38.4967 84.0204 37.778C84.0204 37.0593 83.8711 36.42 83.5724 35.86C83.2738 35.2907 82.8398 34.8473 82.2704 34.53C81.7011 34.2033 81.0198 34.04 80.2264 34.04H78.5884V41.53ZM89.7132 43.182C89.1812 43.182 88.7145 43.0793 88.3132 42.874C87.9212 42.6593 87.6178 42.3793 87.4032 42.034C87.1978 41.6793 87.0952 41.3013 87.0952 40.9C87.0952 40.172 87.3892 39.626 87.9772 39.262C88.5652 38.898 89.4238 38.6227 90.5532 38.436C91.1038 38.3427 91.4772 38.24 91.6732 38.128C91.8692 38.0067 91.9672 37.8153 91.9672 37.554C91.9672 37.2273 91.8412 36.9753 91.5892 36.798C91.3372 36.6113 90.9965 36.518 90.5672 36.518C90.0445 36.518 89.6198 36.6533 89.2932 36.924C88.9758 37.1853 88.8032 37.5447 88.7752 38.002H87.2772C87.2865 37.498 87.4265 37.036 87.6972 36.616C87.9678 36.196 88.3458 35.8647 88.8312 35.622C89.3258 35.3793 89.8952 35.258 90.5392 35.258C91.5098 35.258 92.2705 35.4727 92.8212 35.902C93.3718 36.3313 93.6472 37.0687 93.6472 38.114V43H92.0932V42.09C91.8692 42.426 91.5565 42.692 91.1552 42.888C90.7538 43.084 90.2732 43.182 89.7132 43.182ZM90.2592 39.626C89.7272 39.7753 89.3585 39.9387 89.1532 40.116C88.9572 40.2933 88.8592 40.5267 88.8592 40.816C88.8592 41.152 88.9805 41.418 89.2232 41.614C89.4658 41.81 89.7832 41.908 90.1752 41.908C90.7538 41.908 91.2065 41.768 91.5332 41.488C91.8692 41.208 92.0372 40.774 92.0372 40.186V39.08C91.7852 39.192 91.4912 39.2947 91.1552 39.388C90.8192 39.4813 90.5205 39.5607 90.2592 39.626ZM95.4133 39.906V35.468H97.1213V39.822C97.1213 40.466 97.2566 40.9467 97.5273 41.264C97.7886 41.5813 98.1946 41.74 98.7453 41.74C99.2959 41.74 99.7019 41.5813 99.9633 41.264C100.234 40.9467 100.369 40.466 100.369 39.822V35.468H102.077V39.906C102.077 40.5127 102.003 41.026 101.853 41.446C101.704 41.8567 101.475 42.1927 101.167 42.454C100.598 42.9393 99.7906 43.182 98.7453 43.182C97.6999 43.182 96.8926 42.9393 96.3233 42.454C96.0153 42.1927 95.7866 41.8567 95.6373 41.446C95.4879 41.026 95.4133 40.5127 95.4133 39.906ZM105.669 32.57V43H103.961V32.57H105.669ZM114.806 39.682H108.828C108.903 40.2887 109.145 40.788 109.556 41.18C109.967 41.572 110.466 41.768 111.054 41.768C111.53 41.768 111.922 41.67 112.23 41.474C112.547 41.278 112.795 40.984 112.972 40.592H114.722C114.479 41.3947 114.022 42.0293 113.35 42.496C112.687 42.9533 111.903 43.182 110.998 43.182C110.242 43.182 109.565 43.0093 108.968 42.664C108.38 42.3187 107.918 41.8473 107.582 41.25C107.255 40.6527 107.092 39.9807 107.092 39.234C107.092 38.4967 107.255 37.8293 107.582 37.232C107.918 36.6253 108.38 36.1493 108.968 35.804C109.565 35.4587 110.242 35.286 110.998 35.286C111.782 35.286 112.463 35.4727 113.042 35.846C113.63 36.2193 114.078 36.7373 114.386 37.4C114.694 38.0627 114.834 38.8233 114.806 39.682ZM113.056 38.464C112.981 37.8853 112.748 37.4373 112.356 37.12C111.964 36.7933 111.502 36.63 110.97 36.63C110.438 36.63 109.976 36.798 109.584 37.134C109.201 37.47 108.963 37.9133 108.87 38.464H113.056Z" fill="white"/>
<defs>
<filter id="filter0_d_617_2740" x="238.971" y="147.903" width="50.1543" height="18.9512" filterUnits="userSpaceOnUse" color-interpolation-filters="sRGB">
<feFlood flood-opacity="0" result="BackgroundImageFix"/>
<feColorMatrix in="SourceAlpha" type="matrix" values="0 0 0 0 0 0 0 0 0 0 0 0 0 0 0 0 0 0 127 0" result="hardAlpha"/>
<feOffset dy="2"/>
<feGaussianBlur stdDeviation="2"/>
<feComposite in2="hardAlpha" operator="out"/>
<feColorMatrix type="matrix" values="0 0 0 0 0 0 0 0 0 0 0 0 0 0 0 0 0 0 0.25 0"/>
<feBlend mode="normal" in2="BackgroundImageFix" result="effect1_dropShadow_617_2740"/>
<feBlend mode="normal" in="SourceGraphic" in2="effect1_dropShadow_617_2740" result="shape"/>
</filter>
<filter id="filter1_d_617_2740" x="26.9023" y="147.903" width="174.76" height="18.2402" filterUnits="userSpaceOnUse" color-interpolation-filters="sRGB">
<feFlood flood-opacity="0" result="BackgroundImageFix"/>
<feColorMatrix in="SourceAlpha" type="matrix" values="0 0 0 0 0 0 0 0 0 0 0 0 0 0 0 0 0 0 127 0" result="hardAlpha"/>
<feOffset dy="2"/>
<feGaussianBlur stdDeviation="2"/>
<feComposite in2="hardAlpha" operator="out"/>
<feColorMatrix type="matrix" values="0 0 0 0 0 0 0 0 0 0 0 0 0 0 0 0 0 0 0.25 0"/>
<feBlend mode="normal" in2="BackgroundImageFix" result="effect1_dropShadow_617_2740"/>
<feBlend mode="normal" in="SourceGraphic" in2="effect1_dropShadow_617_2740" result="shape"/>
</filter>
<filter id="filter2_d_617_2740" x="26.2656" y="119.903" width="111.221" height="18.2402" filterUnits="userSpaceOnUse" color-interpolation-filters="sRGB">
<feFlood flood-opacity="0" result="BackgroundImageFix"/>
<feColorMatrix in="SourceAlpha" type="matrix" values="0 0 0 0 0 0 0 0 0 0 0 0 0 0 0 0 0 0 127 0" result="hardAlpha"/>
<feOffset dy="2"/>
<feGaussianBlur stdDeviation="2"/>
<feComposite in2="hardAlpha" operator="out"/>
<feColorMatrix type="matrix" values="0 0 0 0 0 0 0 0 0 0 0 0 0 0 0 0 0 0 0.25 0"/>
<feBlend mode="normal" in2="BackgroundImageFix" result="effect1_dropShadow_617_2740"/>
<feBlend mode="normal" in="SourceGraphic" in2="effect1_dropShadow_617_2740" result="shape"/>
</filter>
<linearGradient id="paint0_linear_617_2740" x1="158.586" y1="-30.5053" x2="165.299" y2="207.036" gradientUnits="userSpaceOnUse">
<stop stop-color="#44F68E"/>
<stop offset="1" stop-color="#0A5A51"/>
</linearGradient>
</defs>
</svg>
