<svg width="32" height="32" viewBox="0 0 32 32" fill="none" xmlns="http://www.w3.org/2000/svg">
<circle cx="16" cy="16" r="16" fill="#F8F8F7"/>
<path d="M20.2667 11.7333L19.8 12.2M10 16H10.6667H10ZM16 9.99998V10.6667V9.99998ZM21.3333 16H22H21.3333ZM11.7333 11.7333L12.2 12.2L11.7333 11.7333Z" stroke="#1F3F4A" stroke-width="1.125" stroke-linecap="round" stroke-linejoin="round"/>
<path d="M14.0003 18.6667C13.4406 18.2469 13.0272 17.6617 12.8186 16.9939C12.61 16.3261 12.6168 15.6096 12.838 14.9459C13.0593 14.2822 13.4837 13.7049 14.0513 13.2959C14.6188 12.8868 15.3007 12.6667 16.0003 12.6667C16.6999 12.6667 17.3818 12.8868 17.9494 13.2959C18.5169 13.7049 18.9414 14.2822 19.1626 14.9459C19.3838 15.6096 19.3906 16.3261 19.182 16.9939C18.9734 17.6617 18.56 18.2469 18.0003 18.6667C17.74 18.9243 17.5441 19.2396 17.4282 19.5871C17.3124 19.9345 17.28 20.3044 17.3337 20.6667C17.3337 21.0203 17.1932 21.3594 16.9431 21.6095C16.6931 21.8595 16.3539 22 16.0003 22C15.6467 22 15.3076 21.8595 15.0575 21.6095C14.8075 21.3594 14.667 21.0203 14.667 20.6667C14.7206 20.3044 14.6882 19.9345 14.5724 19.5871C14.4566 19.2396 14.2606 18.9243 14.0003 18.6667" stroke="#1F3F4A" stroke-width="1.125" stroke-linecap="round" stroke-linejoin="round"/>
<path d="M14.4663 19.3333H17.533" stroke="#1F3F4A" stroke-width="1.125" stroke-linecap="round" stroke-linejoin="round"/>
</svg>
