<svg width="38" height="38" viewBox="0 0 38 38" fill="none" xmlns="http://www.w3.org/2000/svg">
<path d="M19 33.25C26.8701 33.25 33.25 26.8701 33.25 19C33.25 11.1299 26.8701 4.75 19 4.75C11.1299 4.75 4.75 11.1299 4.75 19C4.75 26.8701 11.1299 33.25 19 33.25Z" stroke="#22D16B" stroke-width="2.375" stroke-linecap="round" stroke-linejoin="round"/>
<path d="M23.4333 14.2499C23.1465 13.7524 22.7298 13.3422 22.2278 13.0633C21.7257 12.7844 21.1573 12.6473 20.5833 12.6666H17.4167C16.5768 12.6666 15.7714 13.0002 15.1775 13.5941C14.5836 14.1879 14.25 14.9934 14.25 15.8333C14.25 16.6731 14.5836 17.4786 15.1775 18.0724C15.7714 18.6663 16.5768 18.9999 17.4167 18.9999H20.5833C21.4232 18.9999 22.2286 19.3336 22.8225 19.9274C23.4164 20.5213 23.75 21.3267 23.75 22.1666C23.75 23.0064 23.4164 23.8119 22.8225 24.4058C22.2286 24.9996 21.4232 25.3333 20.5833 25.3333H17.4167C16.8427 25.3526 16.2743 25.2155 15.7722 24.9365C15.2702 24.6576 14.8535 24.2475 14.5667 23.7499" stroke="#22D16B" stroke-width="2.375" stroke-linecap="round" stroke-linejoin="round"/>
<path d="M19 25.3333V28.5M19 9.5V12.6667V9.5Z" stroke="#22D16B" stroke-width="2.375" stroke-linecap="round" stroke-linejoin="round"/>
</svg>
