<svg width="36" height="26" viewBox="0 0 36 26" fill="none" xmlns="http://www.w3.org/2000/svg">
<path d="M31.1139 10.0001L34.296 13.182M27.9319 13.182L31.1139 10.0001L27.9319 13.182ZM34.296 6.81812L31.1139 10.0001L34.296 6.81812ZM31.1139 10.0001L27.9319 6.81812L31.1139 10.0001Z" stroke="#1F3F4A" stroke-width="1.5" stroke-linecap="round" stroke-linejoin="round"/>
<path d="M1.5 25V23.5C1.5 17.701 6.20102 13 12 13C17.799 13 22.5 17.701 22.5 23.5V25" stroke="#1F3F4A" stroke-width="1.5" stroke-linecap="round" stroke-linejoin="round"/>
<path d="M12 13C15.3137 13 18 10.3137 18 7C18 3.68629 15.3137 1 12 1C8.68629 1 6 3.68629 6 7C6 10.3137 8.68629 13 12 13Z" stroke="#1F3F4A" stroke-width="1.5" stroke-linecap="round" stroke-linejoin="round"/>
</svg>
