<svg width="38" height="36" viewBox="0 0 38 36" fill="none" xmlns="http://www.w3.org/2000/svg">
<g clip-path="url(#clip0_278_152)">
<path d="M3.48875 13.3476C2.5627 13.3476 1.67454 12.9797 1.01972 12.3249C0.364903 11.6701 -0.00292969 10.782 -0.00292969 9.85594C-0.00292969 8.92989 0.364903 8.04176 1.01972 7.38695C1.67454 6.73213 2.5627 6.36426 3.48875 6.36426C3.64309 6.36426 3.79107 6.42556 3.90021 6.53469C4.00934 6.64383 4.0707 6.79186 4.0707 6.9462C4.0707 7.10055 4.00934 7.24856 3.90021 7.3577C3.79107 7.46683 3.64309 7.52815 3.48875 7.52815C2.87138 7.52815 2.27925 7.77339 1.84271 8.20993C1.40616 8.64648 1.16096 9.23857 1.16096 9.85594C1.16096 10.4733 1.40616 11.0654 1.84271 11.5019C2.27925 11.9385 2.87138 12.1837 3.48875 12.1837C3.64309 12.1837 3.79107 12.245 3.90021 12.3542C4.00934 12.4633 4.0707 12.6113 4.0707 12.7657C4.0707 12.92 4.00934 13.068 3.90021 13.1772C3.79107 13.2863 3.64309 13.3476 3.48875 13.3476Z" fill="#256763"/>
<path d="M27.0137 36.0001H23.7067C23.5654 36.0002 23.429 35.9489 23.3228 35.8559C23.2166 35.7628 23.1478 35.6342 23.1293 35.4942L22.6638 31.9249C19.3855 32.8083 15.9328 32.8147 12.6513 31.9436L12.1857 35.4942C12.1672 35.6342 12.0985 35.7628 11.9922 35.8559C11.886 35.9489 11.7496 36.0002 11.6084 36.0001H8.29984C8.18228 36.0002 8.06741 35.9646 7.97045 35.8981C7.8735 35.8317 7.79901 35.7374 7.75669 35.6277L4.36428 26.8612C2.42601 24.5753 1.40332 21.886 1.40332 19.0802C1.40332 14.5643 4.09119 10.3665 8.59468 7.84941C8.72947 7.77409 8.88863 7.75542 9.0372 7.79747C9.18577 7.83952 9.31158 7.93886 9.3869 8.07365C9.46222 8.20844 9.48086 8.36764 9.43881 8.51621C9.39675 8.66478 9.2974 8.79057 9.16261 8.86589C5.03312 11.1735 2.56721 14.9926 2.56721 19.0802C2.56721 21.6346 3.51547 24.0896 5.31252 26.18C5.35603 26.2298 5.39018 26.2871 5.41337 26.3491L8.69864 34.8362H11.0963L11.5835 31.1226C11.5945 31.0387 11.6236 30.9581 11.6689 30.8865C11.7142 30.815 11.7746 30.7542 11.8459 30.7084C11.9171 30.6626 11.9974 30.6329 12.0813 30.6213C12.1652 30.6098 12.2506 30.6167 12.3316 30.6416C15.8026 31.6974 19.5102 31.6904 22.9773 30.6214C23.0583 30.596 23.1439 30.5886 23.2281 30.5998C23.3122 30.611 23.393 30.6405 23.4646 30.6862C23.5361 30.7319 23.5968 30.7927 23.6424 30.8643C23.688 30.936 23.7173 31.0167 23.7284 31.1009L24.2172 34.8362H26.6149L29.9606 26.1955C29.9831 26.1387 30.0151 26.0862 30.0553 26.0403C30.1919 25.8851 30.3223 25.7113 30.4495 25.5437C30.4686 25.5176 30.4898 25.4932 30.5131 25.4708L36.03 20.2146L36.075 14.7971C34.8661 14.7273 32.4142 14.4696 31.6196 13.5246C31.2565 13.0931 30.5643 12.4057 29.9529 11.7989C29.6425 11.4885 29.3554 11.2045 29.1319 10.9733C28.1419 9.90718 29.132 6.85623 29.8396 5.07624C27.5258 4.7457 25.5487 6.53655 24.5307 7.70199C24.4278 7.81356 24.2854 7.88053 24.1339 7.88861C23.9823 7.89669 23.8336 7.84524 23.7195 7.74524C23.6053 7.64525 23.5347 7.50461 23.5228 7.35332C23.5108 7.20203 23.5584 7.05205 23.6554 6.93537C24.9497 5.45334 27.6018 3.1147 30.811 4.10633C30.8881 4.13017 30.9593 4.16984 31.0202 4.22282C31.081 4.27579 31.1301 4.3409 31.1643 4.41396C31.1985 4.48702 31.217 4.56641 31.2187 4.64706C31.2204 4.7277 31.2053 4.80782 31.1742 4.88226C30.1702 7.24264 29.599 9.75975 29.9761 10.1586C30.1872 10.3774 30.4712 10.6598 30.7738 10.9593C31.3946 11.5801 32.1131 12.2908 32.5088 12.761C32.9247 13.2545 34.9917 13.6037 36.6755 13.644C36.8282 13.6477 36.9734 13.7113 37.0797 13.821C37.1859 13.9308 37.2448 14.0779 37.2435 14.2307L37.1923 20.4567C37.1916 20.5349 37.1752 20.6122 37.144 20.6839C37.1128 20.7556 37.0675 20.8204 37.0107 20.8742L31.3496 26.2669C31.2409 26.4127 31.1276 26.5555 31.0112 26.6967L27.5568 35.6215C27.5155 35.7323 27.4414 35.8279 27.3444 35.8956C27.2473 35.9632 27.132 35.9997 27.0137 36.0001V36.0001Z" fill="#256763"/>
<path d="M26.915 14.1437C26.915 14.2733 26.9535 14.3999 27.0255 14.5076C27.0976 14.6154 27.1999 14.6993 27.3197 14.7488C27.4394 14.7984 27.5712 14.8112 27.6983 14.7858C27.8253 14.7604 27.942 14.6979 28.0336 14.6062C28.1251 14.5144 28.1873 14.3976 28.2124 14.2705C28.2375 14.1433 28.2243 14.0116 28.1745 13.892C28.1247 13.7723 28.0405 13.6702 27.9326 13.5984C27.8247 13.5266 27.698 13.4885 27.5684 13.4888C27.4824 13.4886 27.3972 13.5054 27.3177 13.5382C27.2383 13.5711 27.1661 13.6193 27.1054 13.6802C27.0447 13.7411 26.9966 13.8134 26.9639 13.8929C26.9313 13.9725 26.9146 14.0577 26.915 14.1437V14.1437Z" fill="#256763"/>
<path d="M12.1601 31.7803C12.1005 31.7803 12.0414 31.7709 11.9847 31.7524C11.8296 31.7028 10.4329 31.262 9.93005 30.9936C9.86029 30.9592 9.79817 30.9111 9.74728 30.8523C9.6964 30.7935 9.65776 30.7251 9.63377 30.6511C9.60979 30.5771 9.60094 30.499 9.60763 30.4216C9.61432 30.3441 9.63641 30.2687 9.67272 30.1999C9.70903 30.1311 9.75876 30.0703 9.81897 30.0211C9.87918 29.9719 9.94871 29.9352 10.0233 29.9133C10.098 29.8913 10.1762 29.8846 10.2535 29.8934C10.3307 29.9022 10.4055 29.9265 10.4732 29.9647C11.0806 30.2259 11.7023 30.4523 12.3354 30.6428C12.4683 30.6843 12.582 30.772 12.6557 30.89C12.7295 31.0081 12.7585 31.1487 12.7375 31.2863C12.7165 31.4239 12.6468 31.5494 12.5412 31.6401C12.4355 31.7307 12.3008 31.7805 12.1616 31.7803H12.1601Z" fill="#256763"/>
<path d="M23.1504 31.7588C23.0136 31.759 22.8812 31.7111 22.7762 31.6234C22.6713 31.5358 22.6005 31.4139 22.5765 31.2793C22.5524 31.1447 22.5765 31.0059 22.6446 30.8872C22.7126 30.7686 22.8203 30.6778 22.9487 30.6306C23.4454 30.4481 23.9287 30.2308 24.395 29.9804C24.5273 29.9007 24.6859 29.8769 24.8358 29.9142C24.9856 29.9514 25.1145 30.0467 25.1942 30.179C25.2738 30.3113 25.2976 30.4699 25.2604 30.6198C25.2231 30.7696 25.1279 30.8986 24.9956 30.9782C24.4668 31.2661 23.9175 31.5145 23.3522 31.7216C23.2877 31.7459 23.2193 31.7585 23.1504 31.7588V31.7588Z" fill="#256763"/>
<path d="M10.6597 13.9217C10.283 13.9212 9.91661 13.7989 9.61515 13.5731C9.31369 13.3472 9.09329 13.0299 8.98698 12.6686C8.88067 12.3072 8.89411 11.9212 9.02525 11.5681C9.15638 11.2149 9.39816 10.9137 9.71457 10.7093C9.79992 10.6535 9.88689 10.5992 9.97379 10.5448L10.129 10.4502C10.2617 10.3712 10.4204 10.3481 10.5701 10.3861C10.7199 10.4241 10.8483 10.52 10.9273 10.6527C11.0064 10.7854 11.0294 10.9441 10.9914 11.0939C10.9535 11.2436 10.8576 11.3721 10.7249 11.4511L10.5821 11.5365L10.3446 11.6917C10.2388 11.7593 10.1576 11.8594 10.1134 11.9769C10.0691 12.0945 10.064 12.2232 10.099 12.3439C10.1339 12.4645 10.2069 12.5706 10.3071 12.6464C10.4073 12.7221 10.5294 12.7634 10.655 12.764V12.764C10.7652 12.7629 10.8728 12.7306 10.9654 12.6709C12.0375 11.9838 13.2164 11.4798 14.4539 11.1795C15.4585 10.9329 16.4892 10.8089 17.5236 10.8102C18.8062 10.807 20.0818 10.9985 21.307 11.3782C21.7969 11.5323 22.2764 11.7179 22.7424 11.9337C22.8826 11.9988 23.0428 12.0055 23.1879 11.9524C23.333 11.8993 23.451 11.7907 23.516 11.6505C23.5811 11.5104 23.5878 11.3502 23.5347 11.2051C23.4816 11.06 23.373 10.942 23.2329 10.8769C23.0932 10.8133 22.952 10.7497 22.8092 10.6907C22.6668 10.6308 22.554 10.5168 22.4956 10.3738C22.4373 10.2307 22.4381 10.0704 22.498 9.92798C22.5579 9.78557 22.6719 9.67279 22.815 9.61444C22.958 9.55609 23.1183 9.55694 23.2607 9.61683C23.4159 9.68356 23.5711 9.75028 23.7263 9.82167C23.9387 9.91518 24.1305 10.0501 24.2901 10.2186C24.4498 10.3871 24.5743 10.5857 24.6563 10.8028C24.7383 11.02 24.7761 11.2513 24.7677 11.4832C24.7592 11.7152 24.7046 11.9432 24.6069 12.1538C24.5093 12.3643 24.3707 12.5533 24.1992 12.7097C24.0277 12.8661 23.8267 12.9867 23.608 13.0645C23.3893 13.1423 23.1573 13.1757 22.9255 13.1627C22.6938 13.1497 22.4669 13.0907 22.2582 12.989C21.8379 12.795 21.4057 12.6281 20.964 12.4893C18.9432 11.87 16.7927 11.8078 14.7395 12.3093C13.6267 12.5791 12.5663 13.0317 11.6016 13.6486C11.3195 13.8306 10.9908 13.9276 10.655 13.9279L10.6597 13.9217Z" fill="#256763"/>
<path d="M12.472 11.1671C12.3237 11.1683 12.1804 11.1128 12.0716 11.0119C11.3048 10.2859 10.7303 9.38085 10.3997 8.37794C10.0691 7.37503 9.99271 6.30572 10.1774 5.266C10.3622 4.22629 10.8022 3.24871 11.458 2.42107C12.1139 1.59344 12.9651 0.941644 13.9351 0.524214C14.9051 0.106784 15.9635 -0.0631981 17.0155 0.0295027C18.0674 0.122204 19.0798 0.474695 19.9619 1.05534C20.8439 1.63598 21.5679 2.42658 22.0689 3.35617C22.5699 4.28575 22.8322 5.32521 22.8323 6.38121C22.8316 7.84336 22.3293 9.26102 21.4092 10.3974C21.3114 10.5156 21.1708 10.5903 21.0182 10.6054C20.8655 10.6205 20.713 10.5746 20.594 10.4779C20.4749 10.3811 20.3989 10.2412 20.3824 10.0887C20.366 9.93618 20.4103 9.78333 20.506 9.66339C21.0311 9.01524 21.393 8.25052 21.5612 7.43351C21.7295 6.61649 21.6992 5.77104 21.473 4.96815C21.2467 4.16527 20.8311 3.42841 20.261 2.81948C19.6908 2.21054 18.9829 1.74732 18.1966 1.46872C17.4104 1.19013 16.5688 1.1043 15.7425 1.21844C14.9161 1.33258 14.1292 1.64336 13.4479 2.12466C12.7666 2.60597 12.2108 3.24375 11.8271 3.98443C11.4434 4.72511 11.2431 5.54705 11.243 6.38121C11.2399 7.09022 11.383 7.79225 11.6634 8.44348C11.9437 9.09471 12.3553 9.68115 12.8724 10.1662C12.9568 10.2463 13.0153 10.3499 13.0403 10.4636C13.0652 10.5772 13.0555 10.6958 13.0124 10.8039C12.9693 10.9119 12.8948 11.0046 12.7985 11.0699C12.7022 11.1352 12.5884 11.1702 12.472 11.1702V11.1671Z" fill="#256763"/>
</g>
<defs>
<clipPath id="clip0_278_152">
<rect width="37.2446" height="36" fill="white"/>
</clipPath>
</defs>
</svg>
