<svg width="96" height="96" viewBox="0 0 96 96" fill="none" xmlns="http://www.w3.org/2000/svg">
<circle cx="48" cy="48" r="48" fill="#4544ED" fill-opacity="0.1"/>
<g clip-path="url(#clip0_613_3621)">
<path d="M48 63C56.2843 63 63 56.2843 63 48C63 39.7157 56.2843 33 48 33C39.7157 33 33 39.7157 33 48C33 56.2843 39.7157 63 48 63Z" stroke="#4544ED" stroke-width="2.5" stroke-linecap="round" stroke-linejoin="round"/>
<path d="M43 44.6667H43.0167" stroke="#4544ED" stroke-width="2.5" stroke-linecap="round" stroke-linejoin="round"/>
<path d="M53 44.6667H53.0167" stroke="#4544ED" stroke-width="2.5" stroke-linecap="round" stroke-linejoin="round"/>
<path d="M43.833 53.4166C44.3761 52.8623 45.0244 52.4219 45.7399 52.1213C46.4554 51.8206 47.2236 51.6658 47.9997 51.6658C48.7757 51.6658 49.544 51.8206 50.2595 52.1213C50.9749 52.4219 51.6232 52.8623 52.1663 53.4166" stroke="#4544ED" stroke-width="2.5" stroke-linecap="round" stroke-linejoin="round"/>
</g>
<defs>
<clipPath id="clip0_613_3621">
<rect width="40" height="40" fill="white" transform="translate(28 28)"/>
</clipPath>
</defs>
</svg>
