<svg width="35" height="36" viewBox="0 0 35 36" fill="none" xmlns="http://www.w3.org/2000/svg">
<g clip-path="url(#clip0_264_36)">
<path d="M33.9492 33.7545H15.9492C15.8753 33.7547 15.8021 33.7403 15.7337 33.7121C15.6654 33.6839 15.6033 33.6425 15.551 33.5902C15.4987 33.5379 15.4573 33.4758 15.4291 33.4075C15.4009 33.3392 15.3865 33.2659 15.3867 33.192V6.18152C15.3867 6.03233 15.446 5.88925 15.5515 5.78376C15.657 5.67827 15.8 5.61902 15.9492 5.61902H33.9492C34.0984 5.61902 34.2415 5.67827 34.3469 5.78376C34.4524 5.88925 34.5117 6.03233 34.5117 6.18152V33.192C34.5119 33.2659 34.4975 33.3392 34.4693 33.4075C34.4411 33.4758 34.3997 33.5379 34.3474 33.5902C34.2951 33.6425 34.233 33.6839 34.1647 33.7121C34.0964 33.7403 34.0231 33.7547 33.9492 33.7545ZM16.5117 32.6295H33.3867V6.74402H16.5087L16.5117 32.6295Z" fill="#256763"/>
<path d="M33.9492 24.756H15.9492C15.8 24.756 15.657 24.6967 15.5515 24.5912C15.446 24.4857 15.3867 24.3427 15.3867 24.1935C15.3867 24.0443 15.446 23.9012 15.5515 23.7957C15.657 23.6903 15.8 23.631 15.9492 23.631H33.9492C34.0984 23.631 34.2415 23.6903 34.3469 23.7957C34.4524 23.9012 34.5117 24.0443 34.5117 24.1935C34.5117 24.3427 34.4524 24.4857 34.3469 24.5912C34.2415 24.6967 34.0984 24.756 33.9492 24.756Z" fill="#256763"/>
<path d="M24.9492 33.7545C24.8753 33.7547 24.8021 33.7403 24.7337 33.7121C24.6654 33.6839 24.6033 33.6425 24.551 33.5902C24.4987 33.5379 24.4573 33.4758 24.4291 33.4075C24.4009 33.3392 24.3865 33.2659 24.3867 33.192V15.192C24.3867 15.0428 24.446 14.8998 24.5515 14.7943C24.657 14.6888 24.8 14.6295 24.9492 14.6295C25.0984 14.6295 25.2415 14.6888 25.347 14.7943C25.4524 14.8998 25.5117 15.0428 25.5117 15.192V33.192C25.5119 33.2659 25.4975 33.3392 25.4693 33.4075C25.4411 33.4758 25.3997 33.5379 25.3474 33.5902C25.2951 33.6425 25.233 33.6839 25.1647 33.7121C25.0964 33.7403 25.0231 33.7547 24.9492 33.7545Z" fill="#256763"/>
<path d="M33.9492 33.7545C33.8753 33.7547 33.8021 33.7403 33.7337 33.7121C33.6654 33.6839 33.6033 33.6425 33.551 33.5902C33.4987 33.5379 33.4573 33.4758 33.4291 33.4075C33.4009 33.3392 33.3865 33.2659 33.3867 33.192V15.192C33.3867 15.0428 33.446 14.8998 33.5515 14.7943C33.657 14.6888 33.8 14.6295 33.9492 14.6295C34.0984 14.6295 34.2415 14.6888 34.3469 14.7943C34.4524 14.8998 34.5117 15.0428 34.5117 15.192V33.192C34.5119 33.2659 34.4975 33.3392 34.4693 33.4075C34.4411 33.4758 34.3997 33.5379 34.3474 33.5902C34.2951 33.6425 34.233 33.6839 34.1647 33.7121C34.0964 33.7403 34.0231 33.7547 33.9492 33.7545Z" fill="#256763"/>
<path d="M33.9492 15.756H15.9492C15.8 15.756 15.657 15.6967 15.5515 15.5912C15.446 15.4857 15.3867 15.3427 15.3867 15.1935C15.3867 15.0443 15.446 14.9012 15.5515 14.7957C15.657 14.6903 15.8 14.631 15.9492 14.631H33.9492C34.0984 14.631 34.2415 14.6903 34.3469 14.7957C34.4524 14.9012 34.5117 15.0443 34.5117 15.1935C34.5117 15.3427 34.4524 15.4857 34.3469 15.5912C34.2415 15.6967 34.0984 15.756 33.9492 15.756Z" fill="#256763"/>
<path d="M22.582 20.325H18.082C17.9328 20.325 17.7898 20.2658 17.6843 20.1603C17.5788 20.0548 17.5195 19.9117 17.5195 19.7625C17.5195 19.6133 17.5788 19.4703 17.6843 19.3648C17.7898 19.2593 17.9328 19.2 18.082 19.2H22.582C22.7312 19.2 22.8743 19.2593 22.9798 19.3648C23.0853 19.4703 23.1445 19.6133 23.1445 19.7625C23.1445 19.9117 23.0853 20.0548 22.9798 20.1603C22.8743 20.2658 22.7312 20.325 22.582 20.325Z" fill="#256763"/>
<path d="M20.332 22.575C20.2581 22.5752 20.1849 22.5608 20.1165 22.5326C20.0482 22.5044 19.9861 22.463 19.9339 22.4107C19.8816 22.3584 19.8401 22.2963 19.8119 22.228C19.7837 22.1597 19.7693 22.0864 19.7695 22.0125V17.5125C19.7695 17.3633 19.8288 17.2203 19.9343 17.1148C20.0398 17.0093 20.1828 16.95 20.332 16.95C20.4812 16.95 20.6243 17.0093 20.7298 17.1148C20.8353 17.2203 20.8945 17.3633 20.8945 17.5125V22.0125C20.8947 22.0864 20.8803 22.1597 20.8521 22.228C20.8239 22.2963 20.7825 22.3584 20.7302 22.4107C20.678 22.463 20.6159 22.5044 20.5475 22.5326C20.4792 22.5608 20.406 22.5752 20.332 22.575Z" fill="#256763"/>
<path d="M31.6992 20.325H27.1992C27.05 20.325 26.907 20.2658 26.8015 20.1603C26.696 20.0548 26.6367 19.9117 26.6367 19.7625C26.6367 19.6133 26.696 19.4703 26.8015 19.3648C26.907 19.2593 27.05 19.2 27.1992 19.2H31.6992C31.8484 19.2 31.9915 19.2593 32.097 19.3648C32.2024 19.4703 32.2617 19.6133 32.2617 19.7625C32.2617 19.9117 32.2024 20.0548 32.097 20.1603C31.9915 20.2658 31.8484 20.325 31.6992 20.325Z" fill="#256763"/>
<path d="M21.9236 30.774C21.8498 30.774 21.7766 30.7595 21.7084 30.7311C21.6402 30.7028 21.5783 30.6613 21.5261 30.609L18.3431 27.426C18.2909 27.3737 18.2496 27.3116 18.2213 27.2433C18.1931 27.175 18.1786 27.1019 18.1787 27.028C18.1788 26.9541 18.1934 26.8809 18.2217 26.8127C18.2501 26.7444 18.2916 26.6824 18.3439 26.6302C18.3962 26.578 18.4583 26.5367 18.5266 26.5084C18.5948 26.4802 18.668 26.4658 18.7419 26.4658C18.8158 26.4659 18.889 26.4805 18.9572 26.5089C19.0254 26.5372 19.0874 26.5787 19.1396 26.631L22.3211 29.8125C22.3995 29.8914 22.4528 29.9916 22.4743 30.1007C22.4959 30.2097 22.4847 30.3227 22.4422 30.4255C22.3998 30.5282 22.3279 30.6161 22.2356 30.6781C22.1433 30.7401 22.0348 30.7735 21.9236 30.774Z" fill="#256763"/>
<path d="M18.7411 30.774C18.6299 30.7735 18.5214 30.7401 18.4291 30.6781C18.3368 30.6161 18.265 30.5282 18.2225 30.4255C18.18 30.3227 18.1688 30.2098 18.1904 30.1007C18.2119 29.9916 18.2652 29.8914 18.3436 29.8125L21.5266 26.631C21.6332 26.5316 21.7743 26.4776 21.92 26.4801C22.0657 26.4827 22.2047 26.5417 22.3078 26.6448C22.4109 26.7479 22.4699 26.8869 22.4725 27.0326C22.475 27.1783 22.4209 27.3194 22.3216 27.426L19.1401 30.609C19.0341 30.7145 18.8906 30.7738 18.7411 30.774Z" fill="#256763"/>
<path d="M31.8643 29.1825H27.3643C27.2151 29.1825 27.072 29.1232 26.9665 29.0177C26.861 28.9122 26.8018 28.7692 26.8018 28.62C26.8018 28.4708 26.861 28.3277 26.9665 28.2222C27.072 28.1167 27.2151 28.0575 27.3643 28.0575H31.8643C32.0134 28.0575 32.1565 28.1167 32.262 28.2222C32.3675 28.3277 32.4268 28.4708 32.4268 28.62C32.4268 28.7692 32.3675 28.9122 32.262 29.0177C32.1565 29.1232 32.0134 29.1825 31.8643 29.1825Z" fill="#256763"/>
<path d="M29.6135 26.01C29.4882 26.01 29.3658 26.0472 29.2616 26.1168C29.1575 26.1864 29.0764 26.2854 29.0285 26.4011C28.9807 26.5169 28.9682 26.6442 28.9927 26.7671C29.0173 26.8899 29.0777 27.0027 29.1664 27.0911C29.2551 27.1796 29.368 27.2398 29.4909 27.264C29.6138 27.2883 29.7411 27.2755 29.8567 27.2274C29.9724 27.1793 30.0711 27.0979 30.1405 26.9936C30.2099 26.8893 30.2468 26.7668 30.2465 26.6415C30.2467 26.5584 30.2304 26.4761 30.1987 26.3993C30.1669 26.3225 30.1203 26.2527 30.0614 26.194C30.0026 26.1353 29.9327 26.0888 29.8558 26.0573C29.7789 26.0257 29.6966 26.0096 29.6135 26.01Z" fill="#256763"/>
<path d="M29.6135 29.964C29.4883 29.964 29.3659 30.0011 29.2618 30.0707C29.1577 30.1402 29.0766 30.2391 29.0287 30.3548C28.9807 30.4704 28.9682 30.5977 28.9926 30.7205C29.0171 30.8433 29.0773 30.9561 29.1659 31.0446C29.2544 31.1331 29.3672 31.1934 29.49 31.2178C29.6128 31.2423 29.7401 31.2297 29.8557 31.1818C29.9714 31.1339 30.0702 31.0528 30.1398 30.9487C30.2094 30.8446 30.2465 30.7222 30.2465 30.597C30.2467 30.5138 30.2304 30.4314 30.1987 30.3545C30.167 30.2776 30.1203 30.2078 30.0615 30.1489C30.0027 30.0901 29.9328 30.0435 29.8559 30.0118C29.7791 29.98 29.6967 29.9638 29.6135 29.964Z" fill="#256763"/>
<path d="M24.9495 36H0.5625C0.413316 36 0.270248 35.9408 0.164758 35.8353C0.0592691 35.7298 0 35.5867 0 35.4375V8.08801C0 7.93883 0.0592691 7.79576 0.164758 7.69027C0.270248 7.58478 0.413316 7.52551 0.5625 7.52551C0.711684 7.52551 0.854771 7.58478 0.96026 7.69027C1.06575 7.79576 1.125 7.93883 1.125 8.08801V34.875H24.9495C25.0987 34.875 25.2418 34.9343 25.3473 35.0398C25.4527 35.1453 25.512 35.2883 25.512 35.4375C25.512 35.5867 25.4527 35.7298 25.3473 35.8353C25.2418 35.9408 25.0987 36 24.9495 36Z" fill="#256763"/>
<path d="M24.9494 4.88701C24.8002 4.88701 24.6571 4.82774 24.5517 4.72226C24.4462 4.61677 24.3869 4.4737 24.3869 4.32451V1.125H8.08789C7.93871 1.125 7.79564 1.06575 7.69015 0.96026C7.58466 0.854771 7.52539 0.711685 7.52539 0.5625C7.52539 0.413316 7.58466 0.270248 7.69015 0.164758C7.79564 0.0592691 7.93871 0 8.08789 0H24.9494C25.0986 0 25.2417 0.0592691 25.3471 0.164758C25.4526 0.270248 25.5119 0.413316 25.5119 0.5625V4.32451C25.5119 4.4737 25.4526 4.61677 25.3471 4.72226C25.2417 4.82774 25.0986 4.88701 24.9494 4.88701Z" fill="#256763"/>
<path d="M8.08751 8.64751H0.562003C0.450823 8.64741 0.342183 8.61437 0.249771 8.55255C0.15736 8.49074 0.0853224 8.40292 0.0427888 8.3002C0.000255315 8.19747 -0.0108813 8.08445 0.010782 7.9754C0.0324453 7.86635 0.0859501 7.76617 0.164517 7.68751L7.69001 0.162019C7.76839 0.0827127 7.86862 0.0285527 7.97792 0.00647137C8.08722 -0.0156099 8.20062 -0.00461871 8.30365 0.0380387C8.40667 0.0806962 8.49464 0.153092 8.55633 0.245973C8.61803 0.338855 8.65063 0.448002 8.65001 0.559505V8.08501C8.65001 8.23419 8.59074 8.37726 8.48525 8.48275C8.37976 8.58824 8.23669 8.64751 8.08751 8.64751ZM1.91951 7.52251H7.52501V1.91701L1.91951 7.52251Z" fill="#256763"/>
<path d="M13.6003 13.5H4.67383C4.52464 13.5 4.38158 13.4407 4.27609 13.3353C4.1706 13.2298 4.11133 13.0867 4.11133 12.9375C4.11133 12.7883 4.1706 12.6452 4.27609 12.5398C4.38158 12.4343 4.52464 12.375 4.67383 12.375H13.6003C13.7495 12.375 13.8926 12.4343 13.9981 12.5398C14.1036 12.6452 14.1628 12.7883 14.1628 12.9375C14.1628 13.0867 14.1036 13.2298 13.9981 13.3353C13.8926 13.4407 13.7495 13.5 13.6003 13.5Z" fill="#256763"/>
<path d="M13.6003 17.2965H4.67383C4.52464 17.2965 4.38158 17.2372 4.27609 17.1318C4.1706 17.0263 4.11133 16.8832 4.11133 16.734C4.11133 16.5848 4.1706 16.4417 4.27609 16.3362C4.38158 16.2308 4.52464 16.1715 4.67383 16.1715H13.6003C13.7495 16.1715 13.8926 16.2308 13.9981 16.3362C14.1036 16.4417 14.1628 16.5848 14.1628 16.734C14.1628 16.8832 14.1036 17.0263 13.9981 17.1318C13.8926 17.2372 13.7495 17.2965 13.6003 17.2965Z" fill="#256763"/>
<path d="M9.87283 21.0975H4.67383C4.52464 21.0975 4.38158 21.0382 4.27609 20.9327C4.1706 20.8272 4.11133 20.6842 4.11133 20.535C4.11133 20.3858 4.1706 20.2427 4.27609 20.1372C4.38158 20.0317 4.52464 19.9725 4.67383 19.9725H9.87283C10.022 19.9725 10.1651 20.0317 10.2706 20.1372C10.3761 20.2427 10.4353 20.3858 10.4353 20.535C10.4353 20.6842 10.3761 20.8272 10.2706 20.9327C10.1651 21.0382 10.022 21.0975 9.87283 21.0975Z" fill="#256763"/>
</g>
<defs>
<clipPath id="clip0_264_36">
<rect width="34.512" height="36" fill="white"/>
</clipPath>
</defs>
</svg>
