<svg width="28" height="28" viewBox="0 0 28 28" fill="none" xmlns="http://www.w3.org/2000/svg">
<circle cx="14" cy="14" r="14" fill="#256763"/>
<path d="M11.6052 15.7676C11.6052 15.6152 11.5817 15.4785 11.5348 15.3574C11.4919 15.2324 11.4098 15.1191 11.2888 15.0176C11.1677 14.9121 10.9977 14.8086 10.779 14.707C10.5602 14.6055 10.277 14.5 9.92938 14.3906C9.54266 14.2656 9.17547 14.125 8.82781 13.9688C8.48406 13.8125 8.17938 13.6309 7.91375 13.4238C7.65203 13.2129 7.445 12.9688 7.29266 12.6914C7.14422 12.4141 7.07 12.0918 7.07 11.7246C7.07 11.3691 7.14813 11.0469 7.30438 10.7578C7.46063 10.4648 7.67938 10.2148 7.96063 10.0078C8.24188 9.79688 8.57391 9.63477 8.95672 9.52148C9.34344 9.4082 9.76727 9.35156 10.2282 9.35156C10.8571 9.35156 11.4059 9.46484 11.8747 9.69141C12.3434 9.91797 12.7067 10.2285 12.9645 10.623C13.2263 11.0176 13.3571 11.4688 13.3571 11.9766H11.611C11.611 11.7266 11.5583 11.5078 11.4528 11.3203C11.3513 11.1289 11.195 10.9785 10.9841 10.8691C10.777 10.7598 10.5153 10.7051 10.1989 10.7051C9.89422 10.7051 9.64031 10.752 9.43719 10.8457C9.23406 10.9355 9.08172 11.0586 8.98016 11.2148C8.87859 11.3672 8.82781 11.5391 8.82781 11.7305C8.82781 11.875 8.86297 12.0059 8.93328 12.123C9.0075 12.2402 9.11688 12.3496 9.26141 12.4512C9.40594 12.5527 9.58367 12.6484 9.79461 12.7383C10.0055 12.8281 10.2497 12.916 10.527 13.002C10.9919 13.1426 11.4001 13.3008 11.7516 13.4766C12.1071 13.6523 12.404 13.8496 12.6423 14.0684C12.8805 14.2871 13.0602 14.5352 13.1813 14.8125C13.3024 15.0898 13.363 15.4043 13.363 15.7559C13.363 16.127 13.2907 16.459 13.1462 16.752C13.0016 17.0449 12.7927 17.293 12.5192 17.4961C12.2458 17.6992 11.9196 17.8535 11.5407 17.959C11.1618 18.0645 10.738 18.1172 10.2692 18.1172C9.84734 18.1172 9.43133 18.0625 9.02117 17.9531C8.61102 17.8398 8.23797 17.6699 7.90203 17.4434C7.57 17.2168 7.30438 16.9277 7.10516 16.5762C6.90594 16.2246 6.80633 15.8086 6.80633 15.3281H8.57C8.57 15.5938 8.61102 15.8184 8.69305 16.002C8.77508 16.1855 8.89031 16.334 9.03875 16.4473C9.19109 16.5605 9.37078 16.6426 9.57781 16.6934C9.78875 16.7441 10.0192 16.7695 10.2692 16.7695C10.5739 16.7695 10.8239 16.7266 11.0192 16.6406C11.2184 16.5547 11.3649 16.4355 11.4587 16.2832C11.5563 16.1309 11.6052 15.959 11.6052 15.7676ZM18.7327 9.46875V18H16.9808V9.46875H18.7327ZM21.3577 9.46875V10.8457H14.3968V9.46875H21.3577Z" fill="white"/>
</svg>
