<svg width="32" height="32" viewBox="0 0 32 32" fill="none" xmlns="http://www.w3.org/2000/svg">
<circle cx="16" cy="16" r="16" fill="#F8F8F7"/>
<path d="M12.5332 15.3334C12.1826 15.9415 11.9982 16.6311 11.9985 17.3331C11.9989 18.035 12.1839 18.7245 12.535 19.3323C12.8862 19.9401 13.3911 20.4448 13.9991 20.7956C14.607 21.1465 15.2966 21.3312 15.9985 21.3312C16.7005 21.3312 17.3901 21.1465 17.998 20.7956C18.606 20.4448 19.1109 19.9401 19.462 19.3323C19.8132 18.7245 19.9982 18.035 19.9985 17.3331C19.9989 16.6311 19.8145 15.9415 19.4639 15.3334L15.9992 10L12.5325 15.3334H12.5332Z" stroke="#1F3F4A" stroke-width="1.125" stroke-linecap="round" stroke-linejoin="round"/>
</svg>
